<svg id="Capa_1" data-name="Capa 1" xmlns="http://www.w3.org/2000/svg" viewBox="0 0 1000 1000"><defs><style>.cls-1{fill:#fff;}</style></defs><title>Mesa de trabajo 61</title><path class="cls-1" d="M510.29,598.33V494.76h15.24a6.13,6.13,0,0,1,6.36,4.55l1.72,8.17a56.72,56.72,0,0,1,6.61-5.85,45.49,45.49,0,0,1,7.37-4.54,37.17,37.17,0,0,1,8.33-2.93,43.88,43.88,0,0,1,9.69-1,37.12,37.12,0,0,1,15,2.88,29.73,29.73,0,0,1,11,8.07,35.64,35.64,0,0,1,6.67,12.42,52.89,52.89,0,0,1,2.27,15.9v65.91H575.6V532.42q0-9.49-4.39-14.69T558,512.53a26,26,0,0,0-12.12,2.93,43.73,43.73,0,0,0-10.7,8v74.9Z"/><path class="cls-1" d="M675.53,493.15a50.23,50.23,0,0,1,18,3.13,39.44,39.44,0,0,1,14.18,9.13A41.81,41.81,0,0,1,717,520.15a55.69,55.69,0,0,1,3.33,19.94,35.75,35.75,0,0,1-.25,4.69,7.67,7.67,0,0,1-.91,2.93,3.71,3.71,0,0,1-1.77,1.51,7.36,7.36,0,0,1-2.82.46h-64q1.11,15.95,8.58,23.42T679,580.57a34.34,34.34,0,0,0,10.45-1.42,48.59,48.59,0,0,0,7.67-3.13c2.19-1.14,4.1-2.18,5.75-3.13a9.69,9.69,0,0,1,4.8-1.41,5.31,5.31,0,0,1,2.62.61,5.76,5.76,0,0,1,1.92,1.71l7.27,9.09a41.43,41.43,0,0,1-9.29,8.12,51.65,51.65,0,0,1-10.75,5.25A58.89,58.89,0,0,1,688,599a81.39,81.39,0,0,1-11.26.8,55.35,55.35,0,0,1-20.09-3.58,45,45,0,0,1-16.15-10.6,49.8,49.8,0,0,1-10.8-17.36,67.26,67.26,0,0,1-3.93-24,57.31,57.31,0,0,1,3.43-19.94A47.9,47.9,0,0,1,639,508.14a46.32,46.32,0,0,1,15.64-10.95A51.6,51.6,0,0,1,675.53,493.15ZM676,511q-10.89,0-17,6.15t-7.88,17.47h46.84a31.26,31.26,0,0,0-1.31-9.14,21.16,21.16,0,0,0-4-7.52,19.22,19.22,0,0,0-6.86-5.1A23.48,23.48,0,0,0,676,511Z"/><path class="cls-1" d="M829.47,598.33H818.26a12,12,0,0,1-5.55-1.06,6.79,6.79,0,0,1-3-4.29l-2.22-7.37a84.11,84.11,0,0,1-7.73,6.21,46.52,46.52,0,0,1-7.82,4.49,40.16,40.16,0,0,1-8.58,2.73,52,52,0,0,1-10.09.91,39.75,39.75,0,0,1-12.12-1.78,26.17,26.17,0,0,1-9.53-5.31,24.1,24.1,0,0,1-6.21-8.81,31.41,31.41,0,0,1-2.22-12.26,24.28,24.28,0,0,1,3.08-11.6q3.07-5.72,10.24-10.33t19.08-7.64q11.91-3,29.58-3v-6.1q0-10.49-4.39-15.51t-12.77-5a31,31,0,0,0-10.1,1.41,40.44,40.44,0,0,0-7,3.18q-3,1.77-5.49,3.18a11.14,11.14,0,0,1-5.56,1.42,7.16,7.16,0,0,1-4.33-1.32,10.16,10.16,0,0,1-2.93-3.23l-4.54-8q17.85-16.35,43.1-16.35a41.56,41.56,0,0,1,16.2,3,34.44,34.44,0,0,1,12.06,8.27,35.53,35.53,0,0,1,7.52,12.67,48.84,48.84,0,0,1,2.58,16.15ZM781,582.79a33.89,33.89,0,0,0,7.07-.7,26.79,26.79,0,0,0,6.1-2.09,32.31,32.31,0,0,0,5.55-3.42,50.59,50.59,0,0,0,5.41-4.82V554.42a101.81,101.81,0,0,0-18.23,1.37,48.54,48.54,0,0,0-11.75,3.51,15.29,15.29,0,0,0-6.31,5,11.06,11.06,0,0,0-1.87,6.2q0,6.62,3.88,9.46T781,582.79Z"/><path class="cls-1" d="M895.68,600q-13.42,0-20.69-7.62t-7.27-21.05V513.44h-10.5a4.77,4.77,0,0,1-4.94-5.25V498.3l16.65-2.73,5.25-28.26a5,5,0,0,1,1.87-3.13,5.91,5.91,0,0,1,3.69-1.11h12.91v32.6h27.26v17.77H892.65v56.12c0,3.23.81,5.76,2.43,7.57a8.19,8.19,0,0,0,6.46,2.73,11.7,11.7,0,0,0,3.88-.56,19.82,19.82,0,0,0,2.73-1.16c.77-.4,1.46-.79,2.06-1.16a3.5,3.5,0,0,1,1.83-.55,2.85,2.85,0,0,1,1.81.55,8.56,8.56,0,0,1,1.52,1.67l7.46,12.11a37.7,37.7,0,0,1-12.51,6.87A46.82,46.82,0,0,1,895.68,600Z"/><path class="cls-1" d="M78.77,652.72a10.91,10.91,0,0,1-10.91-10.91v-295a24,24,0,0,1,40.45-17.48l131.07,93.34a30.65,30.65,0,0,1,13,17.51,31,31,0,0,1,1,7.94V588.51c0,4,3.52,4.58,5.62,4.58s5.29-.53,5.29-4V465.31a30.87,30.87,0,0,1,30.83-30.84h123.8a30.91,30.91,0,0,1,30.88,30.88V620A10.91,10.91,0,1,1,428,620V465.35a9.08,9.08,0,0,0-9.06-9.06H295.12a9,9,0,0,0-9,9V589.05c0,14.74-11.65,25.86-27.11,25.86-15.65,0-27.45-11.35-27.45-26.4V448.14a9.83,9.83,0,0,0-.31-2.41,9.56,9.56,0,0,0-4.19-5L94.13,346.05l-.7-.73a2.17,2.17,0,0,0-3.74,1.51v295A10.91,10.91,0,0,1,78.77,652.72Z"/><path class="cls-1" d="M171.13,510.46H144.25a10.93,10.93,0,0,1-10.91-10.92V472.66a10.92,10.92,0,0,1,10.91-10.91h26.88A10.92,10.92,0,0,1,182,472.66v26.88A10.93,10.93,0,0,1,171.13,510.46Zm0-10.92v0Zm-26.88-26.88v26.88h26.87V472.66Z"/><path class="cls-1" d="M171.13,608.54H144.25a10.92,10.92,0,0,1-10.91-10.91V570.74a10.92,10.92,0,0,1,10.91-10.91h26.88A10.92,10.92,0,0,1,182,570.74v26.89A10.92,10.92,0,0,1,171.13,608.54Zm0-10.91v0Zm-26.88-26.89v26.89h26.87V570.74Z"/><path class="cls-1" d="M368,572.21H341.08a10.93,10.93,0,0,1-10.92-10.91V534.41a10.93,10.93,0,0,1,10.92-10.91H368a10.92,10.92,0,0,1,10.91,10.91V561.3A10.92,10.92,0,0,1,368,572.21Zm0-10.91v0Zm-26.88-26.89V561.3h26.86l0-26.89Z"/></svg>