<?xml version="1.0" encoding="iso-8859-1"?>
<!-- Generator: Adobe Illustrator 22.1.0, SVG Export Plug-In . SVG Version: 6.00 Build 0)  -->
<svg xmlns="http://www.w3.org/2000/svg" xmlns:xlink="http://www.w3.org/1999/xlink" version="1.1" id="Layer_1_1_" x="0px" y="0px" viewBox="0 0 64 64" style="enable-background:new 0 0 64 64;" xml:space="preserve" width="512" height="512">
<g>
	<g>
		<g>
			<path style="fill:#CF9E76;" d="M62,60v2H2v-2c0-1.1,0.9-2,2-2h18h6h8h6h18C61.1,58,62,58.9,62,60z"/>
			<path style="fill:#FCD770;" d="M26,42V28h-2v-4l-4.15-2.77L20,21v-2.35C20,11.1,24.83,4.39,32,2c3.58,1.2,6.58,3.47,8.69,6.39     c2.1,2.92,3.31,6.49,3.31,10.26V21l0.15,0.23L40,24v4h-2v14H26z"/>
			<polygon style="fill:#E6E9ED;" points="58,24 40,24 44.15,21.23 49,18    "/>
			<rect x="40" y="24" style="fill:#FFEAA7;" width="18" height="4"/>
			<path style="fill:#CCD1D9;" d="M58,28H40h-2v30h4h9h9V28H58z"/>
			<polygon style="fill:#E6E9ED;" points="24,24 6,24 15,18 19.85,21.23    "/>
			<rect x="6" y="24" style="fill:#FFEAA7;" width="18" height="4"/>
			<polygon style="fill:#CCD1D9;" points="24,28 6,28 4,28 4,58 6,58 22,58 26,58 26,28    "/>
			<polygon style="fill:#E6E9ED;" points="28,46 28,58 22,58 22,52 22,48 22,44 22,42 26,42 38,42 42,42 42,44 42,48 42,52 42,58      36,58 36,46    "/>
			<rect x="28" y="46" style="fill:#969FAA;" width="8" height="12"/>
			<ellipse style="fill:#69D6F4;" cx="31.984" cy="16" rx="5.985" ry="6"/>
			<rect x="42" y="32" style="fill:#69D6F4;" width="14" height="4"/>
			<polygon style="fill:#69D6F4;" points="56,40 56,44 42,44 42,42 42,40    "/>
			<rect x="42" y="48" style="fill:#69D6F4;" width="14" height="4"/>
			<rect x="8" y="48" style="fill:#69D6F4;" width="14" height="4"/>
			<polygon style="fill:#69D6F4;" points="22,42 22,44 8,44 8,40 22,40    "/>
			<rect x="8" y="32" style="fill:#69D6F4;" width="14" height="4"/>
		</g>
	</g>
	<g>
		<path d="M61,57.184V27h-2v-3.535l-9-6V13h-2v4.465l-3,2v-0.815c0-7.997-5.098-15.069-12.684-17.598L32,0.946l-0.316,0.105    C24.098,3.58,19,10.652,19,18.649v0.815l-3-2V13h-2v4.465l-9,6V27H3v30.184C1.839,57.598,1,58.698,1,60v3h62v-3    C63,58.698,62.161,57.598,61,57.184z M35,47v10h-6V47H35z M37,47h2v-2H25v2h2v10h-4V43h18v14h-4V47z M21,42v1H9v-2h12V42z M21,51    H9v-2h12V51z M43,41h12v2H43v-1V41z M43,49h12v2H43V49z M43,53h14v-6H43v-2h14v-6H41v2h-2V29h20v28H43V53z M41,27v-2h16v2H41z     M43.303,23L49,19.202L54.697,23H43.303z M21,18.649c0-7.023,4.406-13.247,11-15.592c6.594,2.345,11,8.568,11,15.592v2.149    l-4,2.667V27h-2v14H27V27h-2v-3.535l-4-2.667V18.649z M20.697,23H9.303L15,19.202L20.697,23z M7,25h16v2H7V25z M25,29v12h-2v-2H7    v6h14v2H7v6h14v4H5V29H25z M61,61H3v-1c0-0.552,0.448-1,1-1h56c0.552,0,1,0.448,1,1V61z"/>
		<path d="M23,31H7v6h16V31z M21,35H9v-2h12V35z"/>
		<path d="M41,31v6h16v-6H41z M55,35H43v-2h12V35z"/>
		<path d="M32,23c3.859,0,7-3.141,7-7s-3.141-7-7-7s-7,3.141-7,7S28.141,23,32,23z M32,11c2.757,0,5,2.243,5,5s-2.243,5-5,5    s-5-2.243-5-5S29.243,11,32,11z"/>
		<rect x="29" y="37" width="2" height="2"/>
		<rect x="33" y="37" width="2" height="2"/>
		<rect x="29" y="33" width="2" height="2"/>
		<rect x="33" y="33" width="2" height="2"/>
		<rect x="29" y="29" width="2" height="2"/>
		<rect x="33" y="29" width="2" height="2"/>
		<rect x="29" y="25" width="2" height="2"/>
		<rect x="33" y="25" width="2" height="2"/>
	</g>
</g>
</svg>
