<svg height="496pt" viewBox="0 0 496 496" width="496pt" xmlns="http://www.w3.org/2000/svg"><path d="m312 136h176v352h-176zm0 0" fill="#ffeaa7"/><path d="m472 104v32h-144v-32l72-16zm0 0" fill="#e6e9ed"/><path d="m264 24v32h-240v-32c0-8.800781 7.199219-16 16-16h208c8.800781 0 16 7.199219 16 16zm0 0" fill="#fcd770"/><path d="m264 56h-240c-8.800781 0-16 7.199219-16 16v416h272v-416c0-8.800781-7.199219-16-16-16zm0 0" fill="#e6e9ed"/><path d="m344 168h112v48h-112zm0 0" fill="#69d6f4"/><path d="m344 248h112v48h-112zm0 0" fill="#69d6f4"/><path d="m344 328h112v48h-112zm0 0" fill="#69d6f4"/><path d="m440 448v40h-80v-40c0-22.078125 17.921875-40 40-40 11.039062 0 21.039062 4.480469 28.320312 11.679688 7.199219 7.28125 11.679688 17.28125 11.679688 28.320312zm0 0" fill="#fcd770"/><path d="m144 392h40v96h-40zm0 0" fill="#969faa"/><path d="m104 392h40v96h-40zm0 0" fill="#969faa"/><g fill="#69d6f4"><path d="m248 112v40h-48v-40c0-13.28125 10.71875-24 24-24 6.640625 0 12.640625 2.71875 16.960938 7.039062 4.320312 4.320313 7.039062 10.320313 7.039062 16.960938zm0 0"/><path d="m168 112v40h-48v-40c0-13.28125 10.71875-24 24-24 6.640625 0 12.640625 2.71875 16.960938 7.039062 4.320312 4.320313 7.039062 10.320313 7.039062 16.960938zm0 0"/><path d="m88 112v40h-48v-40c0-13.28125 10.71875-24 24-24 6.640625 0 12.640625 2.71875 16.960938 7.039062 4.320312 4.320313 7.039062 10.320313 7.039062 16.960938zm0 0"/><path d="m88 208v40h-48v-40c0-13.28125 10.71875-24 24-24 6.640625 0 12.640625 2.71875 16.960938 7.039062 4.320312 4.320313 7.039062 10.320313 7.039062 16.960938zm0 0"/><path d="m168 208v40h-48v-40c0-13.28125 10.71875-24 24-24 6.640625 0 12.640625 2.71875 16.960938 7.039062 4.320312 4.320313 7.039062 10.320313 7.039062 16.960938zm0 0"/><path d="m248 208v40h-48v-40c0-13.28125 10.71875-24 24-24 6.640625 0 12.640625 2.71875 16.960938 7.039062 4.320312 4.320313 7.039062 10.320313 7.039062 16.960938zm0 0"/><path d="m248 304v40h-48v-40c0-13.28125 10.71875-24 24-24 6.640625 0 12.640625 2.71875 16.960938 7.039062 4.320312 4.320313 7.039062 10.320313 7.039062 16.960938zm0 0"/><path d="m168 304v40h-48v-40c0-13.28125 10.71875-24 24-24 6.640625 0 12.640625 2.71875 16.960938 7.039062 4.320312 4.320313 7.039062 10.320313 7.039062 16.960938zm0 0"/><path d="m88 304v40h-48v-40c0-13.28125 10.71875-24 24-24 6.640625 0 12.640625 2.71875 16.960938 7.039062 4.320312 4.320313 7.039062 10.320313 7.039062 16.960938zm0 0"/></g><path d="m272 49.472656v-25.472656c0-13.230469-10.769531-24-24-24h-208c-13.230469 0-24 10.769531-24 24v25.472656c-9.289062 3.3125-16 12.113282-16 22.527344v424h288v-424c0-10.414062-6.710938-19.214844-16-22.527344zm-232-33.472656h208c4.414062 0 8 3.59375 8 8v24h-224v-24c0-4.40625 3.585938-8 8-8zm136 464h-24v-80h24zm-40 0h-24v-80h24zm136 0h-80v-96h-96v96h-80v-408c0-4.40625 3.585938-8 8-8h240c4.414062 0 8 3.59375 8 8zm0 0"/><path d="m64 176c-17.648438 0-32 14.351562-32 32v48h64v-48c0-17.648438-14.351562-32-32-32zm16 64h-32v-32c0-8.824219 7.175781-16 16-16s16 7.175781 16 16zm0 0"/><path d="m144 176c-17.648438 0-32 14.351562-32 32v48h64v-48c0-17.648438-14.351562-32-32-32zm16 64h-32v-32c0-8.824219 7.175781-16 16-16s16 7.175781 16 16zm0 0"/><path d="m224 176c-17.648438 0-32 14.351562-32 32v48h64v-48c0-17.648438-14.351562-32-32-32zm16 64h-32v-32c0-8.824219 7.175781-16 16-16s16 7.175781 16 16zm0 0"/><path d="m224 272c-17.648438 0-32 14.351562-32 32v48h64v-48c0-17.648438-14.351562-32-32-32zm16 64h-32v-32c0-8.824219 7.175781-16 16-16s16 7.175781 16 16zm0 0"/><path d="m64 80c-17.648438 0-32 14.351562-32 32v48h64v-48c0-17.648438-14.351562-32-32-32zm16 64h-32v-32c0-8.824219 7.175781-16 16-16s16 7.175781 16 16zm0 0"/><path d="m144 80c-17.648438 0-32 14.351562-32 32v48h64v-48c0-17.648438-14.351562-32-32-32zm16 64h-32v-32c0-8.824219 7.175781-16 16-16s16 7.175781 16 16zm0 0"/><path d="m224 80c-17.648438 0-32 14.351562-32 32v48h64v-48c0-17.648438-14.351562-32-32-32zm16 64h-32v-32c0-8.824219 7.175781-16 16-16s16 7.175781 16 16zm0 0"/><path d="m64 272c-17.648438 0-32 14.351562-32 32v48h64v-48c0-17.648438-14.351562-32-32-32zm16 64h-32v-32c0-8.824219 7.175781-16 16-16s16 7.175781 16 16zm0 0"/><path d="m144 272c-17.648438 0-32 14.351562-32 32v48h64v-48c0-17.648438-14.351562-32-32-32zm16 64h-32v-32c0-8.824219 7.175781-16 16-16s16 7.175781 16 16zm0 0"/><path d="m480 128v-30.414062l-80-17.777344-80 17.777344v30.414062h-16v368h192v-368zm-144-17.585938 64-14.222656 64 14.222656v17.585938h-128zm96 369.585938h-64v-32c0-17.648438 14.351562-32 32-32s32 14.351562 32 32zm48 0h-32v-32c0-26.472656-21.527344-48-48-48s-48 21.527344-48 48v32h-32v-336h160zm0 0"/><path d="m464 160h-128v64h128zm-16 48h-96v-32h96zm0 0"/><path d="m464 240h-128v64h128zm-16 48h-96v-32h96zm0 0"/><path d="m464 320h-128v64h128zm-16 48h-96v-32h96zm0 0"/></svg>