<?xml version="1.0" encoding="iso-8859-1"?>
<!-- Generator: Adobe Illustrator 22.1.0, SVG Export Plug-In . SVG Version: 6.00 Build 0)  -->
<svg xmlns="http://www.w3.org/2000/svg" xmlns:xlink="http://www.w3.org/1999/xlink" version="1.1" id="Layer_1_1_" x="0px" y="0px" viewBox="0 0 64 64" style="enable-background:new 0 0 64 64;" xml:space="preserve" width="512" height="512">
<g>
	<g>
		<path style="fill:#969FAA;" d="M36,6v4H2V6c0-2.21,1.79-4,4-4h26C34.21,2,36,3.79,36,6z"/>
		<path style="fill:#969FAA;" d="M36,54v4c0,2.21-1.79,4-4,4H6c-2.21,0-4-1.79-4-4v-4H36z"/>
		<polygon style="fill:#69D6F4;" points="36,12 36.02,12.04 32,14.79 32,14 6,14 6,50 32,50 32,46 36,46 36,54 2,54 2,10 36,10       "/>
		<path style="fill:#E6E9ED;" d="M22.41,21.35L32,14.79V14H6v36h26v-4h-8v-2H14c-1.1,0-2-0.9-2-2V32c0-1.1,0.9-2,2-2h10v-4h-4v-3    L22.41,21.35z"/>
		<polygon style="fill:#CF9E76;" points="43,10 41,10 39,10 36.02,12.04 32,14.79 22.41,21.35 20,23 20,26 24,26 32,26 32.02,26     35,26 47,26 58,26 62,26 62,23   "/>
		<path style="fill:#AAB2BD;" d="M47,26H35h-2.98H32h-8v4v14v2h8h4h22V26H47z"/>
		<path style="fill:#FCD770;" d="M24,44H14c-1.1,0-2-0.9-2-2V32c0-1.1,0.9-2,2-2h10V44z M19,38c1.1,0,2-0.9,2-2s-0.9-2-2-2    s-2,0.9-2,2S17.9,38,19,38z"/>
		<circle style="fill:#FCD770;" cx="19" cy="36" r="2"/>
		<path style="fill:#FCD770;" d="M47,28H35c-1.1,0-2,0.9-2,2v4c0,4.42,3.58,8,8,8s8-3.58,8-8v-4C49,28.9,48.1,28,47,28z"/>
	</g>
	<g>
		<rect x="15" y="5" width="8" height="2"/>
		<rect x="25" y="5" width="2" height="2"/>
		<rect x="11" y="5" width="2" height="2"/>
		<rect x="16" y="57" width="6" height="2"/>
		<path d="M63,22.473L43.31,9H38.69L37,10.157V6c0-2.757-2.243-5-5-5H6C3.243,1,1,3.243,1,6v52c0,2.757,2.243,5,5,5h26    c2.757,0,5-2.243,5-5V45H25V27h7.02v-2H21v-1.473L39.31,11h3.381L61,23.527V25H49.98v2H57v18H39v2h20V27h4V22.473z M6,3h26    c1.654,0,3,1.346,3,3v3H3V6C3,4.346,4.346,3,6,3z M32,61H6c-1.654,0-3-1.346-3-3v-3h32v3C35,59.654,33.654,61,32,61z M35,53H3V11    h32v0.525L32.844,13H5v38h28v-4h2V53z M31,47v2H7V15h22.921l-7.471,5.112C21.445,19.399,20.254,19,19,19c-3.309,0-6,2.691-6,6    v4.184c-1.161,0.414-2,1.514-2,2.816v10c0,1.654,1.346,3,3,3h9v2H31z M23,43h-9c-0.551,0-1-0.448-1-1V32c0-0.551,0.449-1,1-1h9V43    z M23,27v2h-8v-4c0-2.206,1.794-4,4-4c0.572,0,1.122,0.13,1.63,0.357L19,22.473V27H23z"/>
		<path d="M41,17c-3.86,0-7,3.14-7,7v3.184c-1.161,0.414-2,1.514-2,2.816v4c0,4.963,4.038,9,9,9s9-4.037,9-9v-4    c0-1.302-0.839-2.402-2-2.816V24C48,20.14,44.86,17,41,17z M41,19c2.757,0,5,2.243,5,5v3H36v-3C36,21.243,38.243,19,41,19z M48,34    c0,3.859-3.14,7-7,7s-7-3.141-7-7v-4c0-0.551,0.449-1,1-1h12c0.551,0,1,0.449,1,1V34z"/>
		<path d="M41,31c-1.654,0-3,1.346-3,3c0,1.302,0.839,2.402,2,2.816V40h2v-3.184c1.161-0.414,2-1.514,2-2.816    C44,32.346,42.654,31,41,31z M41,35c-0.551,0-1-0.448-1-1s0.449-1,1-1s1,0.448,1,1S41.551,35,41,35z"/>
		<path d="M18,38.816V41h2v-2.184c1.161-0.414,2-1.514,2-2.816c0-1.654-1.346-3-3-3s-3,1.346-3,3C16,37.302,16.839,38.402,18,38.816    z M19,35c0.551,0,1,0.448,1,1s-0.449,1-1,1s-1-0.448-1-1S18.449,35,19,35z"/>
	</g>
</g>
</svg>
