<?xml version="1.0" encoding="iso-8859-1"?>
<!-- Generator: Adobe Illustrator 22.1.0, SVG Export Plug-In . SVG Version: 6.00 Build 0)  -->
<svg xmlns="http://www.w3.org/2000/svg" xmlns:xlink="http://www.w3.org/1999/xlink" version="1.1" id="Layer_1_1_" x="0px" y="0px" viewBox="0 0 64 64" style="enable-background:new 0 0 64 64;" xml:space="preserve" width="512" height="512">
<g>
	<g>
		<rect x="20" y="56" style="fill:#656D78;" width="24" height="6"/>
		<path style="fill:#969FAA;" d="M62,48v4c0,2.21-1.79,4-4,4H44H20H6c-2.21,0-4-1.79-4-4v-2h41l4-2H62z"/>
		<path style="fill:#69D6F4;" d="M58,16h-2H14.91H6c-2.21,0-4,1.79-4,4v30h41l4-2h15V20C62,17.79,60.21,16,58,16z"/>
		<path style="fill:#E6E9ED;" d="M56,16c0,2.12-0.47,4.12-1.32,5.92L42,16V2C49.73,2,56,8.27,56,16z"/>
		<path style="fill:#B4DD7F;" d="M42,2v14l-8,3.73l-0.06,0.08l-5.99-4.7L28.04,15C28.55,7.73,34.6,2,42,2z"/>
		<path style="fill:#FCD770;" d="M35.98,26c0.56,0,1.06-0.22,1.43-0.59c0.37-0.37,0.59-0.87,0.59-1.43c0-0.62-0.28-1.2-0.77-1.59    l-3.29-2.58L34,19.73L42,16l12.68,5.92C52.46,26.69,47.61,30,42,30c-2.98,0-5.73-0.93-8-2.51V26H35.98z"/>
		<polygon style="fill:#E6E9ED;" points="34,27.49 34,44 26,44 26,32 18,32 18,44 10,44 10,26 34,26   "/>
		<rect x="18" y="32" style="fill:#CF9E76;" width="8" height="12"/>
		<path style="fill:#B27946;" d="M14.91,16l3.52-2.76C19.45,12.44,20.7,12,22,12s2.55,0.44,3.57,1.24l2.38,1.87l5.99,4.7l3.29,2.58    c0.49,0.39,0.77,0.97,0.77,1.59c0,0.56-0.22,1.06-0.59,1.43C37.04,25.78,36.54,26,35.98,26H34H10H8.02C6.9,26,6,25.1,6,23.98    c0-0.62,0.28-1.2,0.77-1.59L14.91,16z"/>
	</g>
	<g>
		<path d="M58,15h-1.051C56.431,7.195,49.934,1,42,1c-7.279,0-13.458,5.278-14.745,12.286l-1.065-0.837    c-2.379-1.869-5.999-1.869-8.38,0L14.563,15H6c-2.757,0-5,2.243-5,5v32c0,2.757,2.243,5,5,5h13v4h-4v2h34v-2h-4v-4h13    c2.757,0,5-2.243,5-5V20C63,17.243,60.757,15,58,15z M25,43h-6V33h6V43z M17,31v12h-6V27h22v16h-6V31H17z M37.847,21.607    l-2.049-1.609L42,17.104l11.312,5.279C51.078,26.327,46.848,29,42,29c-2.471,0-4.845-0.695-6.915-2h0.896    C37.646,27,39,25.646,39,23.981C39,23.049,38.579,22.184,37.847,21.607z M55,16c0,1.609-0.308,3.145-0.845,4.569L43,15.363V3.051    C49.701,3.565,55,9.17,55,16z M41,3.049v12.315l-6.965,3.25l-4.961-3.897C29.692,8.453,34.774,3.53,41,3.049z M19.045,14.021    C19.885,13.363,20.934,13,22,13s2.115,0.363,2.954,1.021L36.61,23.18c0.248,0.194,0.39,0.486,0.39,0.802    C37,24.543,36.543,25,35.981,25H8.019C7.457,25,7,24.543,7,23.981c0-0.315,0.142-0.607,0.39-0.802L19.045,14.021z M6,17h6.018    l-5.864,4.607C5.421,22.184,5,23.049,5,23.981C5,25.646,6.354,27,8.019,27H9v18h26V29.259C37.147,30.396,39.532,31,42,31    c7.934,0,14.431-6.195,14.949-14H58c1.654,0,3,1.346,3,3v27H46.764l-4,2H3V20C3,18.346,4.346,17,6,17z M43,61H21v-4h22V61z M58,55    H6c-1.654,0-3-1.346-3-3v-1h40.236l4-2H61v3C61,53.654,59.654,55,58,55z"/>
		<rect x="53" y="51" width="2" height="2"/>
		<rect x="57" y="51" width="2" height="2"/>
		<rect x="49" y="51" width="2" height="2"/>
		<polygon points="59,43 57,43 57,39 55,39 55,43 53,43 53,35 51,35 51,43 49,43 49,37 47,37 47,43 45,43 45,39 43,39 43,43 41,43     41,35 39,35 39,43 37,43 37,45 59,45   "/>
	</g>
</g>
</svg>
