<svg height="496pt" viewBox="0 0 496 496" width="496pt" xmlns="http://www.w3.org/2000/svg"><path d="m488 56v128c-26.480469 0-48 21.519531-48 48h-125.441406c8.320312-8.238281 15.121094-17.839844 20.082031-28.398438 6.078125-13.042968 9.359375-27.363281 9.359375-42.082031v-73.519531c8.800781 0 16-7.199219 16-16v-16c0-8.800781-7.199219-16-16-16h-192c-8.800781 0-16 7.199219-16 16v16c0 8.800781 7.199219 16 16 16v73.519531c0 26.640625 10.71875 52 29.441406 70.480469h-125.441406c0-26.480469-21.519531-48-48-48v-128c26.480469 0 48-21.519531 48-48h384c0 26.480469 21.519531 48 48 48zm0 0" fill="#b4dd7f"/><path d="m360 56v16c0 8.800781-7.199219 16-16 16h-192c-8.800781 0-16-7.199219-16-16v-16c0-8.800781 7.199219-16 16-16h192c8.800781 0 16 7.199219 16 16zm0 0" fill="#969faa"/><path d="m360 456v16c0 8.800781-7.199219 16-16 16h-192c-8.800781 0-16-7.199219-16-16v-16c0-8.800781 7.199219-16 16-16h192c8.800781 0 16 7.199219 16 16zm0 0" fill="#969faa"/><path d="m314.558594 232c8.320312-8.238281 15.121094-17.839844 20.082031-28.398438 6.078125-13.042968 9.359375-27.363281 9.359375-42.082031v-73.519531h-192v73.519531c0 26.640625 10.71875 52 29.441406 70.480469 2 2.078125 4.078125 3.921875 6.238282 5.761719 7.839843 6.476562 12.320312 16.078125 12.320312 26.238281s-4.480469 19.761719-12.320312 26.238281c-11.28125 9.441407-20.160157 21.121094-26.320313 34.160157-5.519531 11.839843-8.71875 24.640624-9.199219 37.921874 13.441406 4.480469 18.640625 13.679688 39.761719 13.679688 28 0 28-16 56-16s28 16 56.078125 16c20.960938 0 26.238281-8.960938 39.359375-13.519531h.5625c-1.121094-27.921875-14.082031-54.242188-35.601563-72.242188-7.839843-6.476562-12.320312-16.078125-12.320312-26.238281s4.480469-19.761719 12.320312-26.238281c2.160157-1.839844 4.238282-3.683594 6.238282-5.761719zm0 0" fill="#e6e9ed"/><path d="m344 366.480469v73.519531h-192v-73.519531c0-1.359375 0-2.800781.078125-4.160157h.082031c13.441406 4.480469 18.640625 13.679688 39.761719 13.679688 28 0 28-16 56-16s28 16 56.078125 16c20.960938 0 26.238281-8.960938 39.359375-13.519531h.5625c.078125 1.359375.078125 2.640625.078125 4zm0 0" fill="#b4dd7f"/><path d="m456 368-40 64-40-64h16v-136h48v136zm0 0" fill="#fcd770"/><path d="m120 344-40 64-40-64h16v-112h48v112zm0 0" fill="#fcd770"/><g fill="#8cc152"><path d="m488 8v48c-26.480469 0-48-21.519531-48-48zm0 0"/><path d="m488 184v48h-48c0-26.480469 21.519531-48 48-48zm0 0"/><path d="m56 232h-48v-48c26.480469 0 48 21.519531 48 48zm0 0"/><path d="m8 8h48c0 26.480469-21.519531 48-48 48zm0 0"/></g><path d="m248 192c-4.40625 0-8-3.59375-8-8h-16c0 10.414062 6.710938 19.214844 16 22.527344v17.472656h16v-17.472656c9.289062-3.3125 16-12.113282 16-22.527344 0-13.230469-10.769531-24-24-24-4.40625 0-8-3.59375-8-8s3.59375-8 8-8 8 3.59375 8 8h16c0-10.414062-6.710938-19.214844-16-22.527344v-17.472656h-16v17.472656c-9.289062 3.3125-16 12.113282-16 22.527344 0 13.230469 10.769531 24 24 24 4.40625 0 8 3.59375 8 8s-3.59375 8-8 8zm0 0"/><path d="m352 433.367188v-66.886719c0-31.921875-14.0625-61.953125-38.585938-82.382813-5.980468-4.984375-9.414062-12.304687-9.414062-20.097656s3.433594-15.113281 9.414062-20.097656c24.523438-20.429688 38.585938-50.460938 38.585938-82.382813v-66.992187c9.289062-3.3125 16-12.113282 16-22.527344v-16c0-13.230469-10.769531-24-24-24h-192c-13.230469 0-24 10.769531-24 24v16c0 10.433594 6.6875 19.328125 16 22.632812v66.886719c0 31.921875 14.0625 61.953125 38.585938 82.382813 5.980468 4.984375 9.414062 12.304687 9.414062 20.097656s-3.433594 15.113281-9.414062 20.097656c-24.523438 20.429688-38.585938 50.460938-38.585938 82.382813v66.992187c-9.289062 3.3125-16 12.113282-16 22.527344v16c0 13.230469 10.769531 24 24 24h192c13.230469 0 24-10.769531 24-24v-16c0-10.433594-6.6875-19.328125-16-22.632812zm-159.167969-136.976563c9.640625-8.039063 15.167969-19.839844 15.167969-32.390625s-5.527344-24.351562-15.167969-32.382812c-20.863281-17.394532-32.832031-42.945313-32.832031-70.097657v-65.519531h16v-16h-24c-4.40625 0-8-3.59375-8-8v-16c0-4.40625 3.59375-8 8-8h192c4.40625 0 8 3.59375 8 8v16c0 4.40625-3.59375 8-8 8h-152v16h144v65.519531c0 27.160157-11.96875 52.703125-32.832031 70.089844-9.640625 8.039063-15.167969 19.839844-15.167969 32.390625s5.527344 24.351562 15.167969 32.382812c18.457031 15.386719 29.910156 37.167969 32.320312 60.792969-2.71875 1.28125-5.25 2.609375-7.472656 3.878907-6.519531 3.730468-12.167969 6.945312-24.046875 6.945312s-17.519531-3.214844-24.046875-6.945312c-7.425781-4.246094-15.851563-9.054688-31.984375-9.054688-16.121094 0-24.539062 4.808594-31.96875 9.054688-6.519531 3.730468-12.144531 6.945312-24.023438 6.945312-11.855468 0-17.488281-3.214844-24-6.945312-2.226562-1.269532-4.730468-2.589844-7.433593-3.871094 2.398437-23.625 13.855469-45.40625 32.320312-60.792969zm159.167969 175.609375c0 4.40625-3.59375 8-8 8h-192c-4.40625 0-8-3.59375-8-8v-16c0-4.40625 3.59375-8 8-8h152v-16h-144v-57.054688c7.425781 4.238282 15.832031 9.054688 31.945312 9.054688 16.117188 0 24.535157-4.808594 31.964844-9.054688 6.523438-3.730468 12.152344-6.945312 24.027344-6.945312 11.878906 0 17.519531 3.214844 24.046875 6.945312 7.429687 4.246094 15.847656 9.054688 31.984375 9.054688s24.550781-4.808594 31.984375-9.054688c.015625-.007812.03125-.015624.046875-.023437v57.078125h-16v16h24c4.40625 0 8 3.59375 8 8zm0 0"/><path d="m240 240h16v16h-16zm0 0"/><path d="m240 272h16v16h-16zm0 0"/><path d="m240 304h16v16h-16zm0 0"/><path d="m112 336v-96h40v-16h-56v128h9.566406l-25.566406 40.902344-25.566406-40.902344h9.566406v-96h-16v80h-22.433594l54.433594 87.097656 54.433594-87.097656zm0 0"/><path d="m0 0v240h80v-16h-16.640625c-3.519531-24.472656-22.886719-43.839844-47.359375-47.359375v-113.28125c24.472656-3.519531 43.839844-22.886719 47.359375-47.359375h369.28125c3.519531 24.472656 22.886719 43.839844 47.359375 47.359375v113.28125c-24.472656 3.527344-43.839844 22.886719-47.359375 47.359375h-16.640625v16h80v-240zm47.191406 224h-31.191406v-31.191406c15.648438 3.191406 28 15.542968 31.191406 31.191406zm-31.191406-176.808594v-31.191406h31.191406c-3.191406 15.648438-15.542968 28-31.191406 31.191406zm432.808594-31.191406h31.191406v31.191406c-15.648438-3.191406-28-15.542968-31.191406-31.191406zm0 208c3.191406-15.648438 15.542968-28 31.191406-31.191406v31.191406zm0 0"/><path d="m448 256h-16v120h9.566406l-25.566406 40.902344-25.566406-40.902344h9.566406v-152h-56v16h40v120h-22.433594l54.433594 87.097656 54.433594-87.097656h-22.433594zm0 0"/></svg>