<svg height="496pt" viewBox="-36 0 496 496" width="496pt" xmlns="http://www.w3.org/2000/svg"><path d="m8 392v24c0 13.257812 10.742188 24 24 24h288c13.257812 0 24-10.742188 24-24v-24zm0 0" fill="#838f9b"/><path d="m344 392v-208c0-8.839844-7.160156-16-16-16h-304c-8.839844 0-16 7.160156-16 16v208zm0 0" fill="#69d6f4"/><path d="m328 168h-88l-95 224h199v-208c0-8.839844-7.160156-16-16-16zm0 0" fill="#3bafda"/><path d="m88 440h176v48h-176zm0 0" fill="#aab2bd"/><path d="m128 104 5.039062 20.160156c1.738282 6.960938 7.992188 11.839844 15.167969 11.839844 6.984375 0 13.113281-4.625 15.03125-11.335938l12.761719-44.664062 4.664062-16-60.664062 20.664062zm0 0" fill="#f0d0b4"/><path d="m40 392v-192h272v192zm0 0" fill="#4fc1e9"/><path d="m248.273438 173.777344c9.910156 14.246094 15.726562 31.550781 15.726562 50.222656 0 48.601562-39.398438 88-88 88s-88-39.398438-88-88 39.398438-88 88-88c14.878906 0 28.894531 3.695312 41.183594 10.207031zm0 0" fill="#fcd770"/><path d="m384 8h32v112h-32zm0 0" fill="#b27946"/><path d="m171.414062 96.046875 4.585938-16.046875 4.664062-16-60.664062 20.664062 8 19.335938 4.527344 18.097656 16.730468-16.730468c5.925782-5.925782 13.789063-9.199219 22.15625-9.320313zm0 0" fill="#ecc19c"/><path d="m72 312h208v32h-208zm0 0" fill="#fcd770"/><path d="m256.097656 187.648438c-2.210937-4.863282-4.800781-9.519532-7.824218-13.863282l-31.089844-27.570312c-4.664063-2.472656-9.640625-4.390625-14.75-6.007813-1.523438 4.175781-2.433594 8.59375-2.433594 13.167969 0 21.296875 17.328125 38.625 38.625 38.625 6.207031 0 12.101562-1.617188 17.472656-4.351562zm0 0" fill="#ffc729"/><path d="m215.535156 24c-5.015625 0-10.023437.390625-14.976562 1.175781l-48 7.578125c-13.359375 2.109375-25.710938 8.398438-35.269532 17.957032l-38.65625 38.65625c-4.242187 4.242187-6.625 10-6.625 16-.007812 12.503906 10.121094 22.632812 22.617188 22.632812 6 0 11.757812-2.382812 16-6.625l27.3125-27.3125c9.007812-9.007812 21.214844-14.0625 33.941406-14.0625h40.785156c7.449219 0 14.800782 1.734375 21.464844 5.0625l25.832032 12.914062c-1.457032 2.664063-3.152344 5.207032-5.335938 7.390626l-32 32c-4.242188 4.242187-6.625 10-6.625 16 0 12.503906 10.128906 22.632812 22.625 22.632812 6 0 11.757812-2.382812 16-6.625l54.621094-54.621094c12-12 28.28125-18.746094 45.257812-18.746094h29.496094v-72.007812zm0 0" fill="#f0d0b4"/><path d="m88 440h176v16h-176zm0 0" fill="#969faa"/><path d="m368 24h16v72h-16zm0 0" fill="#ecc19c"/><path d="m376 0v16h-160.472656c-5.421875 0-10.878906.433594-16.222656 1.273438l-48 7.582031c-15.144532 2.382812-28.863282 9.375-39.679688 20.199219l-38.65625 38.65625c-5.785156 5.792968-8.96875 13.472656-8.96875 21.664062 0 16.882812 13.734375 30.625 30.632812 30.625 8.175782 0 15.863282-3.183594 21.65625-8.96875l7.382813-7.375 1.609375 6.449219c1.230469 4.925781 3.992188 9.109375 7.648438 12.222656-10.746094 5.425781-20.3125 12.800781-28.273438 21.671875h-80.65625c-13.230469 0-24 10.769531-24 24v232c0 17.648438 14.351562 32 32 32h48v32h-32v16h256v-16h-32v-32h48c17.648438 0 32-14.351562 32-32v-232c0-13.230469-10.769531-24-24-24h-52.6875l39.589844-39.601562c10.578125-10.566407 24.640625-16.398438 39.601562-16.398438h21.496094v24h48v-128zm-239.136719 106.457031 6.746094-6.738281c5.941406-5.949219 13.460937-9.703125 21.605469-11.0625l-9.664063 33.816406c-.933593 3.253906-3.949219 5.527344-7.34375 5.527344-3.503906 0-6.550781-2.382812-7.40625-5.785156zm34.066407 20.398438 11.101562-38.855469h30.632812c6.175782 0 12.359376 1.464844 17.886719 4.222656l17.273438 8.632813-30.855469 30.855469c-1.273438 1.273437-2.359375 2.664062-3.375 4.097656-11.832031-5.03125-24.648438-7.808594-37.59375-7.808594-1.894531 0-3.742188.175781-5.609375.289062.167969-.480468.402344-.9375.539063-1.433593zm5.070312 17.144531c11.128906 0 22.121094 2.472656 32.238281 6.921875-.0625.820313-.238281 1.621094-.238281 2.453125 0 16.882812 13.734375 30.625 30.632812 30.625 2.136719 0 4.230469-.238281 6.269532-.664062 7.273437 12.28125 11.097656 26.222656 11.097656 40.664062 0 44.113281-35.886719 80-80 80s-80-35.886719-80-80 35.886719-80 80-80zm94.632812 64h33.367188v176h-256v-176h33.449219c-.882813 5.214844-1.449219 10.535156-1.449219 16 0 33.375 17.136719 62.792969 43.046875 80h-59.046875v48h224v-48h-59.046875c25.910156-17.207031 43.046875-46.625 43.046875-80 0-5.40625-.488281-10.753906-1.367188-16zm1.367188 112v16h-192v-16zm-256-136c0-4.414062 3.59375-8 8-8h68.992188c-2.9375 5.0625-5.398438 10.40625-7.390626 16h-53.601562v192h-16zm240 296h-160v-32h160zm80-64c0 8.824219-7.175781 16-16 16h-288c-8.824219 0-16-7.175781-16-16v-16h320zm0-232v200h-16v-192h-53.527344c-1.953125-5.527344-4.375-10.886719-7.34375-16h68.871094c4.40625 0 8 3.585938 8 8zm18.503906-96c-19.230468 0-37.3125 7.488281-50.910156 21.089844l-54.625 54.628906c-2.761719 2.761719-6.433594 4.28125-10.335938 4.28125-8.074218 0-14.632812-6.558594-14.632812-14.625 0-3.847656 1.558594-7.613281 4.289062-10.34375l32-32c7.550782-7.550781 11.710938-17.597656 11.710938-28.289062v-18.742188h-16v18.742188c0 1.402343-.167969 2.761718-.398438 4.113281l-17.882812-8.945313c-7.734375-3.863281-16.398438-5.910156-25.054688-5.910156h-40.785156c-14.96875 0-29.023437 5.832031-39.597656 16.40625l-27.3125 27.3125c-2.761719 2.761719-6.433594 4.28125-10.335938 4.28125-8.074218 0-14.632812-6.558594-14.632812-14.625 0-3.847656 1.558594-7.613281 4.289062-10.34375l38.664063-38.65625c8.414063-8.421875 19.085937-13.855469 30.863281-15.71875l48-7.585938c4.511719-.710937 9.128906-1.070312 13.710938-1.070312h160.472656v56zm53.496094 24h-16v-96h16zm0 0"/><path d="m168 280h16v-16c13.230469 0 24-10.769531 24-24 0-6.144531-2.320312-11.753906-6.128906-16 3.808594-4.246094 6.128906-9.855469 6.128906-16 0-13.230469-10.769531-24-24-24v-16h-16v16h-24v80h24zm-8-80h24c4.40625 0 8 3.585938 8 8s-3.59375 8-8 8h-24zm0 32h24c4.40625 0 8 3.585938 8 8s-3.59375 8-8 8h-24zm0 0"/></svg>