<?xml version="1.0" encoding="iso-8859-1"?>
<!-- Generator: Adobe Illustrator 22.1.0, SVG Export Plug-In . SVG Version: 6.00 Build 0)  -->
<svg xmlns="http://www.w3.org/2000/svg" xmlns:xlink="http://www.w3.org/1999/xlink" version="1.1" id="Layer_1_1_" x="0px" y="0px" viewBox="0 0 64 64" style="enable-background:new 0 0 64 64;" xml:space="preserve" width="512" height="512">
<g>
	<g>
		<path style="fill:#CF9E76;" d="M36,42v16c0,1.1-0.45,2.1-1.17,2.83C34.1,61.55,33.1,62,32,62c-2.21,0-4-1.79-4-4V42h2h4H36z"/>
		<path style="fill:#AAB2BD;" d="M34,37.86V42h-4v-4.14c0.65,0.09,1.32,0.14,2,0.14S33.35,37.95,34,37.86z"/>
		<path style="fill:#838F9B;" d="M62,6v26c0,2.21-1.79,4-4,4h-4V2h4C60.21,2,62,3.79,62,6z"/>
		<path style="fill:#838F9B;" d="M10,2v34H6c-2.21,0-4-1.79-4-4V6c0-2.21,1.79-4,4-4H10z"/>
		<path style="fill:#69D6F4;" d="M54,2v34H39.21c1.69-1.02,3.15-2.38,4.28-4H50V6H14v26h6.52c1.12,1.62,2.58,2.98,4.27,4H10V2H54z"/>
		<path style="fill:#FFEAA7;" d="M50,6v26h-6.51c1.58-2.27,2.51-5.03,2.51-8c0-7.73-6.27-14-14-14s-14,6.27-14,14    c0,2.97,0.93,5.73,2.52,8H14V6H50z"/>
		<path style="fill:#CCD1D9;" d="M34,37.86C33.35,37.95,32.68,38,32,38s-1.35-0.05-2-0.14c-1.88-0.27-3.64-0.92-5.21-1.86    c-1.69-1.02-3.15-2.38-4.27-4C18.93,29.73,18,26.97,18,24c0-7.73,6.27-14,14-14s14,6.27,14,14c0,2.97-0.93,5.73-2.51,8    c-1.13,1.62-2.59,2.98-4.28,4C37.64,36.94,35.88,37.59,34,37.86z"/>
		<circle style="fill:#FCD770;" cx="32" cy="24" r="10"/>
	</g>
	<g>
		<rect x="57" y="15" width="2" height="8"/>
		<rect x="57" y="25" width="2" height="2"/>
		<rect x="57" y="11" width="2" height="2"/>
		<rect x="5" y="16" width="2" height="6"/>
		<path d="M32,21c0.552,0,1,0.448,1,1h2c0-1.302-0.839-2.402-2-2.816V17h-2v2.184c-1.161,0.414-2,1.514-2,2.816c0,1.654,1.346,3,3,3    c0.552,0,1,0.448,1,1s-0.448,1-1,1s-1-0.448-1-1h-2c0,1.302,0.839,2.402,2,2.816V31h2v-2.184c1.161-0.414,2-1.514,2-2.816    c0-1.654-1.346-3-3-3c-0.552,0-1-0.448-1-1S31.448,21,32,21z"/>
		<path d="M58,1H6C3.243,1,1,3.243,1,6v26c0,2.757,2.243,5,5,5h18.57c1.36,0.78,2.847,1.352,4.43,1.675V41h-2v17    c0,2.757,2.243,5,5,5s5-2.243,5-5V41h-2v-2.324c1.564-0.321,3.055-0.89,4.43-1.676H58c2.757,0,5-2.243,5-5V6    C63,3.243,60.757,1,58,1z M3,32V6c0-1.654,1.346-3,3-3h3v32H6C4.346,35,3,33.654,3,32z M46.015,29.357    C46.669,27.648,47,25.846,47,24c0-8.271-6.729-15-15-15s-15,6.729-15,15c0,2.526,0.628,4.909,1.735,7H15V7h34v24h-6.031    l-0.299,0.428C40.237,34.917,36.248,37,32,37c-7.168,0-13-5.832-13-13s5.832-13,13-13s13,5.832,13,13    c0,1.601-0.287,3.163-0.853,4.643L46.015,29.357z M35,58c0,1.654-1.346,3-3,3s-3-1.346-3-3V43h6V58z M33,41h-2v-2.06    c0.333,0.022,0.662,0.06,1,0.06c0.336,0,0.667-0.036,1-0.059V41z M44.001,33H51V5H13v28h7.007c0.546,0.726,1.173,1.384,1.839,2H11    V3h42v32H42.16C42.823,34.388,43.451,33.733,44.001,33z M61,32c0,1.654-1.346,3-3,3h-3V3h3c1.654,0,3,1.346,3,3V32z"/>
		<path d="M32,13c-6.065,0-11,4.935-11,11s4.935,11,11,11s11-4.935,11-11S38.065,13,32,13z M32,33c-4.963,0-9-4.037-9-9s4.037-9,9-9    s9,4.037,9,9S36.963,33,32,33z"/>
		<circle cx="32" cy="58" r="1"/>
	</g>
</g>
</svg>
