<?xml version="1.0" encoding="iso-8859-1"?>
<!-- Generator: Adobe Illustrator 22.1.0, SVG Export Plug-In . SVG Version: 6.00 Build 0)  -->
<svg xmlns="http://www.w3.org/2000/svg" xmlns:xlink="http://www.w3.org/1999/xlink" version="1.1" id="Layer_1_1_" x="0px" y="0px" viewBox="0 0 64 64" style="enable-background:new 0 0 64 64;" xml:space="preserve" width="512" height="512">
<g>
	<g>
		<path style="fill:#838F9B;" d="M36,54v4c0,2.21-1.79,4-4,4H6c-2.21,0-4-1.79-4-4v-4H36z"/>
		<path style="fill:#838F9B;" d="M36,6v4H2V6c0-2.21,1.79-4,4-4h26C34.21,2,36,3.79,36,6z"/>
		<polygon style="fill:#69D6F4;" points="36,46 36,54 2,54 2,10 36,10 36,20 32,20 32,14 6,14 6,50 32,50 32,46.09 32,46   "/>
		<path style="fill:#E6E9ED;" d="M32,46.09V50H6V14h26v6h-4c-1.1,0-2,0.9-2,2v2c-1.67-1.26-3.75-2-6-2c-5.52,0-10,4.48-10,10    s4.48,10,10,10c2.25,0,4.33-0.74,6-2v4c0,1.1,0.9,2,2,2h4V46.09z"/>
		<path style="fill:#FCD770;" d="M26,26v6v8c-1.67,1.26-3.75,2-6,2c-5.52,0-10-4.48-10-10s4.48-10,10-10c2.25,0,4.33,0.74,6,2V26z"/>
		<path style="fill:#B4DD7F;" d="M26,44v-4v-8h36v12c0,1.1-0.9,2-2,2H36h-4h-4C26.9,46,26,45.1,26,44z"/>
		<rect x="26" y="26" style="fill:#969FAA;" width="36" height="6"/>
		<path style="fill:#B4DD7F;" d="M32,20h4h24c1.1,0,2,0.9,2,2v4H26v-2v-2c0-1.1,0.9-2,2-2H32z"/>
		<path style="fill:#FFC729;" d="M55,36c1.66,0,3,1.34,3,3s-1.34,3-3,3c-0.77,0-1.47-0.29-2-0.78c-0.62-0.53-1-1.33-1-2.22    s0.38-1.69,1-2.22C53.53,36.29,54.23,36,55,36z"/>
		<path style="fill:#FFC729;" d="M53,36.78c-0.62,0.53-1,1.33-1,2.22s0.38,1.69,1,2.22C52.47,41.7,51.77,42,51,42    c-1.66,0-3-1.34-3-3s1.34-3,3-3C51.77,36,52.47,36.3,53,36.78z"/>
	</g>
	<g>
		<rect x="15" y="5" width="8" height="2"/>
		<rect x="25" y="5" width="2" height="2"/>
		<rect x="11" y="5" width="2" height="2"/>
		<rect x="16" y="57" width="6" height="2"/>
		<path d="M60,19H37V6c0-2.757-2.243-5-5-5H6C3.243,1,1,3.243,1,6v52c0,2.757,2.243,5,5,5h26c2.757,0,5-2.243,5-5V47h23    c1.654,0,3-1.346,3-3V22C63,20.346,61.654,19,60,19z M61,22v3H27v-3c0-0.552,0.449-1,1-1h32C60.551,21,61,21.448,61,22z     M25,39.476C23.519,40.471,21.802,41,20,41c-4.962,0-9-4.037-9-9s4.038-9,9-9c1.802,0,3.519,0.529,5,1.523V39.476z M27,27h34v4H27    V27z M6,3h26c1.654,0,3,1.346,3,3v3H3V6C3,4.346,4.346,3,6,3z M32,61H6c-1.654,0-3-1.346-3-3v-3h32v3C35,59.654,33.654,61,32,61z     M35,53H3V11h32v8h-2v-6H5v38h28v-4h2V53z M60,45H32l-1,0.092V49H7V15h24v4h-3c-1.654,0-3,1.346-3,3v0.202    C23.463,21.414,21.764,21,20,21c-6.065,0-11,4.935-11,11s4.935,11,11,11c1.764,0,3.462-0.414,5-1.202V44c0,1.654,1.346,3,3,3h1v-2    h-1c-0.551,0-1-0.448-1-1V33h34v11C61,44.552,60.551,45,60,45z"/>
		<path d="M55,35c-0.731,0-1.407,0.211-1.997,0.555C52.394,35.197,51.707,35,51,35c-2.206,0-4,1.794-4,4s1.794,4,4,4    c0.707,0,1.394-0.197,2.003-0.555C53.593,42.789,54.269,43,55,43c2.206,0,4-1.794,4-4S57.206,35,55,35z M49,39    c0-1.103,0.897-2,2-2c0.19,0,0.358,0.032,0.515,0.076C51.197,37.649,51,38.299,51,39s0.197,1.351,0.515,1.924    C51.358,40.968,51.19,41,51,41C49.897,41,49,40.103,49,39z M55,41c-1.103,0-2-0.897-2-2s0.897-2,2-2s2,0.897,2,2S56.103,41,55,41z    "/>
		<rect x="29" y="41" width="2" height="2"/>
		<rect x="33" y="41" width="2" height="2"/>
		<rect x="37" y="41" width="2" height="2"/>
		<rect x="41" y="41" width="2" height="2"/>
		<rect x="29" y="37" width="14" height="2"/>
		<path d="M19,25v2.184c-1.161,0.414-2,1.514-2,2.816c0,1.654,1.346,3,3,3c0.551,0,1,0.448,1,1s-0.449,1-1,1s-1-0.448-1-1h-2    c0,1.302,0.839,2.402,2,2.816V39h2v-2.184c1.161-0.414,2-1.514,2-2.816c0-1.654-1.346-3-3-3c-0.551,0-1-0.448-1-1s0.449-1,1-1    s1,0.448,1,1h2c0-1.302-0.839-2.402-2-2.816V25H19z"/>
	</g>
</g>
</svg>
