<svg height="496pt" viewBox="0 0 496 496" width="496pt" xmlns="http://www.w3.org/2000/svg"><path d="m192 88c0 44.183594-35.816406 80-80 80s-80-35.816406-80-80 35.816406-80 80-80 80 35.816406 80 80zm0 0" fill="#fcd770"/><g fill="#969faa"><path d="m216 424v32c0 17.679688-14.320312 32-32 32h-144c-17.679688 0-32-14.320312-32-32v-32zm0 0"/><path d="m488 424v32c0 17.679688-14.320312 32-32 32h-144c-17.679688 0-32-14.320312-32-32v-32zm0 0"/><path d="m488 168v32h-208v-32c0-17.679688 14.320312-32 32-32h144c17.679688 0 32 14.320312 32 32zm0 0"/><path d="m216 168v32h-208v-32c0-17.679688 14.320312-32 32-32h144c17.679688 0 32 14.320312 32 32zm0 0"/></g><path d="m488 200v224h-208v-224zm0 0" fill="#69d6f4"/><path d="m216 200v224h-208v-224zm0 0" fill="#69d6f4"/><path d="m384 232h-72v160h144v-160zm0 0" fill="#fcd770"/><path d="m40 232h144v160h-144zm0 0" fill="#e6e9ed"/><path d="m190.089844 128.617188c6.511718-12.457032 9.910156-26.273438 9.910156-40.617188 0-12.230469-2.464844-24.070312-7.328125-35.199219l-14.65625 6.398438c3.96875 9.097656 5.984375 18.785156 5.984375 28.800781 0 14.414062-4.230469 28.152344-12.191406 40h-51.808594v-1.472656c9.289062-3.3125 16-12.113282 16-22.527344 0-13.230469-10.769531-24-24-24-4.414062 0-8-3.59375-8-8s3.585938-8 8-8 8 3.59375 8 8h16c0-10.414062-6.710938-19.214844-16-22.527344v-17.472656h-16v17.472656c-9.289062 3.3125-16 12.113282-16 22.527344 0 13.230469 10.769531 24 24 24 4.414062 0 8 3.59375 8 8s-3.585938 8-8 8-8-3.59375-8-8h-16c0 10.414062 6.710938 19.214844 16 22.527344v1.472656h-51.816406c-7.953125-11.855469-12.183594-25.585938-12.183594-40 0-39.695312 32.296875-72 72-72 15.953125 0 31.0625 5.113281 43.367188 14.496094l9.449218 8.0625 3.96875-.957032c15.367188-3.714843 31.253906-5.601562 47.214844-5.601562 56.265625 0 108.753906 23.167969 146.550781 64h-26.550781v16h56v-56h-16v30.976562c-40.945312-45.265624-98.382812-70.976562-160-70.976562-15.847656 0-31.632812 1.71875-46.984375 5.128906l-3.589844-3.066406c-15.457031-11.816406-33.921875-18.0625-53.425781-18.0625-48.519531 0-88 39.480469-88 88 0 14.34375 3.398438 28.152344 9.910156 40.617188-19.148437 2.957031-33.910156 19.414062-33.910156 39.382812v288c0 22.054688 17.945312 40 40 40h144c22.054688 0 40-17.945312 40-40v-288c0-19.96875-14.761719-36.425781-33.910156-39.382812zm-150.089844 15.382812h144c13.230469 0 24 10.769531 24 24v24h-192v-24c0-13.230469 10.769531-24 24-24zm168 64v208h-192v-208zm-24 272h-144c-13.230469 0-24-10.769531-24-24v-24h192v24c0 13.230469-10.769531 24-24 24zm0 0"/><path d="m88 160h48v16h-48zm0 0"/><path d="m96 448h32v16h-32zm0 0"/><path d="m192 400v-176h-160v176zm-144-160h128v144h-128zm0 0"/><path d="m152 160h16v16h-16zm0 0"/><path d="m56 160h16v16h-16zm0 0"/><path d="m456 128h-144c-22.054688 0-40 17.945312-40 40v288c0 22.054688 17.945312 40 40 40h144c22.054688 0 40-17.945312 40-40v-288c0-22.054688-17.945312-40-40-40zm-144 16h144c13.230469 0 24 10.769531 24 24v24h-192v-24c0-13.230469 10.769531-24 24-24zm168 64v208h-192v-208zm-24 272h-144c-13.230469 0-24-10.769531-24-24v-24h192v24c0 13.230469-10.769531 24-24 24zm0 0"/><path d="m360 160h48v16h-48zm0 0"/><path d="m368 448h32v16h-32zm0 0"/><path d="m464 400v-176h-160v176zm-144-160h128v144h-128zm0 0"/><path d="m384 288c4.414062 0 8 3.59375 8 8h16c0-10.414062-6.710938-19.214844-16-22.527344v-17.472656h-16v17.472656c-9.289062 3.3125-16 12.113282-16 22.527344 0 13.230469 10.769531 24 24 24 4.414062 0 8 3.59375 8 8s-3.585938 8-8 8-8-3.59375-8-8h-16c0 10.414062 6.710938 19.214844 16 22.527344v17.472656h16v-17.472656c9.289062-3.3125 16-12.113282 16-22.527344 0-13.230469-10.769531-24-24-24-4.414062 0-8-3.59375-8-8s3.585938-8 8-8zm0 0"/><path d="m424 160h16v16h-16zm0 0"/><path d="m328 160h16v16h-16zm0 0"/></svg>