<svg height="496pt" viewBox="0 0 496 496" width="496pt" xmlns="http://www.w3.org/2000/svg"><path d="m472 424h-464v32c0 17.679688 14.320312 32 32 32h416c17.679688 0 32-14.320312 32-32v-32zm0 0" fill="#656d78"/><g fill="#ccd1d9"><path d="m312 424v16c0 8.800781-7.199219 16-16 16h-96c-8.800781 0-16-7.199219-16-16v-16zm0 0"/><path d="m160 104v32h-96c-4.398438 0-8 3.601562-8 8v280h-32v-288c0-17.679688 14.320312-32 32-32zm0 0"/><path d="m304 104v32h-112v-32zm0 0"/><path d="m472 136v288h-32v-280c0-4.398438-3.601562-8-8-8h-96v-32h104c17.679688 0 32 14.320312 32 32zm0 0"/></g><path d="m432 136h-368c-4.398438 0-8 3.601562-8 8v280h384v-280c0-4.398438-3.601562-8-8-8zm0 0" fill="#69d6f4"/><path d="m336 136v16h-32v-56c0-30.960938-25.039062-56-56-56-15.519531 0-29.441406 6.238281-39.601562 16.398438-10.160157 10.160156-16.398438 24.082031-16.398438 39.601562v94.160156l-32 17.199219v-111.359375c0-48.640625 39.359375-88 88-88 24.320312 0 46.320312 9.839844 62.238281 25.761719 15.921875 15.917969 25.761719 37.917969 25.761719 62.238281zm0 0" fill="#b4dd7f"/><path d="m192 190.160156 56-30.160156 104 56v1.921875c0 72.71875-39.921875 139.597656-104 174.078125-64.078125-34.480469-104-101.359375-104-174.078125v-1.921875l16-8.640625zm0 0" fill="#fcd770"/><path d="m480 416v-280c0-22.054688-17.945312-40-40-40h-96c0-52.9375-43.0625-96-96-96s-96 43.0625-96 96h-96c-22.054688 0-40 17.945312-40 40v280h-16v40c0 22.054688 17.945312 40 40 40h416c22.054688 0 40-17.945312 40-40v-40zm-136-304h96c13.230469 0 24 10.769531 24 24v280h-16v-272c0-8.824219-7.175781-16-16-16h-88zm0 32h88v272h-368v-272h88v58.609375l-16 8.613281v6.664063c0 75.808593 41.464844 145.21875 108.207031 181.160156l3.792969 2.042969 3.792969-2.042969c66.742187-35.941406 108.207031-105.359375 108.207031-181.167969v-6.664062l-112-60.3125-48 25.851562v-32.753906h96v16h48zm-152 288h112v8c0 4.40625-3.59375 8-8 8h-96c-4.40625 0-8-3.59375-8-8zm56-262.910156 95.976562 51.679687c-1.015624 67.335938-37.480468 128.863281-95.976562 162.085938-58.496094-33.222657-94.960938-94.757813-95.976562-162.09375zm48-57.089844v16h-96v-16zm-96-16c0-26.472656 21.527344-48 48-48s48 21.527344 48 48zm48-80c44.113281 0 80 35.886719 80 80v48h-16v-48c0-35.289062-28.710938-64-64-64s-64 28.710938-64 64v89.375l-16 8.617188v-97.992188c0-44.113281 35.886719-80 80-80zm-216 120c0-13.230469 10.769531-24 24-24h96v16h-88c-8.824219 0-16 7.175781-16 16v272h-16zm448 320c0 13.230469-10.769531 24-24 24h-416c-13.230469 0-24-10.769531-24-24v-24h160v8c0 13.230469 10.769531 24 24 24h96c13.230469 0 24-10.769531 24-24v-8h160zm0 0"/><path d="m232 272h32c8.824219 0 16 7.175781 16 16s-7.175781 16-16 16h-32c-8.824219 0-16-7.175781-16-16h-16c0 17.648438 14.351562 32 32 32h8v16h16v-16h8c17.648438 0 32-14.351562 32-32s-14.351562-32-32-32h-32c-8.824219 0-16-7.175781-16-16s7.175781-16 16-16h32c8.824219 0 16 7.175781 16 16h16c0-17.648438-14.351562-32-32-32h-8v-16h-16v16h-8c-17.648438 0-32 14.351562-32 32s14.351562 32 32 32zm0 0"/></svg>