<svg height="496pt" viewBox="0 0 496 496" width="496pt" xmlns="http://www.w3.org/2000/svg"><path d="m224 488h-80v-136l40 24 8.800781-44.078125 50 11.519531c21.757813 5.039063 37.199219 24.398438 37.199219 46.71875v97.839844zm0 0" fill="#5cd6b3"/><path d="m64 488h-56v-97.839844c0-22.320312 15.441406-41.679687 37.199219-46.71875l51.359375-11.839844 7.441406 44.398438 40-24v136zm0 0" fill="#5cd6b3"/><path d="m176 328 16.800781 3.921875-8.800781 44.078125-40-24zm0 0" fill="#37bc9b"/><path d="m144 352-40 24-7.441406-44.398438 15.441406-3.601562zm0 0" fill="#37bc9b"/><path d="m88 208.078125c-16.160156.5625-30.320312 12.640625-31.839844 28.800781-.082031 1.042969-.160156 2.082032-.160156 3.121094v-61.121094c0-22.878906 9.28125-43.597656 24.320312-58.558594 14.960938-15.039062 35.679688-24.320312 58.558594-24.320312 18.882813 0 37.121094 6.398438 51.839844 18.160156l17.28125 13.839844c14.320312 4.800781 24 18.160156 24 33.28125v78.71875c0-1.039062-.078125-2.078125-.160156-3.121094-1.519532-16.160156-15.679688-28.238281-31.839844-28.800781v-.078125l-16-16c-10.238281 10.238281-24.160156 16-38.640625 16h-56c-.480469 0-.878906 0-1.359375.078125zm0 0" fill="#b27946"/><g fill="#f0d0b4"><path d="m144 312c11.601562 0 22.398438-3.519531 31.28125-9.519531l.71875 1.519531v24l-32 24-32-24v-24l.71875-1.519531c23.601562 9.121093 27.441406 9.519531 31.28125 9.519531zm0 0"/><path d="m232 240c0 17.601562-14.320312 32-32 32l-2.160156-.558594c1.441406-4.882812 2.160156-10.082031 2.160156-15.441406v-47.921875c16.160156.5625 30.320312 12.640625 31.839844 28.800781.082031 1.042969.160156 2.082032.160156 3.121094zm0 0"/><path d="m200 208.078125v47.921875c0 5.359375-.71875 10.558594-2.160156 15.441406-3.679688 12.796875-11.761719 23.757813-22.558594 31.039063-8.882812 6-19.679688 9.519531-31.28125 9.519531-3.839844 0-7.679688-.398438-31.28125-9.519531-3.039062-2.082031-5.757812-4.320313-8.320312-6.878907-6.636719-6.640624-11.597657-14.882812-14.238282-24.160156-1.441406-4.882812-2.160156-10.082031-2.160156-15.441406v-47.921875c.480469-.078125.878906-.078125 1.359375-.078125h56c14.480469 0 28.402344-5.761719 38.640625-16l16 16h-1.359375c.480469 0 .878906 0 1.359375.078125zm0 0"/><path d="m88 256c0 5.359375.71875 10.558594 2.160156 15.441406l-2.160156.558594c-17.679688 0-32-14.398438-32-32 0-1.039062.078125-2.078125.160156-3.121094 1.519532-16.160156 15.679688-28.238281 31.839844-28.800781zm0 0"/></g><path d="m328.800781 304h78.398438c-1.597657 7.839844-5.4375 14.878906-10.878907 20.320312-7.28125 7.199219-17.28125 11.679688-28.320312 11.679688-19.359375 0-35.519531-13.761719-39.199219-32zm0 0" fill="#969faa"/><path d="m408 272v24c0 2.71875-.238281 5.441406-.800781 8h-78.398438c-.5625-2.558594-.800781-5.28125-.800781-8v-24zm0 0" fill="#fcd770"/><path d="m364 72.078125c-50.078125 2-91.121094 44-92 94.160156-.640625 36.320313 18.960938 68.082031 48.238281 84.960938 4.882813 2.800781 7.761719 8 7.761719 13.679687v7.121094h80v-7.121094c0-5.679687 2.960938-10.957031 7.839844-13.757812 28.800781-16.5625 48.160156-47.519532 48.160156-83.121094 0-54.320312-45.121094-98.160156-100-95.921875zm0 0" fill="#ffeaa7"/><path d="m411.28125 180.71875c2.957031 2.882812 4.71875 6.882812 4.71875 11.28125 0 8.800781-7.199219 16-16 16h-16v-16c0-4.398438 1.761719-8.398438 4.71875-11.28125 2.882812-2.957031 6.882812-4.71875 11.28125-4.71875s8.398438 1.761719 11.28125 4.71875zm0 0" fill="#fc6e51"/><path d="m352 192v16h-16c-4.398438 0-8.398438-1.761719-11.28125-4.71875-2.957031-2.882812-4.71875-6.882812-4.71875-11.28125s1.761719-8.398438 4.71875-11.28125c2.882812-2.957031 6.882812-4.71875 11.28125-4.71875 8.800781 0 16 7.199219 16 16zm0 0" fill="#fc6e51"/><path d="m304 440v40h-72v-88h-16v88h-64v-113.871094l37.617188 22.566406 9.429687-47.167968 41.945313 9.679687c18.253906 4.21875 31.007812 20.242188 31.007812 38.976563v49.816406h16v-49.816406c0-26.222656-17.847656-48.664063-43.40625-54.566406l-60.59375-13.976563v-15.761719c8.550781-6.871094 15.289062-15.894531 19.425781-26.238281 9.972657-.871094 19.390625-5.273437 26.183594-12.738281 6.679687-7.351563 10.152344-16.992188 10.175781-26.902344h.214844v-78.703125c0-18.082031-11.214844-34.128906-28.054688-40.394531l-16.234374-12.980469c-16.0625-12.851563-36.230469-19.921875-56.800782-19.921875-50.125 0-90.910156 40.785156-90.910156 90.910156v61.089844h.222656c.023438 9.910156 3.496094 19.550781 10.183594 26.902344 6.785156 7.464844 16.203125 11.867187 26.179688 12.738281 4.125 10.34375 10.863281 19.367187 19.421874 26.238281v15.761719l-60.59375 13.984375c-25.566406 5.894531-43.414062 28.335938-43.414062 54.558594v105.816406h304c8.824219 0 16-7.175781 16-16v-40h144v-16h-144c-8.824219 0-16 7.175781-16 16zm-193.824219-103.367188 19.503907 14.632813-19.71875 11.832031-4.242188-25.433594zm68.207031 26.671876-20.0625-12.039063 19.503907-14.632813 5.632812 1.296876zm39.378907-107.160157c-2.769531 3.039063-6.289063 5.167969-10.105469 6.464844.222656-2.175781.34375-4.378906.34375-6.609375v-38.28125c8.609375 3.265625 15.015625 10.839844 15.878906 19.890625.65625 6.886719-1.511718 13.460937-6.117187 18.535156zm-78.851563-152.144531c16.945313 0 33.570313 5.832031 46.800782 16.414062l18.402343 14.722657 1.351563.457031c11.085937 3.695312 18.535156 14.023438 18.535156 25.703125v47.296875c-5.816406-4.394531-12.792969-7.394531-20.390625-8.296875l-19.609375-19.609375-5.65625 5.65625c-8.808594 8.808594-20.511719 13.65625-32.976562 13.65625h-56c-9.496094 0-18.289063 3.320312-25.367188 8.679688v-29.769532c0-41.300781 33.609375-74.910156 74.910156-74.910156zm-68.671875 152.144531c-4.605469-5.066406-6.78125-11.648437-6.125-18.519531.863281-9.058594 7.277344-16.632812 15.886719-19.898438v38.273438c0 2.230469.121094 4.433594.34375 6.609375-3.824219-1.296875-7.34375-3.425781-10.105469-6.464844zm25.761719-.144531v-40h49.367188c14.03125 0 27.359374-4.585938 38.273437-13.039062l8.359375 8.351562v44.6875c0 26.472656-21.527344 48-48 48s-48-21.527344-48-48zm48 64c8.488281 0 16.585938-1.695312 24-4.710938v8.710938l-24 18-24-18v-8.710938c7.414062 3.015626 15.511719 4.710938 24 4.710938zm-128 70.183594c0-18.734375 12.753906-34.757813 31.007812-38.976563l43.097657-9.941406 7.933593 47.636719 37.960938-22.773438v113.871094h-64v-88h-16v88h-40zm0 0"/><path d="m168 400h16v16h-16zm0 0"/><path d="m168 432h16v16h-16zm0 0"/><path d="m480 424h16v16h-16zm0 0"/><path d="m304 392h192v16h-192zm0 0"/><path d="m304 360h160v16h-160zm0 0"/><path d="m480 360h16v16h-16zm0 0"/><path d="m316.238281 258.113281c2.320313 1.335938 3.761719 3.910157 3.761719 6.726563v31.160156c0 26.472656 21.527344 48 48 48s48-21.527344 48-48v-31.160156c0-2.816406 1.472656-5.414063 3.839844-6.777344 32.175781-18.535156 52.160156-53.046875 52.160156-90.0625 0-28.574219-11.351562-55.207031-31.96875-75.007812-20.597656-19.792969-47.597656-30.039063-76.335938-28.902344-54 2.175781-98.71875 47.941406-99.6875 102.007812-.671874 37.847656 19.335938 73.101563 52.230469 92.015625zm19.761719 21.886719h64v16h-64zm8-80h-8c-4.40625 0-8-3.59375-8-8s3.59375-8 8-8 8 3.59375 8 8zm32 64h-16v-48h16zm-8 64c-11.792969 0-22-6.480469-27.550781-16h55.09375c-5.542969 9.519531-15.75 16-27.542969 16zm-3.65625-247.929688c1.230469-.046874 2.457031-.070312 3.679688-.070312 22.863281 0 44.375 8.640625 60.929687 24.527344 17.4375 16.753906 27.046875 39.296875 27.046875 63.472656 0 31.3125-16.910156 60.511719-44.144531 76.199219-7.0625 4.074219-11.449219 11.609375-11.742188 19.800781h-8.113281v-48h8c13.230469 0 24-10.769531 24-24s-10.769531-24-24-24-24 10.769531-24 24v8h-16v-8c0-13.230469-10.769531-24-24-24s-24 10.769531-24 24 10.769531 24 24 24h8v48h-8.113281c-.292969-8.191406-4.648438-15.710938-11.671875-19.753906-27.839844-16.007813-44.773438-45.839844-44.199219-77.855469.816406-45.75 38.648437-84.46875 84.328125-86.320313zm27.65625 119.929688v-8c0-4.40625 3.59375-8 8-8s8 3.59375 8 8-3.59375 8-8 8zm0 0"/><path d="m424 168h16c0-25.625-13.792969-49.519531-35.992188-62.359375l-8.015624 13.847656c17.28125 9.992188 28.007812 28.582031 28.007812 48.511719zm0 0"/><path d="m386 98.273438c-5.847656-1.511719-11.902344-2.273438-18-2.273438v16c4.753906 0 9.464844.59375 14 1.761719zm0 0"/><path d="m360 0h16v48h-16zm0 0"/><path d="m243.546875 54.867188 11.3125-11.316407 33.941406 33.941407-11.3125 11.3125zm0 0"/><path d="m447.191406 77.492188 33.941406-33.941407 11.3125 11.3125-33.941406 33.941407zm0 0"/></svg>