<svg height="496pt" viewBox="0 0 496 496" width="496pt" xmlns="http://www.w3.org/2000/svg"><path d="m272 280h96v80h-96zm0 0" fill="#f0d0b4"/><path d="m216 128h208v64h-208zm0 0" fill="#b27946"/><path d="m427.496094 71.34375-78.335938-54.230469c-8.566406-5.9375-18.746094-9.113281-29.160156-9.113281s-20.59375 3.175781-29.152344 9.105469l-78.335937 54.230469c-7.839844 5.433593-12.511719 14.351562-12.511719 23.871093 0 5.730469 1.695312 11.335938 4.871094 16.105469l11.128906 16.6875h208l11.128906-16.6875c3.175782-4.769531 4.871094-10.367188 4.871094-16.105469 0-9.519531-4.671875-18.4375-12.503906-23.863281zm0 0" fill="#3bafda"/><path d="m392 160h-144c-17.671875 0-32 14.328125-32 32s14.328125 32 32 32c0 39.769531 32.230469 72 72 72s72-32.230469 72-72c17.671875 0 32-14.328125 32-32s-14.328125-32-32-32zm0 0" fill="#f0d0b4"/><path d="m463.601562 333.542969c14.75 8.328125 24.398438 24.113281 24.398438 41.808593v112.648438h-336v-112.65625c0-17.160156 9.089844-32.527344 23.089844-41.039062zm0 0" fill="#3bafda"/><path d="m248 128v8c0 17.671875 14.328125 32 32 32h80c17.671875 0 32-14.328125 32-32v-8zm0 0" fill="#656d78"/><path d="m256 312h-88c0 17.671875 14.328125 32 32 32h64zm0 0" fill="#fcd770"/><path d="m320 344-48-32h-16l24 64 40-32 48-32h16l-24 64zm0 0" fill="#ccd1d9"/><path d="m384 312-8 32h64c17.671875 0 32-14.328125 32-32zm0 0" fill="#fcd770"/><path d="m320 104c-14.992188-9.992188-24-26.824219-24-44.847656v-3.152344l24-16 24 16v3.152344c0 18.023437-9.007812 34.855468-24 44.847656zm0 0" fill="#fcd770"/><path d="m168 8v264h-160v-264zm0 0" fill="#b4dd7f"/><path d="m184 424-48-40v24h-72c-4.414062 0-8-3.585938-8-8v-104h-32v112c0 17.671875 14.328125 32 32 32h80v24zm0 0" fill="#fcd770"/><path d="m474.710938 331.488281c3.265624-5.792969 5.289062-12.375 5.289062-19.488281v-8h-104v-22.96875c13.175781-12.933594 21.878906-30.375 23.632812-49.808594 18.414063-3.574218 32.367188-19.78125 32.367188-39.222656v-61.574219l9.785156-14.671875c4.0625-6.105468 6.214844-13.210937 6.214844-20.546875 0-12.152343-5.960938-23.527343-15.953125-30.445312l-78.335937-54.242188c-19.902344-13.777343-47.511719-13.777343-67.421876 0l-78.335937 54.242188c-9.992187 6.917969-15.953125 18.292969-15.953125 30.445312 0 7.335938 2.152344 14.441407 6.214844 20.535157l9.785156 14.683593v61.574219c0 19.441406 13.953125 35.648438 32.367188 39.230469 1.753906 19.433593 10.457031 36.875 23.632812 49.808593v22.960938h-104v8c0 7.097656 2.015625 13.671875 5.265625 19.457031-13.25 10.527344-21.265625 26.78125-21.265625 43.894531v4.894532l-16-13.335938v33.089844h-64v-104h-16v104c0 8.824219 7.175781 16 16 16h80v-14.921875l27.503906 22.921875-27.503906 22.921875v-14.921875h-88c-13.230469 0-24-10.769531-24-24v-112h-16v112c0 22.054688 17.945312 40 40 40h72v33.078125l16-13.335937v28.257812h352v-120.648438c0-17.230468-8.007812-33.34375-21.289062-43.863281zm-26.710938 3.105469v-14.59375h14.632812c-2.417968 6.800781-7.832031 12.175781-14.632812 14.59375zm-191.542969 1.40625h-16.457031v-16h10.457031zm-48.457031-16h16v16h-16zm61.574219 0 36.882812 24.585938-22.839843 18.269531-16.074219-42.855469zm100.851562 0h2.03125l-16.074219 42.863281-22.839843-18.269531zm19.117188 0h10.457031v16h-16.457031zm26.457031 0h16v16h-16zm-167.792969-160h-.207031v-.246094c.0625.085938.136719.15625.207031.246094zm-4.574219-7.558594c-7.328124.804688-14.03125 3.527344-19.632812 7.757813v-24.199219h16c0 5.871094 1.34375 11.414062 3.632812 16.441406zm140.367188-16.441406c0 13.230469-10.769531 24-24 24h-80c-13.230469 0-24-10.769531-24-24zm7.792969 24c.0625-.089844.144531-.160156.207031-.246094v.246094zm4.574219-7.558594c2.289062-5.027344 3.632812-10.570312 3.632812-16.441406h16v24.207031c-5.601562-4.238281-12.304688-6.949219-19.632812-7.765625zm3.632812 62.085938v-45.046875c9.289062 3.3125 16 12.113281 16 22.527343 0 10.417969-6.710938 19.207032-16 22.519532zm-182.9375-136.605469 78.335938-54.242187c14.53125-10.054688 34.671874-10.054688 49.203124 0l78.335938 54.242187c5.671875 3.925781 9.0625 10.390625 9.0625 17.285156 0 4.167969-1.214844 8.199219-3.527344 11.664063l-8.753906 13.128906h-199.4375l-8.753906-13.128906c-2.3125-3.464844-3.527344-7.496094-3.527344-11.664063 0-6.894531 3.390625-13.359375 9.0625-17.285156zm6.9375 114.078125c0-10.414062 6.710938-19.214844 16-22.527344v45.046875c-9.289062-3.304687-16-12.105469-16-22.519531zm32 32v-56.207031c6.703125 5.078125 14.960938 8.207031 24 8.207031h80c9.039062 0 17.296875-3.128906 24-8.207031v56.207031c0 35.289062-28.710938 64-64 64s-64-28.710938-64-64zm64 80c14.574219 0 28.214844-3.984375 40-10.824219v14.542969l-40 26.664062-40-26.664062v-14.542969c11.785156 6.839844 25.425781 10.824219 40 10.824219zm-128 16v14.59375c-6.800781-2.417969-12.214844-7.785156-14.632812-14.59375zm-32 134.414062 36.496094-30.414062-36.496094-30.414062v-18.234376c0-12.457031 5.96875-24.246093 15.761719-31.75 6.742187 5.183594 15.085937 8.398438 24.238281 8.398438h62.457031l13.925781 37.136719 35.617188-28.488281v119.351562h-88v-104h-16v104h-48zm320 25.585938h-48v-104h-16v104h-88v-119.351562l35.617188 28.488281 13.925781-37.136719h62.457031c9.167969 0 17.519531-3.222656 24.28125-8.433594 9.808594 7.503906 15.71875 19.242188 15.71875 31.785156zm0 0"/><path d="m344 400h16v16h-16zm0 0"/><path d="m344 448h16v16h-16zm0 0"/><path d="m368 192c0 4.417969-3.582031 8-8 8s-8-3.582031-8-8 3.582031-8 8-8 8 3.582031 8 8zm0 0"/><path d="m288 192c0 4.417969-3.582031 8-8 8s-8-3.582031-8-8 3.582031-8 8-8 8 3.582031 8 8zm0 0"/><path d="m320 264c17.648438 0 32-14.351562 32-32h-16c0 8.824219-7.175781 16-16 16s-16-7.175781-16-16h-16c0 17.648438 14.351562 32 32 32zm0 0"/><path d="m315.558594 110.65625 4.441406 2.960938 4.441406-2.960938c17.253906-11.503906 27.558594-30.761719 27.558594-51.496094v-7.441406l-32-21.335938-32 21.335938v7.441406c0 20.734375 10.304688 39.992188 27.558594 51.496094zm4.441406-61.039062 15.984375 10.664062c-.3125 13.085938-6.160156 25.285156-15.984375 33.703125-9.832031-8.425781-15.671875-20.625-15.984375-33.703125zm0 0"/><path d="m176 0h-176v280h176zm-16 264h-144v-248h144zm0 0"/><path d="m128 64h16v-32h-32v16h16zm0 0"/><path d="m128 232h-16v16h32v-32h-16zm0 0"/><path d="m48 48h16v-16h-32v32h16zm0 0"/><path d="m64 232h-16v-16h-16v32h32zm0 0"/><path d="m72 168c13.230469 0 24-10.769531 24-24v-16c0-4.40625 3.585938-8 8-8s8 3.59375 8 8v16c0 4.40625-3.585938 8-8 8v16c13.230469 0 24-10.769531 24-24h16v-16h-16c0-13.230469-10.769531-24-24-24s-24 10.769531-24 24v16c0 4.40625-3.585938 8-8 8s-8-3.59375-8-8v-16c0-4.40625 3.585938-8 8-8v-16c-13.230469 0-24 10.769531-24 24h-16v16h16c0 13.230469 10.769531 24 24 24zm0 0"/></svg>