<?xml version="1.0" encoding="iso-8859-1"?>
<!-- Generator: Adobe Illustrator 19.0.0, SVG Export Plug-In . SVG Version: 6.00 Build 0)  -->
<svg version="1.1" id="Capa_1" xmlns="http://www.w3.org/2000/svg" xmlns:xlink="http://www.w3.org/1999/xlink" x="0px" y="0px"
	 viewBox="0 0 503.917 503.917" style="enable-background:new 0 0 503.917 503.917;" xml:space="preserve">
<g transform="translate(-1)">
	<g transform="translate(2 2)">
		<path style="fill:#A4C2F7;" d="M393.647,149.393c0.003,37.844-15.029,74.14-41.789,100.9s-63.055,41.792-100.9,41.789
			c-4.204,0.018-8.406-0.179-12.59-0.588c-73.632-6.508-130.095-68.182-130.095-142.101S164.737,13.8,238.368,7.292
			c4.184-0.409,8.386-0.605,12.59-0.588c37.844-0.003,74.14,15.029,100.9,41.789S393.65,111.548,393.647,149.393z"/>
		<ellipse style="fill:#E3E7F2;" cx="238.368" cy="149.393" rx="130.098" ry="142.101"/>
		<path style="fill:#A4C2F7;" d="M360.073,149.393c-0.058,60.238-48.876,109.057-109.115,109.115
			c-4.208,0.004-8.413-0.248-12.59-0.755c-55.018-6.377-96.525-52.973-96.525-108.359S183.35,47.411,238.368,41.033
			c4.177-0.508,8.382-0.76,12.59-0.755C311.197,40.335,360.016,89.154,360.073,149.393z"/>
		<ellipse style="fill:#E3E7F2;" cx="238.368" cy="149.393" rx="96.525" ry="108.359"/>
		<path style="fill:#A4C2F7;" d="M343.286,224.934v184.656c-0.017,46.349-37.586,83.917-83.934,83.934h-16.787
			c-1.427,0-2.77,0-4.113-0.084h-0.168c-44.635-2.297-79.649-39.156-79.654-83.85V224.934c-0.003-8.905,3.534-17.446,9.831-23.743
			c6.297-6.297,14.838-9.833,23.743-9.831h117.508c8.905-0.003,17.446,3.534,23.743,9.831
			C339.753,207.487,343.289,216.029,343.286,224.934z"/>
		<path style="fill:#E3E7F2;" d="M318.106,224.934v184.656c-0.005,44.695-35.018,81.553-79.654,83.85h-0.168
			c-44.635-2.297-79.649-39.156-79.654-83.85V224.934c-0.003-8.905,3.534-17.446,9.831-23.743
			c6.297-6.297,14.838-9.833,23.743-9.831h92.328c8.905-0.003,17.446,3.534,23.743,9.831S318.109,216.029,318.106,224.934z"/>
		<path style="fill:#A4C2F7;" d="M343.286,224.934v58.754h-25.18v-58.754c0.003-8.905-3.534-17.446-9.831-23.743
			s-14.838-9.833-23.743-9.831h25.18c8.905-0.003,17.446,3.534,23.743,9.831S343.289,216.029,343.286,224.934z"/>
		<g>
			<path style="fill:#E3E7F2;" d="M318.106,224.934v58.754h-67.148V191.36h33.574c8.905-0.003,17.446,3.534,23.743,9.831
				S318.109,216.029,318.106,224.934z"/>
			<path style="fill:#E3E7F2;" d="M250.959,191.36v92.328h-92.328v-58.754c-0.003-8.905,3.534-17.446,9.831-23.743
				c6.297-6.297,14.838-9.833,23.743-9.831H250.959z"/>
		</g>
	</g>
	<path style="fill:#FFFFFF;" d="M160.631,260.05v151.539c0.005,44.695,35.018,81.553,79.654,83.85h0.168
		c1.343,0.084,2.686,0.084,4.113,0.084h16.787c1.111,0,2.191-0.123,3.291-0.167c-44.285-2.703-78.82-39.401-78.832-83.768V260.05
		c-43.834-37.169-61.063-97.025-43.696-151.81s65.932-93.785,123.174-98.913c-4.072-0.349-8.167-0.622-12.33-0.622
		c-4.204-0.018-8.406,0.178-12.59,0.588c-57.3,5.031-105.964,44.003-123.395,98.819S116.76,222.848,160.631,260.05z"/>
	<g>
		<polygon style="fill:#FFFFFF;" points="152.237,411.589 152.237,302.475 152.237,226.934 169.024,226.934 169.024,302.475 
			169.024,411.589 		"/>
		<g>
			<path style="fill:#428DFF;" d="M157.442,352.167c0.476,0.242,0.986,0.41,1.512,0.5c0.554,0.095,1.114,0.151,1.676,0.168
				c2.222-0.031,4.351-0.9,5.959-2.434c2.036-1.962,2.93-4.828,2.37-7.599s-2.497-5.065-5.136-6.081
				c-1.01-0.431-2.095-0.659-3.193-0.672c-3.394,0.013-6.449,2.061-7.75,5.196c-1.301,3.134-0.596,6.744,1.791,9.157l1.258,1.008
				C156.398,351.728,156.907,351.983,157.442,352.167z"/>
			<path style="fill:#428DFF;" d="M152.237,263.692v47.176c0,4.636,3.758,8.393,8.393,8.393c4.636,0,8.393-3.758,8.393-8.393
				v-16.787h167.869v117.508c-0.048,41.7-33.841,75.493-75.541,75.541h-16.787c-41.7-0.048-75.493-33.841-75.541-75.541v-33.574
				c0-4.636-3.758-8.393-8.393-8.393c-4.636,0-8.393,3.758-8.393,8.393v33.574c0.058,50.967,41.36,92.27,92.328,92.328h16.787
				c50.967-0.058,92.27-41.36,92.328-92.328V263.692c46.69-41.761,62.767-108.002,40.415-166.519S315.6,0,252.959,0
				S134.174,38.655,111.822,97.173S105.547,221.931,152.237,263.692z M311.713,184.966H285.33c2.788-10.048,0.68-20.823-5.689-29.08
				c-6.369-8.257-16.255-13.032-26.683-12.887h-8.393c-9.271,0-16.787-7.516-16.787-16.787s7.516-16.787,16.787-16.787h25.18
				c4.636,0,8.393-3.758,8.393-8.393s-3.758-8.393-8.393-8.393h-8.393v-8.393c0-4.636-3.758-8.393-8.393-8.393
				s-8.393,3.758-8.393,8.393v8.393c-18.542,0-33.574,15.031-33.574,33.574s15.031,33.574,33.574,33.574h8.393
				c9.267,0.009,16.778,7.52,16.787,16.787c-0.005,2.953-0.799,5.85-2.3,8.393h-73.241c-11.521,0.018-22.523,4.796-30.401,13.203
				c-22.276-42.379-11.641-94.582,25.438-124.869s90.355-30.287,127.434,0s47.714,82.49,25.438,124.869
				C334.236,189.762,323.234,184.984,311.713,184.966z M169.024,226.934c0.015-13.9,11.28-25.165,25.18-25.18h50.361v75.541h-75.541
				V226.934z M261.352,277.294v-75.541h50.361c13.9,0.015,25.165,11.28,25.18,25.18v50.361H261.352z M252.959,17.098
				c52.758-0.085,100.662,30.777,122.393,78.852c21.731,48.075,13.249,104.425-21.672,143.973v-12.989
				c-0.059-4.072-0.718-8.114-1.958-11.993c31.687-49.152,22.408-114.123-21.77-152.44s-109.809-38.317-153.987,0
				s-53.457,103.289-21.77,152.44c-1.239,3.88-1.899,7.921-1.958,11.993v12.989c-34.921-39.547-43.403-95.898-21.672-143.973
				S200.2,17.012,252.959,17.098z"/>
		</g>
	</g>
</g>
<g>
</g>
<g>
</g>
<g>
</g>
<g>
</g>
<g>
</g>
<g>
</g>
<g>
</g>
<g>
</g>
<g>
</g>
<g>
</g>
<g>
</g>
<g>
</g>
<g>
</g>
<g>
</g>
<g>
</g>
</svg>
