<?xml version="1.0" encoding="iso-8859-1"?>
<!-- Generator: Adobe Illustrator 19.0.0, SVG Export Plug-In . SVG Version: 6.00 Build 0)  -->
<svg version="1.1" id="Capa_1" xmlns="http://www.w3.org/2000/svg" xmlns:xlink="http://www.w3.org/1999/xlink" x="0px" y="0px"
	 viewBox="0 0 512 512" style="enable-background:new 0 0 512 512;" xml:space="preserve">
<g>
	<g transform="translate(0 1)">
		<path style="fill:#7FACFA;" d="M328.68,331.812h150.952c6.556-0.234,12.75-3.062,17.22-7.863
			c4.47-4.801,6.849-11.181,6.615-17.737v-256c0.235-6.556-2.145-12.936-6.615-17.737c-4.47-4.801-10.664-7.63-17.22-7.863H66.501
			c-6.556,0.234-12.75,3.062-17.22,7.863s-6.849,11.181-6.615,17.737v256c-0.235,6.556,2.145,12.936,6.615,17.737
			c4.47,4.801,10.664,7.63,17.22,7.863h150.952"/>
		<path style="fill:#FFFFFF;" d="M294.547,331.812h150.952c6.556-0.234,12.75-3.062,17.22-7.863
			c4.47-4.801,6.849-11.181,6.615-17.737v-256c0.235-6.556-2.145-12.936-6.615-17.737c-4.47-4.801-10.664-7.63-17.22-7.863H32.368
			c-6.556,0.234-12.75,3.062-17.22,7.863S8.299,43.657,8.533,50.212v256c-0.235,6.556,2.145,12.936,6.615,17.737
			c4.47,4.801,10.664,7.63,17.22,7.863H183.32"/>
		<path style="fill:#E3E7F2;" d="M309.554,331.812h145.361c13.397-0.753,23.661-12.201,22.952-25.6v-256
			c0.709-13.399-9.555-24.847-22.952-25.6H57.085c-13.397,0.753-23.661,12.201-22.952,25.6v256
			c-0.709,13.399,9.555,24.847,22.952,25.6H309.554z"/>
		<rect x="68.267" y="75.812" style="fill:#A4C2F7;" width="435.2" height="51.2"/>
		
			<linearGradient id="SVGID_1_" gradientUnits="userSpaceOnUse" x1="-48.6684" y1="651.2143" x2="-48.1107" y2="646.381" gradientTransform="matrix(443.7334 0 0 -51.2 21728.0684 33319.8516)">
			<stop  offset="0" style="stop-color:#D4E1F4"/>
			<stop  offset="0.1717" style="stop-color:#D4E1F4"/>
			<stop  offset="0.2" style="stop-color:#D4E1F4"/>
			<stop  offset="0.2001" style="stop-color:#DAE4F4"/>
			<stop  offset="0.2007" style="stop-color:#EBEBF4"/>
			<stop  offset="0.2014" style="stop-color:#F6F1F4"/>
			<stop  offset="0.2023" style="stop-color:#FDF4F4"/>
			<stop  offset="0.205" style="stop-color:#FFF5F4"/>
			<stop  offset="0.2522" style="stop-color:#FFF5F4"/>
			<stop  offset="0.26" style="stop-color:#FFF5F4"/>
			<stop  offset="0.26" style="stop-color:#D4E1F4"/>
			<stop  offset="0.3974" style="stop-color:#D4E1F4"/>
			<stop  offset="0.42" style="stop-color:#D4E1F4"/>
			<stop  offset="0.4201" style="stop-color:#DAE4F4"/>
			<stop  offset="0.4207" style="stop-color:#EBEBF4"/>
			<stop  offset="0.4214" style="stop-color:#F6F1F4"/>
			<stop  offset="0.4223" style="stop-color:#FDF4F4"/>
			<stop  offset="0.425" style="stop-color:#FFF5F4"/>
			<stop  offset="0.4894" style="stop-color:#FFF5F4"/>
			<stop  offset="0.5" style="stop-color:#FFF5F4"/>
			<stop  offset="0.5" style="stop-color:#F9F2F4"/>
			<stop  offset="0.5001" style="stop-color:#E8EBF4"/>
			<stop  offset="0.5003" style="stop-color:#DDE5F4"/>
			<stop  offset="0.5005" style="stop-color:#D6E2F4"/>
			<stop  offset="0.501" style="stop-color:#D4E1F4"/>
			<stop  offset="0.7062" style="stop-color:#D4E1F4"/>
			<stop  offset="0.74" style="stop-color:#D4E1F4"/>
			<stop  offset="0.741" style="stop-color:#FFF5F4"/>
			<stop  offset="0.8346" style="stop-color:#FFF5F4"/>
			<stop  offset="0.85" style="stop-color:#FFF5F4"/>
			<stop  offset="0.851" style="stop-color:#D4E1F4"/>
		</linearGradient>
		<rect x="34.133" y="75.812" style="fill:url(#SVGID_1_);" width="443.733" height="51.2"/>
		<g>
			<path style="fill:#A4C2F7;" d="M59.733,246.479h34.133c9.426,0,17.067,7.641,17.067,17.067v17.067
				c0,9.426-7.641,17.067-17.067,17.067H59.733c-9.426,0-17.067-7.641-17.067-17.067v-17.067
				C42.667,254.12,50.308,246.479,59.733,246.479z"/>
			<path style="fill:#A4C2F7;" d="M51.2,161.146h213.333c4.713,0,8.533,3.821,8.533,8.533v17.067c0,4.713-3.82,8.533-8.533,8.533
				H51.2c-4.713,0-8.533-3.82-8.533-8.533v-17.067C42.667,164.966,46.487,161.146,51.2,161.146z"/>
		</g>
		<path style="fill:#E3E7F2;" d="M352.74,273.993c3.436,1.63,5.635,5.083,5.661,8.885v52.152
			c-0.608,47.616-23.154,92.288-61.099,121.061l-33.738,26.708c-4.44,3.485-10.687,3.485-15.127,0l-33.738-26.708
			c-37.945-28.772-60.491-73.444-61.099-121.061v-52.152c0.025-3.803,2.225-7.255,5.661-8.885l87.581-42.483
			c5.786-2.797,12.532-2.797,18.318,0L352.74,273.993z"/>
		<circle style="fill:#D4E1F4;" cx="256" cy="348.879" r="59.733"/>
	</g>
	<g>
		<path style="fill:#FFFFFF;" d="M17.067,128.012v178.605c0.02,1.186,0.059,1.706,0.128,2.582
			c0.743,6.447,5.094,11.908,11.212,14.072c1.486,0.551,3.049,0.868,4.633,0.942c0.655,0.055,1.752,0.081,3.025,0.065H153.6v17.067
			H36.065c-1.101,0.01-2.378,0.009-4.094-0.098c-3.166-0.173-6.29-0.81-9.271-1.891c-12.261-4.343-20.977-15.291-22.462-28.213
			c-0.16-1.481-0.228-3.341-0.239-4.526V128.012H17.067z"/>
		<g>
			<path style="fill:#428DFF;" d="M8.533,170.679c4.707-0.014,8.519-3.826,8.533-8.533v-34.133H0v34.133
				C0.014,166.853,3.826,170.665,8.533,170.679z"/>
			<path style="fill:#428DFF;" d="M153.6,341.346v-17.067H36.065c-1.274,0.016-2.371-0.01-3.025-0.065
				c-1.583-0.073-3.146-0.391-4.633-0.942c-6.118-2.164-10.469-7.625-11.212-14.072c-0.069-0.877-0.108-1.396-0.128-2.582v-76.205
				c0-4.713-3.821-8.533-8.533-8.533S0,225.7,0,230.412v76.205c0.011,1.185,0.079,3.045,0.239,4.526
				c1.485,12.922,10.201,23.87,22.462,28.213c2.981,1.08,6.105,1.717,9.271,1.891c1.715,0.107,2.993,0.109,4.094,0.099
				L153.6,341.346L153.6,341.346z"/>
			<path style="fill:#428DFF;" d="M17.067,196.279c-0.033-2.259-0.917-4.422-2.475-6.059l-1.279-1.025
				c-0.476-0.324-0.993-0.583-1.538-0.771c-0.484-0.245-1.003-0.417-1.538-0.508c-0.563-0.096-1.133-0.153-1.704-0.171
				c-2.259,0.031-4.423,0.915-6.059,2.475c-3.222,3.397-3.222,8.721,0,12.117c0.815,0.771,1.77,1.379,2.813,1.792
				c1.027,0.438,2.13,0.67,3.246,0.683c2.259-0.034,4.422-0.918,6.059-2.475C16.149,200.701,17.032,198.538,17.067,196.279z"/>
			<path style="fill:#428DFF;" d="M460.8,298.679h-42.667c-4.713,0-8.533-3.82-8.533-8.533s3.82-8.533,8.533-8.533H460.8
				c4.713,0,8.533,3.821,8.533,8.533S465.513,298.679,460.8,298.679z"/>
			<path style="fill:#428DFF;" d="M460.8,264.546h-59.733c-4.713,0-8.533-3.82-8.533-8.533s3.82-8.533,8.533-8.533H460.8
				c4.713,0,8.533,3.821,8.533,8.533S465.513,264.546,460.8,264.546z"/>
			<path style="fill:#428DFF;" d="M477.867,341.346H358.4c-4.713,0-8.533-3.82-8.533-8.533s3.82-8.533,8.533-8.533h119.467
				c9.421-0.011,17.056-7.645,17.067-17.067v-256c-0.011-9.421-7.645-17.056-17.067-17.067H34.133
				c-9.421,0.011-17.056,7.645-17.067,17.067v76.8c0,4.713-3.821,8.533-8.533,8.533S0,132.725,0,128.012v-76.8
				c0.02-18.843,15.29-34.113,34.133-34.133h443.733c18.843,0.02,34.113,15.29,34.133,34.133v256
				C511.98,326.055,496.71,341.326,477.867,341.346z"/>
			<path style="fill:#428DFF;" d="M503.467,136.546H8.533c-2.263,0.001-4.434-0.898-6.035-2.499c-1.6-1.6-2.499-3.771-2.499-6.035
				v-51.2c-0.001-2.263,0.898-4.434,2.499-6.035c1.6-1.6,3.771-2.499,6.035-2.499h494.933c2.263-0.001,4.434,0.898,6.035,2.499
				c1.6,1.6,2.499,3.771,2.499,6.035v51.2c0.001,2.263-0.898,4.434-2.499,6.035C507.901,135.648,505.73,136.546,503.467,136.546z
				 M17.067,119.479h477.867V85.346H17.067V119.479z"/>
			<path style="fill:#428DFF;" d="M93.867,307.212H59.733c-14.132-0.015-25.585-11.468-25.6-25.6v-17.067
				c0.015-14.132,11.468-25.585,25.6-25.6h34.133c14.132,0.015,25.585,11.468,25.6,25.6v17.067
				C119.451,295.745,107.999,307.197,93.867,307.212z M59.733,256.012c-4.711,0.005-8.529,3.822-8.533,8.533v17.067
				c0.005,4.711,3.822,8.529,8.533,8.533h34.133c4.711-0.005,8.529-3.822,8.533-8.533v-17.067c-0.005-4.711-3.822-8.529-8.533-8.533
				H59.733z"/>
			<path style="fill:#428DFF;" d="M264.533,204.812H51.2c-9.421-0.011-17.056-7.645-17.067-17.067v-17.067
				c0.011-9.421,7.645-17.056,17.067-17.067h213.333c9.421,0.011,17.056,7.645,17.067,17.067v17.067
				C281.589,197.167,273.955,204.802,264.533,204.812z M51.2,170.679v17.067h213.346l-0.012-17.067H51.2z"/>
			<path style="fill:#428DFF;" d="M256.004,494.921c-4.668,0.013-9.204-1.552-12.871-4.442l-33.729-26.7
				c-39.977-30.401-63.713-77.53-64.337-127.75v-52.15c-0.002-7.079,4.075-13.525,10.471-16.558l87.579-42.483
				c8.144-3.917,17.627-3.917,25.771,0l87.575,42.483c6.396,3.033,10.473,9.479,10.471,16.558v52.15
				c-0.626,50.225-24.366,97.358-64.35,127.758l-33.725,26.7C265.196,493.372,260.666,494.934,256.004,494.921z M256,238.954
				c-1.88-0.004-3.736,0.417-5.429,1.233l-87.583,42.483c-0.493,0.205-0.825,0.675-0.854,1.208v52.151
				c0.645,44.994,21.986,87.181,57.85,114.358l33.75,26.717c1.332,1.027,3.189,1.031,4.525,0.009l33.746-26.717
				c35.871-27.177,57.217-69.368,57.863-114.367v-52.15c-0.029-0.533-0.361-1.003-0.854-1.208l-87.579-42.483
				C259.739,239.371,257.881,238.95,256,238.954z"/>
			<path style="fill:#428DFF;" d="M256,418.146c-37.703,0-68.267-30.564-68.267-68.267s30.564-68.267,68.267-68.267
				c37.703,0,68.267,30.564,68.267,68.267C324.224,387.564,293.685,418.103,256,418.146z M256,298.679
				c-28.277,0-51.2,22.923-51.2,51.2c0,28.277,22.923,51.2,51.2,51.2c28.277,0,51.2-22.923,51.2-51.2
				C307.169,321.615,284.264,298.71,256,298.679z"/>
			<path style="fill:#428DFF;" d="M247.467,375.479c-2.263,0.001-4.434-0.899-6.033-2.5l-8.533-8.533
				c-3.281-3.341-3.256-8.701,0.054-12.012c3.311-3.311,8.671-3.335,12.012-0.054l1.575,1.575l19.7-26.258
				c1.828-2.438,4.818-3.716,7.844-3.352c3.026,0.364,5.627,2.314,6.825,5.117c1.198,2.802,0.809,6.031-1.019,8.469l-25.6,34.133
				c-1.482,1.98-3.753,3.218-6.221,3.392C247.871,375.471,247.667,375.479,247.467,375.479z"/>
		</g>
	</g>
</g>
<g>
</g>
<g>
</g>
<g>
</g>
<g>
</g>
<g>
</g>
<g>
</g>
<g>
</g>
<g>
</g>
<g>
</g>
<g>
</g>
<g>
</g>
<g>
</g>
<g>
</g>
<g>
</g>
<g>
</g>
</svg>
