<svg height="512pt" viewBox="0 -26 512.00003 512" width="512pt" xmlns="http://www.w3.org/2000/svg" xmlns:xlink="http://www.w3.org/1999/xlink"><linearGradient id="a" gradientTransform="matrix(384 0 0 307.199219 8.535156 8.535156)" gradientUnits="userSpaceOnUse" x1=".062978" x2=".936955" y1="-.013667" y2="1.078806"><stop offset="0" stop-color="#dae5f4"/><stop offset=".172" stop-color="#dae5f4"/><stop offset=".2" stop-color="#dae5f4"/><stop offset=".201" stop-color="#ebecf4"/><stop offset=".201" stop-color="#f6f1f4"/><stop offset=".202" stop-color="#fdf4f4"/><stop offset=".205" stop-color="#fff5f4"/><stop offset=".252" stop-color="#fff5f4"/><stop offset=".26" stop-color="#fff5f4"/><stop offset=".26" stop-color="#dae5f4"/><stop offset=".397" stop-color="#dae5f4"/><stop offset=".42" stop-color="#dae5f4"/><stop offset=".421" stop-color="#ebecf4"/><stop offset=".421" stop-color="#f6f1f4"/><stop offset=".422" stop-color="#fdf4f4"/><stop offset=".425" stop-color="#fff5f4"/><stop offset=".489" stop-color="#fff5f4"/><stop offset=".5" stop-color="#fff5f4"/><stop offset=".5" stop-color="#eeeef4"/><stop offset=".5" stop-color="#e3e9f4"/><stop offset=".5" stop-color="#dce6f4"/><stop offset=".501" stop-color="#dae5f4"/><stop offset=".706" stop-color="#dae5f4"/><stop offset=".74" stop-color="#dae5f4"/><stop offset=".741" stop-color="#fff5f4"/><stop offset=".835" stop-color="#fff5f4"/><stop offset=".85" stop-color="#fff5f4"/><stop offset=".851" stop-color="#dae5f4"/></linearGradient><path d="m418.132812 42.667969v273.066406h-409.597656v-273.066406c0-18.851563 15.28125-34.132813 34.132813-34.132813h341.332031c6.035156-.007812 11.960938 1.613282 17.152344 4.691406 10.519531 6.066407 16.996094 17.292969 16.980468 29.441407zm0 0" fill="#a4c2f7"/><path d="m392.535156 42.667969v273.066406h-384v-273.066406c0-18.851563 15.28125-34.132813 34.132813-34.132813h315.730469c6.035156-.007812 11.960937 1.613282 17.152343 4.691406 10.523438 6.066407 17 17.292969 16.984375 29.441407zm0 0" fill="url(#a)"/><path d="m128 349.867188h170.667969v85.332031h-170.667969zm0 0" fill="#a4c2f7"/><path d="m128 349.867188h145.066406v85.332031h-145.066406zm0 0" fill="#d4e1f4"/><path d="m85.332031 418.132812h256c4.714844 0 8.535157 3.820313 8.535157 8.535157v17.066406c0 4.710937-3.820313 8.53125-8.535157 8.53125h-256c-4.710937 0-8.53125-3.820313-8.53125-8.53125v-17.066406c0-4.714844 3.820313-8.535157 8.53125-8.535157zm0 0" fill="#a4c2f7"/><path d="m85.332031 418.132812h230.402344c4.710937 0 8.53125 3.820313 8.53125 8.535157v17.066406c0 4.710937-3.820313 8.53125-8.53125 8.53125h-230.402344c-4.710937 0-8.53125-3.820313-8.53125-8.53125v-17.066406c0-4.714844 3.820313-8.535157 8.53125-8.535157zm0 0" fill="#d4e1f4"/><path d="m418.132812 298.667969v34.132812c0 18.859375-12.628906 34.132813-28.246093 34.132813h-353.109375c-15.613282 0-28.242188-15.273438-28.242188-34.132813v-34.132812zm0 0" fill="#a4c2f7"/><path d="m392.535156 298.667969v34.132812c0 18.859375-12.632812 34.132813-28.246094 34.132813h-327.511718c-15.613282 0-28.242188-15.273438-28.242188-34.132813v-34.132812zm0 0" fill="#d4e1f4"/><path d="m503.464844 59.734375v187.730469c0 4.714844-3.820313 8.535156-8.53125 8.535156h-247.46875v-204.800781h247.46875c4.710937 0 8.53125 3.820312 8.53125 8.535156zm0 0" fill="#a4c2f7"/><path d="m477.867188 59.734375v187.730469c0 4.714844-3.820313 8.535156-8.535157 8.535156h-221.867187v-204.800781h221.867187c4.714844 0 8.535157 3.820312 8.535157 8.535156zm0 0" fill="#d4e1f4"/><path d="m469.332031 110.933594v85.332031c-14.136719 0-25.597656 11.460937-25.597656 25.601563h-196.269531v-136.535157h196.269531c0 14.140625 11.460937 25.601563 25.597656 25.601563zm0 0" fill="#a4c2f7"/><path d="m443.734375 110.933594v85.332031c-14.140625 0-25.601563 11.460937-25.601563 25.601563h-170.667968v-136.535157h170.667968c0 14.140625 11.460938 25.601563 25.601563 25.601563zm0 0" fill="#d4e1f4"/><path d="m426.667969 153.601562c0 9.425782-7.640625 17.066407-17.066407 17.066407-9.425781 0-17.066406-7.640625-17.066406-17.066407 0-9.425781 7.640625-17.066406 17.066406-17.066406 9.425782 0 17.066407 7.640625 17.066407 17.066406zm0 0" fill="#d4e1f4"/><path d="m349.867188 153.601562c0 18.851563-15.28125 34.132813-34.132813 34.132813s-34.132813-15.28125-34.132813-34.132813c0-18.851562 15.28125-34.136718 34.132813-34.136718s34.132813 15.285156 34.132813 34.136718zm0 0" fill="#d4e1f4"/><path d="m110.933594 418.132812h-25.601563c-4.710937 0-8.53125 3.820313-8.53125 8.535157v17.066406c0 4.710937 3.820313 8.53125 8.53125 8.53125h25.601563c-4.714844 0-8.535156-3.820313-8.535156-8.53125v-17.066406c0-4.714844 3.820312-8.535157 8.535156-8.535157zm0 0" fill="#fff"/><path d="m36.777344 366.933594h25.601562c-15.617187 0-28.246094-15.273438-28.246094-34.132813v-290.132812c0-18.851563 15.28125-34.132813 34.132813-34.132813h-25.597656c-18.851563 0-34.132813 15.28125-34.132813 34.132813v290.132812c0 18.859375 12.628906 34.132813 28.242188 34.132813zm0 0" fill="#fff"/><path d="m128 366.933594h25.601562v51.199218h-25.601562zm0 0" fill="#fff"/><path d="m17.066406 42.667969v290.132812h-17.066406v-290.132812zm0 0" fill="#fff"/><g fill="#428dff"><path d="m8.535156 119.464844c2.257813-.03125 4.421875-.914063 6.058594-2.472656 3.296875-3.363282 3.296875-8.753907 0-12.117188l-1.28125-1.023438c-.476562-.324218-.992188-.582031-1.535156-.769531-.484375-.246093-1.003906-.417969-1.539063-.511719-.5625-.09375-1.132812-.152343-1.703125-.171874-2.261718.035156-4.425781.917968-6.058594 2.476562-.773437.816406-1.382812 1.769531-1.792968 2.816406-1.289063 3.183594-.5859378 6.824219 1.792968 9.300782.8125.769531 1.769532 1.378906 2.8125 1.792968 1.027344.4375 2.128907.667969 3.246094.679688zm0 0"/><path d="m230.398438 324.265625h-34.132813c-4.710937 0-8.53125 3.820313-8.53125 8.535156 0 4.710938 3.820313 8.53125 8.53125 8.53125h34.132813c4.714843 0 8.535156-3.820312 8.535156-8.53125 0-4.714843-3.820313-8.535156-8.535156-8.535156zm0 0"/><path d="m76.800781 34.132812c-4.714843 0-8.535156 3.820313-8.535156 8.535157v9.386719c-7.101563.785156-13.957031 3.070312-20.113281 6.699218-8.246094 4.476563-13.5625 12.9375-14.019532 22.3125.453126 9.375 5.765626 17.835938 14.011719 22.316406 6.148438 3.6875 13.003907 6.046876 20.121094 6.925782v25.167968c-3.90625-.601562-7.667969-1.921874-11.09375-3.890624-2.585937-1.726563-5.902344-1.90625-8.660156-.476563-2.761719 1.433594-4.523438 4.25-4.601563 7.355469-.078125 3.109375 1.535156 6.011718 4.21875 7.582031 6.152344 3.691406 13.015625 6.054687 20.136719 6.929687v9.15625c0 4.714844 3.820313 8.535157 8.535156 8.535157 4.710938 0 8.53125-3.820313 8.53125-8.535157v-9.15625c7.113281-.878906 13.964844-3.234374 20.113281-6.921874 8.253907-4.480469 13.566407-12.941407 14.019532-22.320313-.449219-9.375-5.761719-17.835937-14.011719-22.316406-6.148437-3.6875-13.003906-6.050781-20.121094-6.929688v-25.164062c3.90625.601562 7.667969 1.917969 11.09375 3.890625 4.007813 2.5 9.277344 1.277344 11.777344-2.730469 2.496094-4.003906 1.273437-9.277344-2.730469-11.773437-6.167968-3.617188-13.03125-5.882813-20.140625-6.65625v-9.386719c0-4.714844-3.820312-8.535157-8.53125-8.535157zm-25.601562 46.933594c.582031-3.4375 2.816406-6.371094 5.972656-7.851562 3.425781-1.972656 7.1875-3.289063 11.09375-3.890625v23.6875c-3.910156-.679688-7.667969-2.054688-11.09375-4.058594-3.167969-1.484375-5.402344-4.433594-5.972656-7.886719zm51.199219 42.667969c-.582032 3.4375-2.8125 6.371094-5.972657 7.851563-3.425781 1.96875-7.1875 3.289062-11.09375 3.890624v-23.648437c3.914063.679687 7.667969 2.058594 11.09375 4.0625 3.160157 1.472656 5.390625 4.40625 5.972657 7.84375zm0 0"/><path d="m59.734375 187.734375h-8.535156c-4.710938 0-8.53125 3.820313-8.53125 8.53125 0 4.714844 3.820312 8.535156 8.53125 8.535156h8.535156c4.710937 0 8.53125-3.820312 8.53125-8.535156 0-4.710937-3.820313-8.53125-8.53125-8.53125zm0 0"/><path d="m85.332031 196.265625c0 4.714844 3.820313 8.535156 8.535157 8.535156h119.464843c4.714844 0 8.535157-3.820312 8.535157-8.535156 0-4.710937-3.820313-8.53125-8.535157-8.53125h-119.464843c-4.714844 0-8.535157 3.820313-8.535157 8.53125zm0 0"/><path d="m59.734375 221.867188h-8.535156c-4.710938 0-8.53125 3.820312-8.53125 8.53125 0 4.714843 3.820312 8.535156 8.53125 8.535156h8.535156c4.710937 0 8.53125-3.820313 8.53125-8.535156 0-4.710938-3.820313-8.53125-8.53125-8.53125zm0 0"/><path d="m213.332031 221.867188h-119.464843c-4.714844 0-8.535157 3.820312-8.535157 8.53125 0 4.714843 3.820313 8.535156 8.535157 8.535156h119.464843c4.714844 0 8.535157-3.820313 8.535157-8.535156 0-4.710938-3.820313-8.53125-8.535157-8.53125zm0 0"/><path d="m59.734375 256h-8.535156c-4.710938 0-8.53125 3.820312-8.53125 8.535156 0 4.710938 3.820312 8.53125 8.53125 8.53125h8.535156c4.710937 0 8.53125-3.820312 8.53125-8.53125 0-4.714844-3.820313-8.535156-8.53125-8.535156zm0 0"/><path d="m213.332031 256h-119.464843c-4.714844 0-8.535157 3.820312-8.535157 8.535156 0 4.710938 3.820313 8.53125 8.535157 8.53125h119.464843c4.714844 0 8.535157-3.820312 8.535157-8.53125 0-4.714844-3.820313-8.535156-8.535157-8.535156zm0 0"/><path d="m145.066406 102.398438h8.535156c4.710938 0 8.53125-3.820313 8.53125-8.53125 0-4.714844-3.820312-8.535157-8.53125-8.535157h-8.535156c-4.710937 0-8.53125 3.820313-8.53125 8.535157 0 4.710937 3.820313 8.53125 8.53125 8.53125zm0 0"/><path d="m187.734375 102.398438h25.597656c4.714844 0 8.535157-3.820313 8.535157-8.53125 0-4.714844-3.820313-8.535157-8.535157-8.535157h-25.597656c-4.714844 0-8.535156 3.820313-8.535156 8.535157 0 4.710937 3.820312 8.53125 8.535156 8.53125zm0 0"/><path d="m145.066406 68.265625h8.535156c4.710938 0 8.53125-3.820313 8.53125-8.53125 0-4.714844-3.820312-8.535156-8.53125-8.535156h-8.535156c-4.710937 0-8.53125 3.820312-8.53125 8.535156 0 4.710937 3.820313 8.53125 8.53125 8.53125zm0 0"/><path d="m187.734375 68.265625h25.597656c4.714844 0 8.535157-3.820313 8.535157-8.53125 0-4.714844-3.820313-8.535156-8.535157-8.535156h-25.597656c-4.714844 0-8.535156 3.820312-8.535156 8.535156 0 4.710937 3.820312 8.53125 8.535156 8.53125zm0 0"/><path d="m145.066406 136.535156h8.535156c4.710938 0 8.53125-3.824218 8.53125-8.535156s-3.820312-8.535156-8.53125-8.535156h-8.535156c-4.710937 0-8.53125 3.824218-8.53125 8.535156s3.820313 8.535156 8.53125 8.535156zm0 0"/><path d="m187.734375 136.535156h25.597656c4.714844 0 8.535157-3.824218 8.535157-8.535156s-3.820313-8.535156-8.535157-8.535156h-25.597656c-4.714844 0-8.535156 3.824218-8.535156 8.535156s3.820312 8.535156 8.535156 8.535156zm0 0"/><path d="m145.066406 170.667969h8.535156c4.710938 0 8.53125-3.820313 8.53125-8.535157 0-4.710937-3.820312-8.53125-8.53125-8.53125h-8.535156c-4.710937 0-8.53125 3.820313-8.53125 8.53125 0 4.714844 3.820313 8.535157 8.53125 8.535157zm0 0"/><path d="m187.734375 170.667969h25.597656c4.714844 0 8.535157-3.820313 8.535157-8.535157 0-4.710937-3.820313-8.53125-8.535157-8.53125h-25.597656c-4.714844 0-8.535156 3.820313-8.535156 8.53125 0 4.714844 3.820312 8.535157 8.535156 8.535157zm0 0"/><path d="m494.933594 42.667969h-68.265625c-.03125-23.554688-19.117188-42.6406252-42.667969-42.667969h-341.332031c-23.554688.0273438-42.6406252 19.113281-42.667969 42.667969v34.132812c0 4.710938 3.820312 8.53125 8.535156 8.53125 4.710938 0 8.53125-3.820312 8.53125-8.53125v-34.132812c0-14.140625 11.460938-25.601563 25.601563-25.601563h341.332031c14.136719 0 25.601562 11.460938 25.601562 25.601563h-153.601562c0-4.714844-3.820312-8.535157-8.535156-8.535157-4.710938 0-8.53125 3.820313-8.53125 8.535157v221.867187c0 4.710938 3.820312 8.53125 8.53125 8.53125 4.714844 0 8.535156-3.820312 8.535156-8.53125h153.601562v25.597656h-392.535156v-145.066406c0-4.710937-3.820312-8.53125-8.53125-8.53125-4.714844 0-8.535156 3.820313-8.535156 8.53125v187.734375c.0273438 23.550781 19.113281 42.636719 42.667969 42.664063h76.796875v34.136718h-34.132813c-9.425781 0-17.066406 7.640626-17.066406 17.066407v17.066406c0 9.425781 7.640625 17.066406 17.066406 17.066406h256c9.425781 0 17.066407-7.640625 17.066407-17.066406v-17.066406c0-9.425781-7.640626-17.066407-17.066407-17.066407h-34.132812v-34.136718h76.800781c23.550781-.027344 42.636719-19.113282 42.667969-42.664063v-68.265625h68.265625c9.425781 0 17.066406-7.644531 17.066406-17.070312v-187.730469c0-9.425781-7.640625-17.066406-17.066406-17.066406zm-153.601563 401.066406h-256v-17.066406h256zm-51.199219-34.132813h-153.597656v-34.136718h153.597656zm93.867188-51.203124h-341.332031c-14.140625 0-25.601563-11.460938-25.601563-25.597657v-25.601562h392.535156v25.601562c0 14.136719-11.464843 25.597657-25.601562 25.597657zm-128-264.53125h180.285156c3.125 12.007812 12.503906 21.386718 24.515625 24.515624v70.433594c-12.011719 3.128906-21.390625 12.507813-24.515625 24.515625h-180.285156zm0 153.597656v-17.066406h187.734375c4.710937 0 8.53125-3.820313 8.53125-8.53125 0-9.425782 7.640625-17.066407 17.066406-17.066407 4.714844 0 8.535157-3.820312 8.535157-8.535156v-85.332031c0-4.714844-3.820313-8.535156-8.535157-8.535156-9.425781 0-17.066406-7.640626-17.066406-17.066407 0-4.710937-3.820313-8.53125-8.53125-8.53125h-187.734375v-17.066406h238.933594v187.730469zm0 0"/><path d="m409.601562 128c-14.140624 0-25.601562 11.460938-25.601562 25.601562 0 14.136719 11.460938 25.597657 25.601562 25.597657 14.136719 0 25.597657-11.460938 25.597657-25.597657 0-14.140624-11.460938-25.601562-25.597657-25.601562zm0 34.132812c-4.714843 0-8.535156-3.820312-8.535156-8.53125 0-4.714843 3.820313-8.535156 8.535156-8.535156 4.710938 0 8.53125 3.820313 8.53125 8.535156 0 4.710938-3.820312 8.53125-8.53125 8.53125zm0 0"/><path d="m315.734375 110.933594c-23.566406 0-42.667969 19.101562-42.667969 42.667968 0 23.5625 19.101563 42.664063 42.667969 42.664063 23.5625 0 42.664063-19.101563 42.664063-42.664063-.027344-23.554687-19.113282-42.640624-42.664063-42.667968zm0 68.265625c-14.140625 0-25.601563-11.460938-25.601563-25.597657 0-14.140624 11.460938-25.601562 25.601563-25.601562 14.136719 0 25.597656 11.460938 25.597656 25.601562 0 14.136719-11.460937 25.597657-25.597656 25.597657zm0 0"/></g></svg>