<?xml version="1.0" encoding="iso-8859-1"?>
<!-- Generator: Adobe Illustrator 19.0.0, SVG Export Plug-In . SVG Version: 6.00 Build 0)  -->
<svg version="1.1" id="Capa_1" xmlns="http://www.w3.org/2000/svg" xmlns:xlink="http://www.w3.org/1999/xlink" x="0px" y="0px"
	 viewBox="0 0 511.95 511.95" style="enable-background:new 0 0 511.95 511.95;" xml:space="preserve">
<g>
	<g transform="translate(1 1)">
		
			<linearGradient id="SVGID_1_" gradientUnits="userSpaceOnUse" x1="-49.7043" y1="651.6573" x2="-48.9807" y2="650.7958" gradientTransform="matrix(342.703 0 0 -498.5725 17164.8535 324914.1875)">
			<stop  offset="0" style="stop-color:#D4E1F4"/>
			<stop  offset="0.1717" style="stop-color:#D4E1F4"/>
			<stop  offset="0.2" style="stop-color:#D4E1F4"/>
			<stop  offset="0.2001" style="stop-color:#DAE4F4"/>
			<stop  offset="0.2007" style="stop-color:#EBEBF4"/>
			<stop  offset="0.2014" style="stop-color:#F6F1F4"/>
			<stop  offset="0.2023" style="stop-color:#FDF4F4"/>
			<stop  offset="0.205" style="stop-color:#FFF5F4"/>
			<stop  offset="0.2522" style="stop-color:#FFF5F4"/>
			<stop  offset="0.26" style="stop-color:#FFF5F4"/>
			<stop  offset="0.26" style="stop-color:#D4E1F4"/>
			<stop  offset="0.3974" style="stop-color:#D4E1F4"/>
			<stop  offset="0.42" style="stop-color:#D4E1F4"/>
			<stop  offset="0.4201" style="stop-color:#DAE4F4"/>
			<stop  offset="0.4207" style="stop-color:#EBEBF4"/>
			<stop  offset="0.4214" style="stop-color:#F6F1F4"/>
			<stop  offset="0.4223" style="stop-color:#FDF4F4"/>
			<stop  offset="0.425" style="stop-color:#FFF5F4"/>
			<stop  offset="0.4894" style="stop-color:#FFF5F4"/>
			<stop  offset="0.5" style="stop-color:#FFF5F4"/>
			<stop  offset="0.5" style="stop-color:#F9F2F4"/>
			<stop  offset="0.5001" style="stop-color:#E8EBF4"/>
			<stop  offset="0.5003" style="stop-color:#DDE5F4"/>
			<stop  offset="0.5005" style="stop-color:#D6E2F4"/>
			<stop  offset="0.501" style="stop-color:#D4E1F4"/>
			<stop  offset="0.7062" style="stop-color:#D4E1F4"/>
			<stop  offset="0.74" style="stop-color:#D4E1F4"/>
			<stop  offset="0.741" style="stop-color:#FFF5F4"/>
			<stop  offset="0.8346" style="stop-color:#FFF5F4"/>
			<stop  offset="0.85" style="stop-color:#FFF5F4"/>
			<stop  offset="0.851" style="stop-color:#D4E1F4"/>
		</linearGradient>
		<path style="fill:url(#SVGID_1_);" d="M287.396,25.499l-0.202,0.135c-2.542,1.856-5.275,3.437-8.152,4.716l-0.269,0.135h-0.135
			c-10.67,4.508-22.171,6.712-33.752,6.467c-22.433,0-54.231-6.872-96.471-31.259L83.674,43.083v144.236
			c0,75.318,27.284,163.773,76.8,238.888c17.694,27.381,38.567,52.572,62.181,75.048c20.588,4.932,42.165,3.785,62.114-3.301
			c5.924-2.132,11.594-4.911,16.909-8.286l1.415-0.808l1.01-0.606l54.502-31.461l0.875-0.404
			c43.184-21.693,66.897-75.789,66.897-145.987V166.165C368.297,132.558,320.301,83.98,287.396,25.499z"/>
		<g>
			<path style="fill:#E3E7F2;" d="M278.773,30.485l-56.118,32.404c0,0-42.173,36.109-138.981-19.806l64.741-37.389
				c42.24,24.387,74.039,31.259,96.471,31.259c11.58,0.244,23.082-1.959,33.752-6.467H278.773z"/>
			<path style="fill:#E3E7F2;" d="M426.377,166.165l-64.741,37.389c-58.101-33.579-106.104-82.164-138.981-140.665l56.118-32.404
				l0.269-0.135c2.877-1.279,5.609-2.859,8.152-4.716l0.202-0.135C320.301,83.98,368.297,132.558,426.377,166.165z"/>
		</g>
		<g>
			<path style="fill:#A4C2F7;" d="M426.377,166.165V310.4c0,70.198-23.713,124.295-66.897,145.987l-0.875,0.404l-54.502,31.461
				c37.255-24.455,57.533-75.655,57.533-140.463V203.554L426.377,166.165z"/>
			<polygon style="fill:#A4C2F7;" points="264.83,292.683 264.83,366.855 180.485,318.148 180.485,238.249 220.165,215.613 			"/>
		</g>
		<path style="fill:#D4E1F4;" d="M297.164,334.99c-1.541,0.919-3.388,1.18-5.123,0.724c-1.736-0.456-3.215-1.591-4.105-3.149
			l-23.108-39.882l-44.665-77.069l-39.68,22.636l-25.667,14.619c-3.26,1.809-7.368,0.67-9.23-2.56
			c-1.819-3.238-0.673-7.337,2.561-9.162l71.141-40.556c3.223-1.809,7.3-0.699,9.162,2.493l71.209,122.745
			C301.491,329.047,300.376,333.143,297.164,334.99z"/>
	</g>
	<g transform="translate(2 1)">
		<path style="fill:#FFFFFF;" d="M432.114,171.423v-5.259c-25.58-14.827-49.303-32.649-70.667-53.088
			C382.555,135.313,406.284,154.905,432.114,171.423z"/>
		<path style="fill:#FFFFFF;" d="M179.685,439.68c-49.516-75.116-76.8-163.571-76.8-238.888V56.556l64.741-37.389
			c42.24,24.387,74.039,31.259,96.471,31.259c11.58,0.244,23.082-1.959,33.752-6.467h0.135l0.269-0.135
			c1.712-0.783,3.065-1.518,4.248-2.201c-5.937-9.418-9.005-15.415-9.368-16.123l-0.202,0.135c-2.542,1.856-5.275,3.437-8.152,4.716
			l-0.269,0.135h-0.135c-10.67,4.508-22.171,6.712-33.752,6.467c-22.433,0-54.231-6.872-96.471-31.259L89.411,43.083v144.236
			c0,75.318,27.284,163.773,76.8,238.888c17.694,27.381,38.567,52.572,62.181,75.048l0.047,0.009
			C210.358,482.254,194.039,461.641,179.685,439.68z"/>
	</g>
	<g>
		<polygon style="fill:#FFFFFF;" points="91.386,44.083 91.386,131.662 91.386,188.332 77.913,188.332 77.913,131.662 
			77.913,44.083 		"/>
		<g>
			<path style="fill:#428DFF;" d="M178.112,325.009l84.342,48.697c2.085,1.204,4.653,1.203,6.737,0
				c2.084-1.204,3.368-3.428,3.368-5.835v-62.604l16.408,28.295c1.208,2.082,3.435,3.362,5.843,3.357
				c2.408-0.005,4.63-1.294,5.829-3.382c1.199-2.087,1.194-4.656-0.014-6.739L229.46,204.081c-1.863-3.194-5.948-4.297-9.164-2.474
				l-71.171,40.54c-2.092,1.192-3.389,3.409-3.403,5.816c-0.014,2.407,1.258,4.639,3.336,5.855c2.078,1.216,4.647,1.231,6.739,0.039
				l18.947-10.792v76.108C174.742,321.581,176.027,323.805,178.112,325.009z M221.158,216.627l37.928,65.405V356.2l-70.868-40.914
				v-79.895L221.158,216.627z"/>
			<path style="fill:#428DFF;" d="M219.039,507.167c0.879,0.818,1.96,1.388,3.132,1.651c9.091,2.051,18.378,3.101,27.697,3.132
				c13.021,0.031,25.947-2.22,38.191-6.651c6.528-2.381,12.785-5.449,18.664-9.153l55.848-32.314l0.908-0.447
				c44.888-22.546,70.638-77.941,70.638-151.967V167.154c0.001-2.407-1.283-4.632-3.368-5.836
				C373.88,128.28,326.833,80.693,294.447,23.45c-0.91-1.73-2.517-2.987-4.414-3.454c-1.686-0.375-3.451-0.108-4.95,0.749
				l-0.063-0.111l-8.194,4.731c-13.849,6.185-53.551,16.128-123.931-24.428c-2.233-1.288-4.993-1.245-7.184,0.112L81.283,38.246
				l3.368,5.836l-0.002,0.001h-6.738V71.03c0,3.721,3.016,6.737,6.737,6.737c3.721,0,6.737-3.016,6.737-6.737V55.437
				c72.713,38.79,114.345,26.076,129.739,17.967c32.847,55.622,79.19,102.063,134.744,135.027v140.381
				c0,64.242-20.63,113.357-56.023,135.754l-0.47,0.266l0.014,0.025c-5.02,3.141-10.357,5.746-15.922,7.771
				c-18.168,6.433-37.781,7.619-56.592,3.421c-22.642-21.801-42.694-46.142-59.757-72.539
				c-47.421-71.974-75.73-159.888-75.73-235.178H77.914c0,77.822,29.145,168.507,77.954,242.586
				C173.843,458.737,195.047,484.332,219.039,507.167z M98.359,43.946l51.062-29.484c40.041,22.528,71.038,29.763,93.829,30.287
				l-22.987,13.272l0.086,0.15c-0.368,0.146-0.723,0.325-1.059,0.535C218.916,59.016,181.834,88.203,98.359,43.946z M232.702,66.401
				l50.188-28.977c1.065-0.488,2.086-0.977,3.004-1.454c31.552,53.4,75.572,98.36,128.294,131.032l-51.528,29.748
				C309.224,164.721,264.57,119.934,232.702,66.401z M369.342,348.811V208.453l51.303-29.618v132.582
				c0,68.75-23.039,119.75-63.184,139.914l-0.875,0.434l0.026,0.055l-14.857,8.573C359.529,432.278,369.342,393.944,369.342,348.811
				z"/>
			<path style="fill:#428DFF;" d="M77.912,188.331h13.474v-63.406c0-3.721-3.016-6.737-6.737-6.737
				c-3.721,0-6.737,3.016-6.737,6.737V188.331z"/>
			<path style="fill:#428DFF;" d="M84.649,104.714c2.724-0.011,5.176-1.654,6.22-4.17c1.045-2.516,0.478-5.413-1.437-7.35
				l-1.01-0.809c-0.376-0.256-0.784-0.461-1.214-0.609c-0.382-0.194-0.791-0.329-1.214-0.401c-0.445-0.076-0.894-0.121-1.345-0.135
				c-1.784,0.025-3.492,0.723-4.783,1.954c-1.634,1.575-2.352,3.875-1.902,6.099c0.45,2.224,2.004,4.065,4.122,4.881
				C82.897,104.52,83.767,104.704,84.649,104.714z"/>
		</g>
	</g>
</g>
<g>
</g>
<g>
</g>
<g>
</g>
<g>
</g>
<g>
</g>
<g>
</g>
<g>
</g>
<g>
</g>
<g>
</g>
<g>
</g>
<g>
</g>
<g>
</g>
<g>
</g>
<g>
</g>
<g>
</g>
</svg>
