<?xml version="1.0" encoding="UTF-8"?>
<svg xmlns="http://www.w3.org/2000/svg" xmlns:xlink="http://www.w3.org/1999/xlink" width="512" height="512" viewBox="0 0 54 60" version="1.1"><!-- Generator: Sketch 51.3 (57544) - http://www.bohemiancoding.com/sketch --><title>029 - Stones</title><desc>Created with Sketch.</desc><defs/><g id="Page-1" stroke="none" stroke-width="1" fill="none" fill-rule="evenodd"><g id="029---Stones" fill-rule="nonzero"><path d="M53,51 C53,56.52 41.36,59 27,59 C26.55,59 26.11,59 25.66,58.99 L25.34,58.99 C11.75,58.8 1,56.31 1,51 C1,47.42 5.88,43.44 13.24,41.08 C13.3,41.06 13.37,41.04 13.43,41.02 L42.41,41.66 C48.84,44.05 53,47.7 53,51 Z" id="Shape" fill="#CAD9FC"/><path d="M50,51 C50,56.31 39.25,58.8 25.66,58.99 L25.34,58.99 C11.75,58.8 1,56.31 1,51 C1,47.42 5.88,43.44 13.24,41.08 L39.41,41.66 C45.84,44.05 50,47.7 50,51 Z" id="Shape" fill="#E8EDFC"/><path d="M50,35.8 C50,38.59 47.05,40.51 42.41,41.66 C38.0079935,42.6308617 33.507076,43.0806178 29,43 C28.5,43 28,43 27.51,42.98 C21.94,42.89 16.97,42.26 13.43,41.02 C10.06,39.85 8,38.12 8,35.8 C8,33.2 10.57,30.37 14.68,28.26 L34.7,26.13 L36.82,25.91 C44.55,27.73 50,32.01 50,35.8 Z" id="Shape" fill="#7FACFA"/><path d="M47,35.8 C47,38.59 44.05,40.51 39.41,41.66 C35.5043528,42.5387128 31.5132754,42.9814206 27.51,42.98 C21.94,42.89 16.97,42.26 13.43,41.02 C10.06,39.85 8,38.12 8,35.8 C8,33.2 10.57,30.37 14.68,28.26 L34.7,26.13 C41.96,28.06 47,32.16 47,35.8 Z" id="Shape" fill="#A4C2F7"/><path d="M38,23.4 C37.9864426,24.3675476 37.5564094,25.2822793 36.82,25.91 C34.54,28.03 29.21,29 23,29 C22.5,29 22,28.99 21.51,28.98 C19.2165971,28.9412017 16.931081,28.7002688 14.68,28.26 C10.65,27.42 8,25.83 8,23.4 C8,20.69 11.31,17.64 16.16,16.08 C16.3297377,16.0128744 16.5033897,15.9561035 16.68,15.91 L32.09,16.95 C35.68,18.63 38,21.13 38,23.4 Z" id="Shape" fill="#7FACFA"/><path d="M35,23.4 C34.9864426,24.3675476 34.5564094,25.2822793 33.82,25.91 C31.73,27.86 27.07,28.83 21.51,28.98 C19.2165971,28.9412017 16.931081,28.7002688 14.68,28.26 C10.65,27.42 8,25.83 8,23.4 C8,20.69 11.31,17.64 16.16,16.08 L29.09,16.95 C32.68,18.63 35,21.13 35,23.4 Z" id="Shape" fill="#7FACFA"/><path d="M49,10.6 C49,15.02 40.05,17 29,17 C28.49,17 27.99,17 27.5,16.99 C17.15,16.81 9,14.82 9,10.6 C9,6.38 17.15,1.47 27.5,1.04 C27.99,1.01 28.49,1 29,1 C40.05,1 49,6.18 49,10.6 Z" id="Shape" fill="#CAD9FC"/><path d="M46,10.6 C46,14.82 37.85,16.81 27.5,16.99 C17.15,16.81 9,14.82 9,10.6 C9,6.38 17.15,1.47 27.5,1.04 C37.85,1.47 46,6.38 46,10.6 Z" id="Shape" fill="#E8EDFC"/><path d="M28.34,58.99 C14.75,58.8 4,56.31 4,51 C4,47.42 8.88,43.44 16.24,41.08 C16.3,41.06 16.37,41.04 16.43,41.02 C13.06,39.85 11,38.12 11,35.8 C11,33.2 13.57,30.37 17.68,28.26 C13.65,27.42 11,25.83 11,23.4 C11,20.69 14.31,17.64 19.16,16.08 C19.3297377,16.0128744 19.5033897,15.9561035 19.68,15.91 L19.7,15.91 C15.018,14.9 12,13.164 12,10.6 C12,6.385 20.132,1.482 30.464,1.042 C29.979,1.022 29.494,1 29,1 C28.49,1 27.99,1.01 27.5,1.04 C17.15,1.47 9,6.38 9,10.6 C9,13.164 12.018,14.9 16.7,15.911 L16.68,15.911 C16.5033897,15.9571035 16.3297377,16.0138744 16.16,16.081 C11.31,17.64 8,20.69 8,23.4 C8,25.83 10.65,27.42 14.68,28.26 C10.57,30.37 8,33.2 8,35.8 C8,38.12 10.06,39.85 13.43,41.02 C13.37,41.04 13.3,41.06 13.24,41.08 C5.88,43.44 1,47.42 1,51 C1,56.31 11.75,58.8 25.34,58.99 L25.66,58.99 C26.11,59 26.55,59 27,59 C27.5053333,59 28.0053333,58.9966667 28.5,58.99 L28.34,58.99 Z" id="Shape" fill="#FFFFFF"/><path d="M2,51 C1.964,52.615 3.571,53.974 5.384,54.825 C7.28416727,55.6841218 9.2813678,56.3100098 11.332,56.689 C16.5002476,57.6296484 21.7472974,58.0686886 27,58 L27,60 C21.6122764,60.0696115 16.230478,59.6171653 10.93,58.649 C8.71503102,58.2368486 6.55849239,57.556508 4.508,56.623 C3.4151852,56.1217349 2.41770415,55.4345286 1.56,54.592 C0.589550462,53.6452418 0.0293982176,52.3554553 0,51 L2,51 Z" id="Shape" fill="#FFFFFF"/><path d="M3.637,54.994 C3.91910515,54.5594251 3.8482507,53.9849979 3.469,53.632 C2.59804281,53.0296054 2.05549666,52.0575282 2,51 L0,51 C0.00117639782,51.8456718 0.225754043,52.6760226 0.651,53.407 C1.0553133,54.0834014 1.57796338,54.6815868 2.194,55.173 C2.400869,55.3607539 2.6793262,55.448967 2.956569,55.4145758 C3.2338118,55.3801846 3.48227576,55.2266085 3.637,54.994 Z" id="Shape" fill="#428DFF"/><path d="M27,60 L27,58 C21.7472974,58.0686886 16.5002476,57.6296484 11.332,56.689 L10.378,56.482 C9.84519001,56.3667441 9.31615056,56.6916625 9.178,57.219 C9.11157221,57.4790619 9.15358785,57.7549502 9.29441948,57.9834481 C9.43525111,58.211946 9.6628268,58.3734669 9.925,58.431 L10.925,58.649 C16.2271194,59.6174872 21.6106079,60.0699347 27,60 Z" id="Shape" fill="#428DFF"/><path d="M6.681,55.385 C6.44206252,55.2987417 6.17974676,55.3033687 5.944,55.398 L5.778,55.491 C5.72155602,55.5282757 5.66984462,55.572264 5.624,55.622 C5.57570154,55.6629675 5.53329998,55.7104168 5.498,55.763 C5.46088968,55.818746 5.42748432,55.8768713 5.398,55.937 C5.29187761,56.1807728 5.28719968,56.4567709 5.385,56.704 C5.62617278,57.2194741 6.23081174,57.453215 6.756,57.234 C6.87428312,57.1737025 6.97960152,57.0908067 7.066,56.99 C7.15478382,56.8927376 7.22283288,56.7784152 7.266,56.654 C7.34503847,56.40367 7.33010622,56.1331118 7.224,55.893 C7.11369382,55.6611362 6.91968867,55.479636 6.681,55.385 Z" id="Shape" fill="#428DFF"/><path d="M1,52 C0.44771525,52 0,51.5522847 0,51 C0,46.871 5.153,42.579 13.129,40.066 C13.4698314,39.9588203 13.8419522,40.0416136 14.1051883,40.2831924 C14.3684243,40.5247711 14.4827836,40.8884339 14.4051883,41.2371924 C14.3275929,41.5859509 14.0698314,41.8668203 13.729,41.974 C6.823,44.149 2,47.861 2,51 C2,51.5522847 1.55228475,52 1,52 Z" id="Shape" fill="#428DFF"/><path d="M27,60 C26.4477153,60 26,59.5522847 26,59 C26,58.4477153 26.4477153,58 27,58 C42.187,58 52,55.252 52,51 C52,48.184 48.006,44.807 42.062,42.6 C41.5442331,42.4067003 41.2812004,41.830267 41.4745,41.3125 C41.6677997,40.7947331 42.2442331,40.5317004 42.762,40.725 C49.692,43.3 54,47.238 54,51 C54,59.123 35.118,60 27,60 Z" id="Shape" fill="#428DFF"/><path d="M5,52.039 L4.96,52.039 C4.40139574,52.0020263 3.97483954,51.5252609 4,50.966 C4.056,49.404 7.377,46.072 14.33,43.881 C14.8568796,43.7153146 15.4183145,44.0081204 15.5839999,44.535 C15.7496854,45.0618796 15.4568796,45.6233146 14.93,45.789 C8.291,47.88 6.112,50.683 5.987,51.112 C5.96745158,51.6391862 5.52737548,52.0525099 5,52.039 Z" id="Shape" fill="#A4C2F7"/><path d="M29,44 C22.4,44 16.9,43.3 13.1,41.964 C8.06,40.214 7,37.646 7,35.8 C7,32.844 9.7,29.693 14.223,27.37 C14.7142573,27.1176059 15.3171058,27.3112427 15.5695,27.8025 C15.8218941,28.2937573 15.6282573,28.8966059 15.137,29.149 C11.352,31.093 9,33.642 9,35.8 C9,37.958 11.587,39.322 13.758,40.075 C17.35,41.335 22.619,42 29,42 C33.4254733,42.0801346 37.8450539,41.6404589 42.168,40.69 C45.285,39.917 49,38.441 49,35.8 C49,32.853 44.358,28.712 36.591,26.883 C36.2356505,26.8083284 35.948701,26.5469004 35.8413478,26.2000223 C35.7339945,25.8531441 35.8231089,25.4753304 36.074158,25.2129881 C36.3252071,24.9506458 36.6987367,24.845004 37.05,24.937 C45.133,26.84 51,31.409 51,35.8 C51,37.972 49.552,40.92 42.65,42.631 C38.1693735,43.620694 33.5879275,44.0801812 29,44 Z" id="Shape" fill="#428DFF"/><path d="M45.993,36.735 C45.5009038,36.73455 45.0822747,36.3761492 45.006,35.89 C44.806,35.214 41.998,32.266 35.674,30.777 C35.1363508,30.6502506 34.8032507,30.1116492 34.93,29.574 C35.0567494,29.0363508 35.5953508,28.7032507 36.133,28.83 C42.821,30.405 46.733,33.772 46.984,35.598 C47.0599381,36.1450378 46.6780375,36.6500599 46.131,36.726 C46.08524,36.7319505 46.0391452,36.7349567 45.993,36.735 Z" id="Shape" fill="#A4C2F7"/><path d="M29,18 C22.686,18 8,17.279 8,10.6 C8,5.151 18.206,0 29,0 C39.794,0 50,5.151 50,10.6 C50,17.279 35.314,18 29,18 Z M29,2 C17.979,2 10,7.137 10,10.6 C10,13.83 17.636,16 29,16 C40.364,16 48,13.83 48,10.6 C48,7.137 40.021,2 29,2 Z" id="Shape" fill="#428DFF"/><path d="M13.123,11.4 C12.7655603,11.4003485 12.4351141,11.2098872 12.2562434,10.9004223 C12.0773727,10.5909574 12.0772799,10.2095519 12.256,9.9 C13.071,8.478 16.071,6.363 20.734,5.08 C21.2666786,4.93309228 21.8175922,5.24582138 21.9645,5.77850001 C22.1114077,6.31117864 21.7986786,6.86209224 21.266,7.009 C16.738,8.254 14.41,10.164 13.992,10.894 C13.8143715,11.2066341 13.4825718,11.3998339 13.123,11.4 Z" id="Shape" fill="#A4C2F7"/><path d="M23,30 C20.139483,30.0365714 17.2826962,29.7812499 14.474,29.238 C8.3,27.951 7,25.353 7,23.4 C7,20.054 10.864,16.579 16.4,14.951 C16.9299172,14.7949796 17.4859796,15.0980828 17.642,15.628 C17.7980204,16.1579172 17.4949172,16.7139796 16.965,16.87 C11.79,18.392 9,21.37 9,23.4 C9,25.709 12.687,26.823 14.884,27.281 C17.5585305,27.791124 20.2774431,28.0319936 23,28 C29.421,28 34.21,26.971 36.14,25.178 C36.6704455,24.737702 36.984124,24.0891899 37,23.4 C37,21.577 34.856,19.349 31.666,17.856 C31.3423174,17.7045194 31.1240362,17.3918629 31.093381,17.0358052 C31.0627257,16.6797475 31.2243536,16.3343823 31.517381,16.1298052 C31.8104084,15.9252282 32.1903174,15.8925194 32.514,16.044 C36.515,17.917 39,20.735 39,23.4 C38.9887694,24.6456456 38.4423426,25.8262917 37.5,26.641 C34.358,29.564 27.066,30 23,30 Z" id="Shape" fill="#428DFF"/><path d="M12.144,24.167 C11.7789174,24.1671525 11.4427657,23.9683375 11.2670414,23.6483276 C11.091317,23.3283178 11.1039506,22.9379772 11.3,22.63 C12.026,21.489 14.093,19.798 17.525,18.788 C17.8677963,18.6870725 18.2383974,18.7766912 18.4972014,19.0230978 C18.7560054,19.2695044 18.8636938,19.6352637 18.7797014,19.9825978 C18.695709,20.3299319 18.4327963,20.6060725 18.09,20.707 C14.98,21.622 13.39,23.067 12.99,23.707 C12.8052557,23.9949567 12.4861218,24.168481 12.144,24.167 Z" id="Shape" fill="#7FACFA"/><path d="M32.984,10 C32.594,10 32.199,9.988 31.806,9.964 C28.328,9.75 24.876,8.607 25.006,6.539 C25.136,4.471 28.7,3.76 32.175,3.975 C33.7169668,4.04614007 35.2386387,4.35546685 36.686,4.892 C38.658,5.692 39.021,6.692 38.977,7.401 C38.863,9.235 36.045,10 32.984,10 Z M27.09,6.667 C27.536,7.067 29.17,7.797 31.929,7.967 C34.688,8.137 36.398,7.611 36.89,7.267 C36.444,6.867 34.811,6.138 32.052,5.967 C29.293,5.796 27.583,6.328 27.09,6.667 Z" id="Shape" fill="#428DFF"/></g></g></svg>
