<svg height="512.00003pt" viewBox="0 0 512.00003 512.00003" width="512.00003pt" xmlns="http://www.w3.org/2000/svg"><path d="m443.734375 110.933594v341.332031c0 18.851563-15.28125 34.132813-34.132813 34.132813h-364.972656c-19.917968-.035157-36.058594-16.175782-36.09375-36.09375v-339.371094l25.597656-8.535156h384zm0 0" fill="#9e9e9e"/><path d="m418.132812 110.933594v341.332031c0 18.851563-15.28125 34.132813-34.132812 34.132813h-339.371094c-19.917968-.035157-36.058594-16.175782-36.09375-36.09375v-339.371094l25.597656-8.535156h358.402344zm0 0" fill="#f4f4f4"/><path d="m443.734375 44.628906v66.304688h-435.199219v-66.304688c.035156-19.917968 16.175782-36.058594 36.09375-36.09375h363.007813c19.921875.035156 36.058593 16.175782 36.097656 36.09375zm0 0" fill="#6a1b9a"/><path d="m418.132812 44.628906v66.304688h-409.597656v-66.304688c.035156-19.917968 16.175782-36.058594 36.09375-36.09375h337.410156c19.917969.035156 36.058594 16.175782 36.09375 36.09375zm0 0" fill="#9d27b0"/><path d="m76.800781 59.734375c0 9.425781-7.640625 17.066406-17.066406 17.066406s-17.066406-7.640625-17.066406-17.066406 7.640625-17.066406 17.066406-17.066406 17.066406 7.640625 17.066406 17.066406zm0 0" fill="#e64c3c"/><path d="m145.066406 59.734375c0 9.425781-7.640625 17.066406-17.066406 17.066406s-17.066406-7.640625-17.066406-17.066406 7.640625-17.066406 17.066406-17.066406 17.066406 7.640625 17.066406 17.066406zm0 0" fill="#f3d55b"/><path d="m213.332031 59.734375c0 9.425781-7.640625 17.066406-17.066406 17.066406s-17.066406-7.640625-17.066406-17.066406 7.640625-17.066406 17.066406-17.066406 17.066406 7.640625 17.066406 17.066406zm0 0" fill="#14a085"/><path d="m375.464844 42.667969h17.070312c4.710938 0 8.53125 3.820312 8.53125 8.53125v17.066406c0 4.714844-3.820312 8.535156-8.53125 8.535156h-17.070312c-4.710938 0-8.53125-3.820312-8.53125-8.535156v-17.066406c0-4.710938 3.820312-8.53125 8.53125-8.53125zm0 0" fill="#6a1b9a"/><path d="m128 332.800781c0 14.136719-11.460938 25.597657-25.601562 25.597657-14.136719 0-25.597657-11.460938-25.597657-25.597657 0-14.140625 11.460938-25.601562 25.597657-25.601562 14.140624 0 25.601562 11.460937 25.601562 25.601562zm0 0" fill="#607d8b"/><path d="m224.9375 198.742188-4.523438 15.019531-5.03125 16.636719-10.925781 36.609374c-1.109375 3.59375-4.429687 6.046876-8.191406 6.058594h-128l-6.398437-85.332031h154.878906c2.707031-.007813 5.257812 1.265625 6.871094 3.4375 1.617187 2.171875 2.105468 4.980469 1.320312 7.570313zm0 0" fill="#37474f"/><path d="m197.207031 198.742188-4.523437 15.019531-5.035156 16.636719-10.921876 36.609374c-1.113281 3.59375-4.429687 6.046876-8.191406 6.058594h-100.269531l-6.398437-85.332031h127.144531c2.707031-.007813 5.257812 1.265625 6.871093 3.4375 1.617188 2.171875 2.105469 4.980469 1.324219 7.570313zm0 0" fill="#607d8b"/><path d="m230.398438 452.265625h-119.464844c-14.140625 0-25.601563-11.460937-25.601563-25.597656 0-14.140625 11.460938-25.601563 25.601563-25.601563h119.464844zm0 0" fill="#02a9f4"/><path d="m213.332031 332.800781c0 14.136719-11.460937 25.597657-25.597656 25.597657-14.140625 0-25.601563-11.460938-25.601563-25.597657 0-14.140625 11.460938-25.601562 25.601563-25.601562 14.136719 0 25.597656 11.460937 25.597656 25.601562zm0 0" fill="#7f8c8d"/><path d="m179.199219 273.066406h307.199219c9.425781 0 17.066406 7.640625 17.066406 17.066406v196.265626c0 9.425781-7.640625 17.066406-17.066406 17.066406h-307.199219c-9.425781 0-17.066407-7.640625-17.066407-17.066406v-196.265626c0-9.425781 7.640626-17.066406 17.066407-17.066406zm0 0" fill="#2e7d32"/><path d="m179.199219 273.066406h281.601562c9.425781 0 17.066407 7.640625 17.066407 17.066406v196.265626c0 9.425781-7.640626 17.066406-17.066407 17.066406h-281.601562c-9.425781 0-17.066407-7.640625-17.066407-17.066406v-196.265626c0-9.425781 7.640626-17.066406 17.066407-17.066406zm0 0" fill="#4caf50"/><path d="m162.132812 315.734375h341.332032v51.199219h-341.332032zm0 0" fill="#37474f"/><path d="m162.132812 315.734375h315.734376v51.199219h-315.734376zm0 0" fill="#607d8b"/><path d="m435.199219 443.734375c0 9.425781-7.640625 17.066406-17.066407 17.066406-9.425781 0-17.066406-7.640625-17.066406-17.066406s7.640625-17.066406 17.066406-17.066406c9.425782 0 17.066407 7.640625 17.066407 17.066406zm0 0" fill="#e91e63"/><path d="m469.332031 443.734375c0 9.425781-7.640625 17.066406-17.066406 17.066406s-17.066406-7.640625-17.066406-17.066406 7.640625-17.066406 17.066406-17.066406 17.066406 7.640625 17.066406 17.066406zm0 0" fill="#ffeb3a"/><path d="m452.265625 418.132812c-6.316406.023438-12.402344 2.394532-17.066406 6.65625-10.226563-9.296874-25.988281-8.796874-35.605469 1.132813-9.617188 9.925781-9.617188 25.695313 0 35.625 9.617188 9.925781 25.378906 10.425781 35.605469 1.128906 8.476562 7.707031 21.039062 8.839844 30.761719 2.78125 9.71875-6.058593 14.230468-17.835937 11.046874-28.839843-3.183593-11.003907-13.285156-18.550782-24.742187-18.484376zm-34.132813 34.132813c-4.710937 0-8.53125-3.820313-8.53125-8.53125 0-4.714844 3.820313-8.535156 8.53125-8.535156 4.714844 0 8.535157 3.820312 8.535157 8.535156 0 4.710937-3.820313 8.53125-8.535157 8.53125zm34.132813 0c-4.710937 0-8.53125-3.820313-8.53125-8.53125 0-4.714844 3.820313-8.535156 8.53125-8.535156 4.714844 0 8.535156 3.820312 8.535156 8.535156 0 4.710937-3.820312 8.53125-8.535156 8.53125zm0 0"/><path d="m59.734375 85.332031c14.136719 0 25.597656-11.460937 25.597656-25.597656 0-14.140625-11.460937-25.601563-25.597656-25.601563-14.140625 0-25.601563 11.460938-25.601563 25.601563 0 14.136719 11.460938 25.597656 25.601563 25.597656zm0-34.132812c4.710937 0 8.53125 3.820312 8.53125 8.535156 0 4.710937-3.820313 8.53125-8.53125 8.53125-4.714844 0-8.535156-3.820313-8.535156-8.53125 0-4.714844 3.820312-8.535156 8.535156-8.535156zm0 0"/><path d="m128 85.332031c14.136719 0 25.601562-11.460937 25.601562-25.597656 0-14.140625-11.464843-25.601563-25.601562-25.601563s-25.601562 11.460938-25.601562 25.601563c0 14.136719 11.464843 25.597656 25.601562 25.597656zm0-34.132812c4.710938 0 8.535156 3.820312 8.535156 8.535156 0 4.710937-3.824218 8.53125-8.535156 8.53125s-8.535156-3.820313-8.535156-8.53125c0-4.714844 3.824218-8.535156 8.535156-8.535156zm0 0"/><path d="m196.265625 85.332031c14.140625 0 25.601563-11.460937 25.601563-25.597656 0-14.140625-11.460938-25.601563-25.601563-25.601563-14.136719 0-25.597656 11.460938-25.597656 25.601563 0 14.136719 11.460937 25.597656 25.597656 25.597656zm0-34.132812c4.714844 0 8.535156 3.820312 8.535156 8.535156 0 4.710937-3.820312 8.53125-8.535156 8.53125-4.710937 0-8.53125-3.820313-8.53125-8.53125 0-4.714844 3.820313-8.535156 8.53125-8.535156zm0 0"/><path d="m375.464844 85.332031h17.070312c9.425782 0 17.066406-7.640625 17.066406-17.066406v-17.066406c0-9.425781-7.640624-17.066407-17.066406-17.066407h-17.070312c-9.425782 0-17.066406 7.640626-17.066406 17.066407v17.066406c0 9.425781 7.640624 17.066406 17.066406 17.066406zm0-34.132812h17.070312v17.066406h-17.070312zm0 0"/><path d="m486.398438 264.535156h-34.132813v-219.90625c-.03125-24.632812-19.992187-44.597656-44.628906-44.628906h-363.007813c-24.636718.0273438-44.6015622 19.992188-44.628906 44.628906v405.675782c.0273438 24.636718 19.992188 44.601562 44.628906 44.628906h110.542969c3.601563 10.191406 13.21875 17.023437 24.027344 17.066406h307.199219c14.140624 0 25.601562-11.460938 25.601562-25.601562v-196.265626c0-14.136718-11.460938-25.597656-25.601562-25.597656zm8.535156 25.597656v17.066407h-324.265625v-17.066407c0-4.710937 3.820312-8.53125 8.53125-8.53125h307.199219c4.714843 0 8.535156 3.820313 8.535156 8.53125zm0 68.265626h-37.394532l17.066407-34.132813h20.328125zm-80.058594 0 17.066406-34.132813h23.585938l-17.066406 34.132813zm-42.667969 0 17.066407-34.132813h23.585937l-17.066406 34.132813zm-42.667969 0 17.066407-34.132813h23.585937l-17.066406 34.132813zm-42.664062 0 17.066406-34.132813h23.585938l-17.066406 34.132813zm-42.667969 0 17.066407-34.132813h23.585937l-17.066406 34.132813zm-42.667969 0 17.066407-34.132813h23.585937l-17.066406 34.132813zm-30.871093 0v-34.132813h28.859375l-17.066406 34.132813zm-51.203125-25.597657c0 9.425781-7.640625 17.066407-17.066406 17.066407-9.425782 0-17.066407-7.640626-17.066407-17.066407s7.640625-17.066406 17.066407-17.066406c9.425781 0 17.066406 7.640625 17.066406 17.066406zm-34.132813-34.132812c-2.339843-.042969-4.570312-1.027344-6.175781-2.734375-1.605469-1.707032-2.457031-3.988282-2.355469-6.328125l-.519531-8.003907h78.890625c-1.011719 2.730469-1.542969 5.617188-1.570313 8.53125v8.535157zm128.480469-85.335938h-94.347656c-4.710938 0-8.53125 3.820313-8.53125 8.535157 0 4.710937 3.820312 8.53125 8.53125 8.53125h89.226562l-10.238281 34.136718h-123.242187l-4.265626-68.269531h147.984376zm-60.210938 230.402344h-42.667968c-9.425782 0-17.066406-7.640625-17.066406-17.066406s7.640624-17.066407 17.066406-17.066407h42.667968zm-108.972656-426.667969h363.007813c15.214843.019532 27.542969 12.347656 27.5625 27.5625v57.769532h-418.132813v-57.769532c.019532-15.214844 12.347656-27.542968 27.5625-27.5625zm-27.5625 433.238282v-330.839844h418.132813v145.070312h-218.929688l22.304688-74.351562c.773437-2.585938.28125-5.382813-1.328125-7.546875-1.609375-2.160157-4.148438-3.4375-6.847656-3.4375h-160.519532l-1.613281-26.128907c-.277344-4.503906-4.019531-8.011718-8.53125-8.003906h-17.066406c-4.714844 0-8.535157 3.820313-8.535157 8.535156 0 4.710938 3.820313 8.53125 8.535157 8.53125h9.050781l8.015625 128c.035156 9.914063 5.789063 18.914063 14.769531 23.109376-9.914062 13.878906-8.085937 32.941406 4.285156 44.683593 12.375 11.742188 31.503907 12.574219 44.847657 1.953125 13.347656-10.625 16.824219-29.457031 8.152343-44.144531h21.8125v76.800781h-42.667968c-18.851563 0-34.132813 15.28125-34.132813 34.132813 0 18.851562 15.28125 34.132812 34.132813 34.132812h42.667968v17.066407h-108.972656c-15.214844-.019532-27.542968-12.347657-27.5625-27.5625zm469.332032 44.628906h-307.199219c-4.710938 0-8.53125-3.820313-8.53125-8.535156v-110.933594h324.265625v110.933594c0 4.714843-3.820313 8.535156-8.535156 8.535156zm0 0"/><path d="m273.066406 213.332031h17.066406c4.714844 0 8.535157-3.820312 8.535157-8.53125 0-4.714843-3.820313-8.535156-8.535157-8.535156h-17.066406c-4.710937 0-8.53125 3.820313-8.53125 8.535156 0 4.710938 3.820313 8.53125 8.53125 8.53125zm0 0"/><path d="m324.265625 213.332031h85.335937c4.710938 0 8.53125-3.820312 8.53125-8.53125 0-4.714843-3.820312-8.535156-8.53125-8.535156h-85.335937c-4.710937 0-8.53125 3.820313-8.53125 8.535156 0 4.710938 3.820313 8.53125 8.53125 8.53125zm0 0"/><path d="m273.066406 179.199219h17.066406c4.714844 0 8.535157-3.820313 8.535157-8.53125 0-4.714844-3.820313-8.535157-8.535157-8.535157h-17.066406c-4.710937 0-8.53125 3.820313-8.53125 8.535157 0 4.710937 3.820313 8.53125 8.53125 8.53125zm0 0"/><path d="m324.265625 179.199219h85.335937c4.710938 0 8.53125-3.820313 8.53125-8.53125 0-4.714844-3.820312-8.535157-8.53125-8.535157h-85.335937c-4.710937 0-8.53125 3.820313-8.53125 8.535157 0 4.710937 3.820313 8.53125 8.53125 8.53125zm0 0"/><path d="m273.066406 247.464844h17.066406c4.714844 0 8.535157-3.820313 8.535157-8.53125 0-4.714844-3.820313-8.535156-8.535157-8.535156h-17.066406c-4.710937 0-8.53125 3.820312-8.53125 8.535156 0 4.710937 3.820313 8.53125 8.53125 8.53125zm0 0"/><path d="m324.265625 247.464844h85.335937c4.710938 0 8.53125-3.820313 8.53125-8.53125 0-4.714844-3.820312-8.535156-8.53125-8.535156h-85.335937c-4.710937 0-8.53125 3.820312-8.53125 8.535156 0 4.710937 3.820313 8.53125 8.53125 8.53125zm0 0"/><path d="m332.800781 392.535156h-136.535156c-4.710937 0-8.53125 3.820313-8.53125 8.53125 0 4.714844 3.820313 8.535156 8.53125 8.535156h136.535156c4.710938 0 8.53125-3.820312 8.53125-8.535156 0-4.710937-3.820312-8.53125-8.53125-8.53125zm0 0"/><path d="m230.398438 426.667969h-34.132813c-4.710937 0-8.53125 3.820312-8.53125 8.53125 0 4.714843 3.820313 8.535156 8.53125 8.535156h34.132813c4.714843 0 8.535156-3.820313 8.535156-8.535156 0-4.710938-3.820313-8.53125-8.535156-8.53125zm0 0"/><path d="m290.132812 426.667969h-25.597656c-4.714844 0-8.535156 3.820312-8.535156 8.53125 0 4.714843 3.820312 8.535156 8.535156 8.535156h25.597656c4.714844 0 8.535157-3.820313 8.535157-8.535156 0-4.710938-3.820313-8.53125-8.535157-8.53125zm0 0"/><path d="m204.800781 460.800781h-8.535156c-4.710937 0-8.53125 3.820313-8.53125 8.53125 0 4.714844 3.820313 8.535157 8.53125 8.535157h8.535156c4.710938 0 8.53125-3.820313 8.53125-8.535157 0-4.710937-3.820312-8.53125-8.53125-8.53125zm0 0"/></svg>