<svg height="512pt" viewBox="-94 0 512 512" width="512pt" xmlns="http://www.w3.org/2000/svg"><path d="m42.667969 8.535156h238.933593c18.851563 0 34.132813 15.28125 34.132813 34.132813v426.664062c0 18.851563-15.28125 34.132813-34.132813 34.132813h-238.933593c-18.851563 0-34.132813-15.28125-34.132813-34.132813v-426.664062c0-18.851563 15.28125-34.132813 34.132813-34.132813zm0 0" fill="#37474f"/><path d="m42.667969 8.535156h213.332031c18.851562 0 34.132812 15.28125 34.132812 34.132813v426.664062c0 18.851563-15.28125 34.132813-34.132812 34.132813h-213.332031c-18.851563 0-34.132813-15.28125-34.132813-34.132813v-426.664062c0-18.851563 15.28125-34.132813 34.132813-34.132813zm0 0" fill="#607d8b"/><path d="m8.535156 68.265625h307.199219v366.933594h-307.199219zm0 0" fill="#00838f"/><path d="m8.535156 68.265625h281.597656v366.933594h-281.597656zm0 0" fill="#00bcd4"/><g fill="#2c2f38"><path d="m170.667969 477.867188h-17.066407c-4.714843 0-8.535156-3.820313-8.535156-8.535157 0-4.710937 3.820313-8.53125 8.535156-8.53125h17.066407c4.710937 0 8.53125 3.820313 8.53125 8.53125 0 4.714844-3.820313 8.535157-8.53125 8.535157zm0 0"/><path d="m85.332031 477.867188h-17.066406c-4.710937 0-8.53125-3.820313-8.53125-8.535157 0-4.710937 3.820313-8.53125 8.53125-8.53125h17.066406c4.714844 0 8.535157 3.820313 8.535157 8.53125 0 4.714844-3.820313 8.535157-8.535157 8.535157zm0 0"/><path d="m256 477.867188h-17.066406c-4.714844 0-8.535156-3.820313-8.535156-8.535157 0-4.710937 3.820312-8.53125 8.535156-8.53125h17.066406c4.710938 0 8.535156 3.820313 8.535156 8.53125 0 4.714844-3.824218 8.535157-8.535156 8.535157zm0 0"/></g><path d="m59.734375 110.933594h-17.066406c-4.714844 0-8.535157-3.820313-8.535157-8.535156 0-4.710938 3.820313-8.53125 8.535157-8.53125h17.066406c4.710937 0 8.53125 3.820312 8.53125 8.53125 0 4.714843-3.820313 8.535156-8.53125 8.535156zm0 0" fill="#fff"/><path d="m281.601562 409.601562h-17.066406c-4.714844 0-8.535156-3.820312-8.535156-8.535156 0-4.710937 3.820312-8.53125 8.535156-8.53125h17.066406c4.710938 0 8.53125 3.820313 8.53125 8.53125 0 4.714844-3.820312 8.535156-8.53125 8.535156zm0 0" fill="#fff"/><path d="m212.566406 358.398438c-4.128906 24.636718-25.457031 42.679687-50.433594 42.667968-4.179687.03125-8.34375-.515625-12.371093-1.621094-19.757813-4.835937-34.726563-20.980468-38.058594-41.046874zm0 0" fill="#d84315"/><path d="m187.734375 358.398438c-3.328125 20.039062-18.253906 36.175781-37.972656 41.046874-19.757813-4.835937-34.726563-20.980468-38.058594-41.046874zm0 0" fill="#ff5722"/><path d="m187.734375 128v12.542969h-.171875c-6.382812-2.109375-13.003906-3.402344-19.710938-3.839844-1.878906-.085937-3.839843-.167969-5.71875-.167969-4.257812-.011718-8.511718.332032-12.714843 1.023438-4.367188.613281-8.675781 1.582031-12.882813 2.898437v-12.457031c0-14.136719 11.460938-25.601562 25.597656-25.601562 14.140626 0 25.601563 11.464843 25.601563 25.601562zm0 0" fill="#f57c00"/><path d="m162.132812 128v12.542969h-.171874c-4.074219-1.394531-8.273438-2.394531-12.542969-2.984375-2.371094-.410156-4.765625-.695313-7.167969-.855469-1.875-.085937-3.839844-.167969-5.714844-.167969v-8.535156c-.015625-9.152344 4.867188-17.617188 12.796875-22.1875 7.933594 4.570312 12.8125 13.035156 12.800781 22.1875zm0 0" fill="#fec108"/><path d="m187.5625 140.542969-51.027344-.085938c10.121094-3.15625 20.734375-4.429687 31.316406-3.753906 6.707032.4375 13.328126 1.730469 19.710938 3.839844zm0 0" fill="#f3d55b"/><path d="m273.066406 337.066406v8.535156c.003906 3.394532-1.34375 6.652344-3.742187 9.054688-2.402344 2.402344-5.660157 3.75-9.058594 3.742188h-196.265625c-3.394531.007812-6.65625-1.339844-9.054688-3.742188-2.402343-2.402344-3.75-5.660156-3.746093-9.054688v-8.535156c-.003907-3.394531 1.34375-6.65625 3.746093-9.054687 2.398438-2.402344 5.660157-3.75 9.054688-3.746094s6.65625-1.339844 9.054688-3.742187c2.402343-2.402344 3.75-5.660157 3.746093-9.058594v-89.597656c0-37.242188 24.136719-70.1875 59.648438-81.410157l25.511719.085938h25.773437c8.492187 2.75 16.476563 6.875 23.636719 12.203125 22.738281 16.953125 36.121094 43.660156 36.09375 72.023437v86.695313c-.003906 3.398437 1.34375 6.65625 3.746094 9.058594 2.402343 2.402343 5.660156 3.746093 9.054687 3.742187 3.398437-.003906 6.65625 1.34375 9.058594 3.746094 2.398437 2.398437 3.746093 5.660156 3.742187 9.054687zm0 0" fill="#f57c00"/><path d="m247.464844 354.132812v4.265626h-183.464844c-3.394531.007812-6.65625-1.339844-9.054688-3.742188-2.402343-2.402344-3.75-5.660156-3.746093-9.054688v-8.535156c-.003907-3.394531 1.34375-6.65625 3.746093-9.054687 2.398438-2.402344 5.660157-3.75 9.054688-3.746094s6.65625-1.339844 9.054688-3.742187c2.402343-2.402344 3.75-5.660157 3.746093-9.058594v-89.597656c0-37.242188 24.136719-70.1875 59.648438-81.410157l25.511719.085938h.171874c8.492188 2.75 16.476563 6.875 23.636719 12.203125 22.738281 16.953125 36.121094 43.660156 36.097657 72.023437v103.765625c-.003907 3.394532 1.34375 6.652344 3.742187 9.054688 2.402344 2.402344 5.660156 3.746094 9.058594 3.742187 3.394531-.003906 6.652343 1.34375 9.054687 3.746094s3.75 5.660156 3.742188 9.054687zm0 0" fill="#fec108"/><path d="m110.933594 256c-2.265625 0-4.433594-.898438-6.035156-2.496094-1.601563-1.601562-2.5-3.773437-2.5-6.039062v-25.597656c.042968-32.972657 26.761718-59.695313 59.734374-59.734376 4.714844 0 8.535157 3.820313 8.535157 8.535157 0 4.710937-3.820313 8.53125-8.535157 8.53125-23.550781.027343-42.636718 19.113281-42.667968 42.667969v25.597656c.003906 2.265625-.894532 4.4375-2.496094 6.039062-1.601562 1.597656-3.773438 2.496094-6.035156 2.496094zm0 0" fill="#fff"/><path d="m42.667969 512h238.933593c23.550782-.027344 42.636719-19.113281 42.664063-42.667969v-426.664062c-.027344-23.554688-19.113281-42.6406252-42.664063-42.667969h-238.933593c-23.554688.0273438-42.6406252 19.113281-42.667969 42.667969v426.664062c.0273438 23.554688 19.113281 42.640625 42.667969 42.667969zm-25.601563-469.332031c.015625-14.132813 11.46875-25.585938 25.601563-25.601563h110.933593v8.535156c0 4.710938 3.820313 8.53125 8.53125 8.53125 4.714844 0 8.535157-3.820312 8.535157-8.53125v-8.535156h110.933593c14.128907.015625 25.582032 11.46875 25.597657 25.601563v17.066406h-290.132813zm0 34.132812h290.132813v349.867188h-290.132813zm0 366.933594h290.132813v25.597656c-.015625 14.132813-11.46875 25.585938-25.597657 25.601563h-238.933593c-14.132813-.015625-25.585938-11.46875-25.601563-25.601563zm0 0"/><path d="m153.601562 477.867188h17.066407c4.710937 0 8.53125-3.820313 8.53125-8.535157 0-4.710937-3.820313-8.53125-8.53125-8.53125h-17.066407c-4.714843 0-8.535156 3.820313-8.535156 8.53125 0 4.714844 3.820313 8.535157 8.535156 8.535157zm0 0"/><path d="m68.265625 477.867188h17.066406c4.714844 0 8.535157-3.820313 8.535157-8.535157 0-4.710937-3.820313-8.53125-8.535157-8.53125h-17.066406c-4.710937 0-8.53125 3.820313-8.53125 8.53125 0 4.714844 3.820313 8.535157 8.53125 8.535157zm0 0"/><path d="m238.933594 477.867188h17.066406c4.710938 0 8.535156-3.820313 8.535156-8.535157 0-4.710937-3.824218-8.53125-8.535156-8.53125h-17.066406c-4.714844 0-8.535156 3.820313-8.535156 8.53125 0 4.714844 3.820312 8.535157 8.535156 8.535157zm0 0"/><path d="m59.734375 110.933594c4.710937 0 8.53125-3.820313 8.53125-8.535156 0-4.710938-3.820313-8.53125-8.53125-8.53125h-17.066406c-4.714844 0-8.535157 3.820312-8.535157 8.53125 0 4.714843 3.820313 8.535156 8.535157 8.535156zm0 0"/><path d="m281.601562 392.535156h-17.066406c-4.714844 0-8.535156 3.820313-8.535156 8.53125 0 4.714844 3.820312 8.535156 8.535156 8.535156h17.066406c4.710938 0 8.53125-3.820312 8.53125-8.535156 0-4.710937-3.820312-8.53125-8.53125-8.53125zm0 0"/><path d="m281.601562 345.601562v-8.535156c-.011718-11.777344-9.558593-21.320312-21.335937-21.332031-2.351563-.003906-4.261719-1.914063-4.265625-4.269531v-86.671875c.269531-39.40625-23.34375-75.054688-59.734375-90.179688v-6.613281c0-18.851562-15.28125-34.132812-34.132813-34.132812-18.851562 0-34.132812 15.28125-34.132812 34.132812v6.457031c-36.03125 14.03125-59.753906 48.742188-59.734375 87.410157v89.597656c-.003906 2.355468-1.910156 4.265625-4.265625 4.269531-11.777344.011719-21.324219 9.554687-21.332031 21.332031v8.535156c.007812 11.777344 9.554687 21.320313 21.332031 21.332032h40.972656c7.507813 25.308594 30.761719 42.667968 57.160156 42.667968 26.398438 0 49.65625-17.359374 57.164063-42.667968h40.96875c11.777344-.011719 21.324219-9.554688 21.335937-21.332032zm-136.535156-217.601562c0-9.425781 7.640625-17.066406 17.066406-17.066406 9.425782 0 17.066407 7.640625 17.066407 17.066406v1.632812c-3.578125-.695312-7.195313-1.175781-10.832031-1.433593-7.796876-.46875-15.621094.019531-23.300782 1.449219zm17.066406 264.535156c-16.933593.027344-32.257812-10.042968-38.941406-25.601562h77.886719c-6.6875 15.558594-22.007813 25.628906-38.945313 25.601562zm-98.132812-42.667968c-2.355469-.003907-4.261719-1.914063-4.265625-4.265626v-8.535156c.003906-2.355468 1.910156-4.261718 4.265625-4.265625 11.777344-.011719 21.324219-9.554687 21.332031-21.335937v-89.597656c.003907-42.398438 34.363281-76.773438 76.757813-76.800782 1.71875 0 3.445312.050782 5.175781.167969 41.074219 3.582031 72.378906 38.332031 71.667969 79.558594v86.671875c.011718 11.78125 9.554687 21.324218 21.332031 21.335937 2.355469.003907 4.261719 1.910157 4.269531 4.265625v8.535156c-.007812 2.351563-1.914062 4.261719-4.269531 4.265626zm0 0"/><path d="m162.132812 162.132812c-32.972656.039063-59.691406 26.761719-59.734374 59.734376v25.597656c0 4.714844 3.820312 8.535156 8.535156 8.535156 4.710937 0 8.53125-3.820312 8.53125-8.535156v-25.597656c.03125-23.554688 19.117187-42.640626 42.667968-42.667969 4.714844 0 8.535157-3.820313 8.535157-8.53125 0-4.714844-3.820313-8.535157-8.535157-8.535157zm0 0"/></svg>