<svg height="496pt" viewBox="0 0 496 496" width="496pt" xmlns="http://www.w3.org/2000/svg"><path d="m232 120c0 61.855469-50.144531 112-112 112s-112-50.144531-112-112 50.144531-112 112-112 112 50.144531 112 112zm0 0" fill="#ffc729"/><path d="m480 216-26.800781 17.839844c-4.320313 2.878906-8.71875 5.679687-13.199219 8.398437-15.441406 9.363281-31.441406 17.601563-48 24.5625-15.601562 6.640625-31.679688 12.160157-48 16.480469v.078125c-15.761719 4.160156-31.761719 7.359375-48 9.441406-15.839844 2.160157-31.921875 3.199219-48 3.199219v144h240v-224zm0 0" fill="#b4dd7f"/><path d="m205.441406 192.320312c-5.679687-5.199218-13.203125-8.320312-21.441406-8.320312h-144c-3.679688 0-7.28125.640625-10.558594 1.839844-12.480468 4.320312-21.441406 16.160156-21.441406 30.160156v240c0 17.679688 14.320312 32 32 32h144c17.679688 0 32-14.320312 32-32v-240c0-9.441406-4.078125-17.921875-10.558594-23.679688zm0 0" fill="#ccd1d9"/><path d="m40 312h144v144h-144zm0 0" fill="#fcd770"/><path d="m40 216h144v64h-144zm0 0" fill="#69d6f4"/><path d="m167.921875 184h-95.84375c-19.4375-14.558594-32.078125-37.839844-32.078125-64 0-44.160156 35.839844-80 80-80s80 35.839844 80 80c0 26.160156-12.640625 49.441406-32.078125 64zm0 0" fill="#fcd770"/><path d="m192 208h-160v80h160zm-16 64h-128v-48h128zm0 0"/><path d="m32 464h160v-160h-160zm16-48h32v32h-32zm80-48v32h-32v-32zm-32-16v-32h32v32zm48 16h32v32h-32zm-16 48v32h-32v-32zm-48-16h-32v-32h32zm64 48v-32h32v32zm32-96h-32v-32h32zm-96-32v32h-32v-32zm0 0"/><path d="m208 456c0 13.230469-10.769531 24-24 24h-144c-13.230469 0-24-10.769531-24-24v-240c0-13.230469 10.769531-24 24-24h144c13.230469 0 24 10.769531 24 24v40h8c90.878906 0 178.824219-31.503906 249.054688-88.808594l-8.742188 30.609375 15.382812 4.398438 19.394532-67.863281-68.21875 9.742187 2.265625 15.832031 28.566406-4.078125c-65.101563 52.664063-145.902344 82.3125-229.703125 84.078125v-23.910156c0-9.015625-3.113281-17.257812-8.167969-23.953125 7.390625-9.800781 13.265625-20.496094 17.335938-32.046875h38.832031v-16h-50.601562l-1.703126 5.71875c-3.421874 11.496094-8.839843 22.097656-15.925781 31.722656-4.890625-2.808594-10.394531-4.570312-16.289062-5.089844 3.222656-3.855468 6.191406-7.9375 8.742187-12.34375l-13.847656-8.015624c-4.472656 7.734374-10.304688 14.414062-17.238281 20.007812h-37.136719v-17.472656c9.289062-3.3125 16-12.113282 16-22.527344 0-13.230469-10.769531-24-24-24-4.40625 0-8-3.59375-8-8s3.59375-8 8-8 8 3.59375 8 8h16c0-10.414062-6.710938-19.214844-16-22.527344v-17.472656h-16v17.472656c-9.289062 3.3125-16 12.113282-16 22.527344 0 13.230469 10.769531 24 24 24 4.40625 0 8 3.59375 8 8s-3.59375 8-8 8-8-3.59375-8-8h-16c0 10.414062 6.710938 19.214844 16 22.527344v17.472656h-37.105469c-17.070312-13.753906-26.894531-33.976562-26.894531-56 0-39.695312 32.304688-72 72-72s72 32.304688 72 72v8h160v-16h-144.359375c-4.054687-44.792969-41.808594-80-87.640625-80-48.519531 0-88 39.480469-88 88 0 20.847656 7.160156 40.425781 20.078125 56h-12.078125c-2.433594 0-4.792969.304688-7.105469.71875-11.023437-16.886719-16.894531-36.359375-16.894531-56.71875 0-57.34375 46.65625-104 104-104 45.679688 0 86.679688 30.542969 99.695312 74.28125l1.703126 5.71875h146.601562v-16h-134.832031c-16.785157-47.390625-62.472657-80-113.167969-80-66.167969 0-120 53.832031-120 120 0 22.414062 6.105469 43.945312 17.726562 62.800781-10.679687 7.191407-17.726562 19.382813-17.726562 33.199219v240c0 22.054688 17.945312 40 40 40h144c22.054688 0 40-17.945312 40-40v-184h-16zm0 0"/><path d="m477.574219 208-28.820313 19.214844c-59.648437 39.769531-129.074218 60.785156-200.753906 60.785156h-8v160h256v-240zm-125.574219 81.414062c10.816406-3.09375 21.496094-6.660156 32-10.71875v153.304688h-32zm-16 142.585938h-32v-132.199219c10.769531-1.609375 21.449219-3.625 32-6.144531zm64-159.894531c10.886719-4.792969 21.558594-10.121094 32-15.953125v175.847656h-32zm-144 31.816406c10.734375-.226563 21.398438-.960937 32-2.082031v130.160156h-32zm224 128.078125h-32v-185.296875c3.230469-2.015625 6.449219-4.054687 9.632812-6.175781l22.367188-14.910156zm0 0"/><path d="m320 144h16v16h-16zm0 0"/><path d="m288 144h16v16h-16zm0 0"/></svg>