<svg height="512pt" viewBox="-2 0 512 512" width="512pt" xmlns="http://www.w3.org/2000/svg"><path d="m242.089844 131.878906v-33.824218h-138.746094c3.585938 4.691406 5.722656 10.550781 5.722656 16.914062 0 6.359375-2.136718 12.21875-5.722656 16.914062h138.746094zm0 0" fill="#ff9052"/><path d="m404.664062 98.054688h-138.746093v33.824218h138.746093c-3.585937-4.691406-5.71875-10.550781-5.71875-16.914062 0-6.359375 2.132813-12.21875 5.71875-16.910156zm0 0" fill="#ff9052"/><path d="m108.875 111.878906c.113281 1.015625.191406 2.042969.191406 3.085938 0 6.363281-2.136718 12.222656-5.722656 16.914062h138.746094v-20zm0 0" fill="#ff8031"/><path d="m399.132812 111.878906h-133.214843v20h138.75c-3.585938-4.691406-5.722657-10.550781-5.722657-16.914062 0-1.042969.078126-2.070313.1875-3.085938zm0 0" fill="#ff8031"/><path d="m254.003906 58.257812c-6.359375 0-12.222656-2.132812-16.914062-5.71875v371.464844h33.828125v-371.464844c-4.691407 3.585938-10.550781 5.71875-16.914063 5.71875zm0 0" fill="#ffc850"/><path d="m257.09375 58.070312c-1.015625.109376-2.042969.1875-3.089844.1875-6.359375 0-12.21875-2.132812-16.914062-5.71875v371.460938h20.003906zm0 0" fill="#fea82f"/><path d="m114.066406 114.96875c0 15.394531-12.484375 27.878906-27.878906 27.878906-15.398438 0-27.882812-12.484375-27.882812-27.878906 0-15.398438 12.484374-27.882812 27.882812-27.882812 15.394531 0 27.878906 12.484374 27.878906 27.882812zm0 0" fill="#fea82f"/><path d="m78.308594 114.96875c0-11.875 7.421875-22.003906 17.878906-26.027344-3.105469-1.191406-6.476562-1.855468-10-1.855468-15.398438 0-27.882812 12.484374-27.882812 27.882812 0 15.394531 12.484374 27.878906 27.882812 27.878906 3.523438 0 6.894531-.660156 10-1.855468-10.457031-4.023438-17.878906-14.152344-17.878906-26.023438zm0 0" fill="#ff9052"/><path d="m86.1875 375.140625c39.074219 0 71.273438-31.730469 70.984375-71.558594h-141.972656c-.316407 39.585938 31.703125 71.558594 70.988281 71.558594zm0 0" fill="#abffdb"/><path d="m35.199219 303.582031h-20c-.316407 39.589844 31.703125 71.558594 70.988281 71.558594 3.390625 0 6.726562-.257813 9.996094-.71875-34.570313-4.882813-61.273438-34.675781-60.984375-70.839844zm0 0" fill="#92e0c0"/><path d="m281.882812 35.378906c0 15.398438-12.480468 27.882813-27.878906 27.882813-15.398437 0-27.878906-12.484375-27.878906-27.882813 0-15.394531 12.480469-27.878906 27.878906-27.878906 15.398438 0 27.878906 12.484375 27.878906 27.878906zm0 0" fill="#fea82f"/><path d="m246.125 35.378906c0-11.871094 7.425781-22.003906 17.878906-26.023437-3.105468-1.195313-6.472656-1.855469-10-1.855469-15.394531 0-27.878906 12.480469-27.878906 27.878906 0 15.398438 12.480469 27.882813 27.878906 27.882813 3.527344 0 6.894532-.664063 10-1.855469-10.453125-4.023438-17.878906-14.15625-17.878906-26.027344zm0 0" fill="#ff9052"/><path d="m299.726562 419.003906h-91.445312c-7.359375 0-13.378906 6.019532-13.378906 13.378906v25.632813h118.207031v-25.632813c0-7.359374-6.023437-13.378906-13.382813-13.378906zm0 0" fill="#6dc296"/><path d="m228.285156 419.003906h-20.003906c-7.359375 0-13.378906 6.019532-13.378906 13.378906v25.632813h20v-25.632813c0-7.359374 6.019531-13.378906 13.382812-13.378906zm0 0" fill="#5fa77e"/><path d="m449.703125 114.96875c0 15.394531-12.480469 27.878906-27.878906 27.878906-15.398438 0-27.878907-12.484375-27.878907-27.878906 0-15.398438 12.480469-27.882812 27.878907-27.882812 15.398437 0 27.878906 12.484374 27.878906 27.882812zm0 0" fill="#fea82f"/><path d="m413.945312 114.96875c0-11.875 7.421876-22.003906 17.878907-26.027344-3.105469-1.191406-6.472657-1.855468-10-1.855468-15.398438 0-27.878907 12.484374-27.878907 27.882812 0 15.394531 12.480469 27.878906 27.878907 27.878906 3.527343 0 6.894531-.660156 10-1.855468-10.457031-4.023438-17.878907-14.152344-17.878907-26.023438zm0 0" fill="#ff9052"/><path d="m421.824219 375.140625c39.074219 0 71.277343-31.730469 70.984375-71.558594h-141.96875c-.320313 39.585938 31.699218 71.558594 70.984375 71.558594zm0 0" fill="#abffdb"/><path d="m370.839844 303.582031h-20c-.320313 39.589844 31.699218 71.558594 70.984375 71.558594 3.390625 0 6.726562-.257813 9.996093-.71875-34.570312-4.882813-61.269531-34.675781-60.980468-70.839844zm0 0" fill="#92e0c0"/><path d="m335.132812 453.015625h-162.257812c-21.3125 0-38.75 17.4375-38.75 38.753906v12.730469h239.761719v-12.730469c0-21.316406-17.4375-38.753906-38.753907-38.753906zm0 0" fill="#92e0c0"/><path d="m192.875 453.015625h-20c-21.3125 0-38.75 17.4375-38.75 38.753906v12.730469h20v-12.730469c0-21.316406 17.4375-38.753906 38.75-38.753906zm0 0" fill="#6dc296"/><path d="m384.480469 512h-260.953125c-4.140625 0-7.5-3.355469-7.5-7.5s3.359375-7.5 7.5-7.5h260.953125c4.144531 0 7.5 3.355469 7.5 7.5s-3.355469 7.5-7.5 7.5zm0 0" fill="#3e4151"/><path d="m493.214844 300.902344-61.515625-160.90625c-1.214844-3.1875-4.429688-5.140625-7.820313-4.777344-.769531.085938-1.496094.128906-2.222656.128906-.011719 0-.027344 0-.039062 0-.011719 0-.023438 0-.035157 0-.726562 0-1.453125-.042968-2.226562-.128906-3.386719-.359375-6.601563 1.59375-7.820313 4.777344l-61.511718 160.90625c-.882813 2.304687-.574219 4.898437.824218 6.929687 1.402344 2.035157 3.710938 3.25 6.179688 3.25h129.179687c2.46875 0 4.777344-1.214843 6.179688-3.25 1.398437-2.03125 1.707031-4.625.828125-6.929687zm-79.097656-125.652344v120.832031h-46.191407zm15 120.832031v-120.832031l46.195312 120.832031zm0 0" fill="#c2c7d0"/><path d="m157.578125 300.902344-61.515625-160.90625c-1.21875-3.1875-4.429688-5.140625-7.820312-4.777344-.769532.082031-1.496094.125-2.226563.128906-.011719 0-.023437 0-.035156 0s-.023438 0-.039063 0c-.726562-.003906-1.457031-.046875-2.222656-.128906-3.390625-.359375-6.605469 1.589844-7.820312 4.777344l-61.511719 160.90625c-.882813 2.304687-.574219 4.898437.828125 6.929687 1.398437 2.035157 3.707031 3.25 6.175781 3.25h129.179687c2.46875 0 4.777344-1.214843 6.175782-3.25 1.402344-2.03125 1.710937-4.625.832031-6.929687zm-79.097656-125.652344v120.832031h-46.191407zm15 120.832031v-120.832031l46.191406 120.832031zm0 0" fill="#c2c7d0"/><g fill="#474d54"><path d="m384.277344 497h-3.09375v-5.230469c0-25.503906-20.75-46.253906-46.253906-46.253906h-14.523438v-13.128906c0-11.515625-9.367188-20.886719-20.882812-20.886719h-21.308594v-22.902344c3.019531-.96875 5.203125-3.796875 5.203125-7.140625 0-3.339843-2.183594-6.171875-5.203125-7.140625v-111.523437c0-4.144531-3.359375-7.5-7.5-7.5-4.144532 0-7.5 3.355469-7.5 7.5v111.164062h-18.828125v-304.457031c1.359375.375 2.75.664062 4.15625.871094 1.714843.253906 3.472656.386718 5.257812.386718 1.785157 0 3.542969-.132812 5.257813-.386718 1.40625-.207032 2.796875-.496094 4.15625-.871094v158.289062c0 4.144532 3.359375 7.503907 7.5 7.503907 4.144531 0 7.5-3.359375 7.5-7.503907v-88.410156h117.820312c6.445313 6.753906 15.53125 10.96875 25.582032 10.96875 19.507812 0 35.382812-15.871094 35.382812-35.378906 0-19.511719-15.875-35.382812-35.382812-35.382812-10.050782 0-19.136719 4.214843-25.582032 10.964843h-117.820312v-29.585937c6.753906-6.449219 10.964844-15.535156 10.964844-25.585938 0-19.507812-15.871094-35.378906-35.378907-35.378906-19.511719 0-35.382812 15.871094-35.382812 35.378906 0 10.054688 4.214843 19.136719 10.96875 25.585938v29.585937h-117.820313c-6.449218-6.75-15.535156-10.964843-25.585937-10.964843-19.507813 0-35.378907 15.871093-35.378907 35.382812 0 19.507812 15.871094 35.378906 35.378907 35.378906 10.050781 0 19.136719-4.214844 25.585937-10.96875h117.820313v234.9375c-3.019531.96875-5.207031 3.800782-5.207031 7.140625 0 3.339844 2.1875 6.171875 5.207031 7.140625v22.902344h-21.308594c-11.515625 0-20.882813 9.367188-20.882813 20.882812v13.132813h-14.523437c-25.503906 0-46.253906 20.75-46.253906 46.253906v5.230469h-3.09375c-4.140625 0-7.5 3.355469-7.5 7.5 0 4.140625 3.359375 7.5 7.5 7.5h260.953125c4.140625 0 7.5-3.359375 7.5-7.5 0-4.144531-3.359375-7.5-7.5-7.5zm37.339844-402.414062c11.238281 0 20.378906 9.144531 20.378906 20.382812 0 11.234375-9.140625 20.378906-20.378906 20.378906-11.050782 0-20.078126-8.847656-20.371094-19.832031 0-.015625 0-.035156 0-.050781 0-.0625-.003906-.128906-.003906-.191406 0-.023438 0-.042969 0-.0625 0-.082032-.003907-.164063-.003907-.246094 0-.078125.003907-.160156.003907-.242188 0-.023437 0-.042968 0-.0625 0-.0625.003906-.128906.003906-.191406 0-.019531 0-.035156 0-.054688.292968-10.980468 9.320312-19.828124 20.371094-19.828124zm-34.117188 10.96875c-.792969 2.875-1.214844 5.867187-1.257812 8.921874v.070313c-.003907.140625-.003907.277344-.003907.417969s0 .28125.003907.421875v.070312c.042968 3.054688.464843 6.042969 1.257812 8.921875h-109.285156v-18.828125h109.285156zm-133.699219-90.554688c11.234375 0 20.378907 9.144531 20.378907 20.378906 0 11.054688-8.847657 20.082032-19.832032 20.371094-.015625 0-.035156.003906-.050781.003906-.0625 0-.128906 0-.191406.003906-.023438 0-.042969 0-.0625 0-.082031 0-.164063 0-.246094 0s-.160156 0-.242187 0c-.019532 0-.042969 0-.0625 0-.0625-.003906-.128907-.003906-.191407-.003906-.019531 0-.035156-.003906-.054687-.003906-10.984375-.292969-19.828125-9.316406-19.828125-20.371094.003906-11.234375 9.144531-20.378906 20.382812-20.378906zm-167.820312 120.347656c-11.234375 0-20.378907-9.144531-20.378907-20.378906 0-11.238281 9.144532-20.382812 20.378907-20.382812 11.054687 0 20.078125 8.847656 20.371093 19.832031v.050781c.003907.0625.003907.128906.007813.191406v.0625.246094.242188.0625c-.003906.0625-.003906.128906-.007813.191406v.054687c-.292968 10.980469-9.316406 19.828125-20.371093 19.828125zm34.121093-10.96875c.789063-2.875 1.214844-5.867187 1.253907-8.917968 0-.027344.003906-.050782.003906-.074219 0-.140625.003906-.277344.003906-.417969s-.003906-.28125-.003906-.417969c0-.027343-.003906-.050781-.003906-.074219-.039063-3.054687-.464844-6.042968-1.253907-8.921874h109.285157v18.828124h-109.285157zm124.285157 264.578125h18.828125v22.542969h-18.828125zm-42.191407 43.425781c0-3.242187 2.636719-5.882812 5.882813-5.882812h91.441406c3.246094 0 5.882813 2.640625 5.882813 5.882812v13.132813h-103.207032zm-60.777343 64.617188v-5.230469c0-17.234375 14.019531-31.253906 31.25-31.253906h162.261719c17.230468 0 31.25 14.019531 31.25 31.253906v5.230469zm0 0"/><path d="m141.71875 359.417969c13.039062-13.136719 20.859375-30.078125 22.449219-48.335938h.292969c4.144531 0 7.5-3.359375 7.5-7.5 0-4.144531-3.355469-7.503906-7.5-7.503906h-156.960938c-4.140625 0-7.5 3.359375-7.5 7.503906 0 4.140625 3.359375 7.5 7.5 7.5h.289062c1.582032 18.238281 9.402344 35.179688 22.449219 48.332031 14.859375 14.976563 34.65625 23.226563 55.742188 23.226563 21.078125 0 40.871093-8.246094 55.738281-23.222656zm-55.738281 8.21875c-17.058594 0-33.070313-6.671875-45.09375-18.789063-10.234375-10.316406-16.492188-23.519531-18.023438-37.765625h126.234375c-1.539062 14.265625-7.796875 27.464844-18.023437 37.769531-12.027344 12.113282-28.042969 18.785157-45.09375 18.785157zm0 0"/><path d="m500.097656 296.082031h-156.960937c-4.140625 0-7.5 3.355469-7.5 7.5s3.359375 7.5 7.5 7.5h.292969c2.878906 33.011719 26.195312 60.863281 58.84375 69.144531.617187.15625 1.238281.234376 1.847656.234376 3.351562 0 6.40625-2.265626 7.265625-5.660157 1.019531-4.015625-1.410157-8.09375-5.425781-9.113281-25.964844-6.585938-44.628907-28.484375-47.457032-54.605469h126.222656c-2.84375 26.121094-21.507812 48.015625-47.453124 54.601563-4.015626 1.023437-6.441407 5.101562-5.425782 9.117187 1.019532 4.015625 5.097656 6.441407 9.117188 5.425781 32.621094-8.285156 55.9375-36.136718 58.835937-69.144531h.296875c4.144532 0 7.5-3.355469 7.5-7.5s-3.355468-7.5-7.5-7.5zm0 0"/></g></svg>