<?xml version="1.0" encoding="iso-8859-1"?>
<!-- Generator: Adobe Illustrator 21.0.0, SVG Export Plug-In . SVG Version: 6.00 Build 0)  -->
<svg xmlns="http://www.w3.org/2000/svg" xmlns:xlink="http://www.w3.org/1999/xlink" version="1.1" id="Capa_1" x="0px" y="0px" viewBox="0 0 508.83 508.83" style="enable-background:new 0 0 508.83 508.83;" xml:space="preserve" width="512" height="512">
<g>
	<g>
		<g>
			<rect x="36.521" y="7.5" style="fill:#DC8839;" width="352.871" height="493.83"/>
		</g>
	</g>
	<g>
		<g>
			<rect x="74.998" y="74.597" style="fill:#FEFEFE;" width="275.915" height="382.386"/>
		</g>
	</g>
	<g>
		<g>
			<rect x="359.391" y="7.5" style="fill:#AC5A28;" width="30" height="493.83"/>
		</g>
	</g>
	<g>
		<g>
			<rect x="320.914" y="74.597" style="fill:#EBEFED;" width="30" height="382.386"/>
		</g>
	</g>
	<g>
		<g>
			<path style="fill:#F7C848;" d="M254.261,57.97h-19.918v-13.39c0-9.2-7.527-16.727-16.727-16.727h-9.319     c-9.2,0-16.727,7.527-16.727,16.727v13.39h-19.918c-9.2,0-16.727,7.527-16.727,16.727v9.319c0,9.2,7.527,16.727,16.727,16.727     h82.61c9.2,0,16.727-7.527,16.727-16.727v-9.319C270.988,65.497,263.461,57.97,254.261,57.97z"/>
		</g>
	</g>
	<g>
		<g>
			<path style="fill:#E9AC3F;" d="M254.261,57.969h-19.918v-13.39c0-9.2-7.527-16.727-16.727-16.727h-9.319     c-3.898,0-7.488,1.362-10.34,3.619c3.879,3.07,6.387,7.806,6.387,13.108v13.39h19.918c9.2,0,16.728,7.527,16.728,16.728v9.319     c0,9.2-7.527,16.727-16.728,16.727h30c9.2,0,16.728-7.527,16.728-16.727v-9.319C270.988,65.497,263.461,57.969,254.261,57.969z"/>
		</g>
	</g>
	<g>
		<g>
			<rect x="114.741" y="143.243" style="fill:#F3C5D2;" width="54.798" height="57.982"/>
		</g>
	</g>
	<g>
		<g>
			<rect x="114.741" y="143.243" style="fill:#F3C5D2;" width="54.798" height="57.982"/>
		</g>
	</g>
	<g>
		<g>
			<rect x="114.741" y="252.592" style="fill:#F3C5D2;" width="54.798" height="57.982"/>
		</g>
	</g>
	<g>
		<g>
			<rect x="114.741" y="252.592" style="fill:#F3C5D2;" width="54.798" height="57.982"/>
		</g>
	</g>
	<g>
		<g>
			<rect x="114.741" y="361.942" style="fill:#F3C5D2;" width="54.798" height="57.982"/>
		</g>
	</g>
	<g>
		<g>
			<rect x="114.741" y="361.942" style="fill:#F3C5D2;" width="54.798" height="57.982"/>
		</g>
	</g>
	<g>
		<g>
			<path style="fill:#CCD8D3;" d="M429.847,344.017v60.676c0,0.089,0.015,0.175,0.017,0.264l17.926,31.547l17.926-31.547     c0.002-0.089,0.017-0.175,0.017-0.264v-60.676H429.847z"/>
		</g>
	</g>
	<g>
		<g>
			<path style="fill:#76C6B6;" d="M465.717,353.496c0.002-0.114,0.017-0.224,0.017-0.339v-192.3c0-9.869-8.075-17.943-17.943-17.943     l0,0c-9.869,0-17.943,8.074-17.943,17.943v192.3c0,0.114,0.015,0.225,0.017,0.339H465.717z"/>
		</g>
	</g>
	<g>
		<g>
			<path style="fill:#76C6B6;" d="M472.309,247.866v-96.685c0-13.485-11.033-24.518-24.518-24.518s-24.518,11.033-24.518,24.518     v96.685H472.309z"/>
		</g>
	</g>
	<g>
		<g>
			<path style="fill:#24AE98;" d="M447.791,126.663c-4.353,0-8.447,1.155-12,3.165c7.455,4.218,12.518,12.22,12.518,21.353v96.685     h24v-96.685C472.309,137.696,461.276,126.663,447.791,126.663z"/>
		</g>
	</g>
	<g>
		<path d="M389.391,0H36.521c-4.143,0-7.5,3.358-7.5,7.5v493.83c0,4.142,3.357,7.5,7.5,7.5h108.721c4.143,0,7.5-3.358,7.5-7.5    s-3.357-7.5-7.5-7.5H44.021V15h337.87v478.83H177.242c-4.143,0-7.5,3.358-7.5,7.5s3.357,7.5,7.5,7.5h212.149    c4.143,0,7.5-3.358,7.5-7.5V7.5C396.891,3.358,393.534,0,389.391,0z"/>
		<path d="M74.998,183.478c-4.143,0-7.5,3.358-7.5,7.5v266.005c0,4.142,3.357,7.5,7.5,7.5h275.915c4.143,0,7.5-3.358,7.5-7.5V74.597    c0-4.142-3.357-7.5-7.5-7.5h-73.653c-3.196-9.646-12.295-16.627-23-16.627h-12.418v-5.89c0-13.359-10.868-24.228-24.228-24.228    h-9.319c-13.359,0-24.228,10.868-24.228,24.228v5.89h-12.418c-10.704,0-19.803,6.981-22.999,16.627H74.998    c-4.143,0-7.5,3.358-7.5,7.5v83.381c0,4.142,3.357,7.5,7.5,7.5s7.5-3.358,7.5-7.5V82.097h64.926v1.919    c0,13.359,10.868,24.227,24.227,24.227h82.61c13.359,0,24.228-10.868,24.228-24.227v-1.919h64.925v367.386H82.498V190.978    C82.498,186.836,79.141,183.478,74.998,183.478z M263.489,84.016c0,5.088-4.14,9.227-9.228,9.227h-82.61    c-5.088,0-9.227-4.139-9.227-9.227v-9.319c0-5.088,4.139-9.228,9.227-9.228h19.918c4.143,0,7.5-3.358,7.5-7.5V44.58    c0-5.088,4.14-9.228,9.228-9.228h9.319c5.088,0,9.228,4.139,9.228,9.228v13.39c0,4.142,3.357,7.5,7.5,7.5h19.918    c5.088,0,9.228,4.139,9.228,9.228V84.016z"/>
		<path d="M169.539,135.743h-54.798c-4.143,0-7.5,3.358-7.5,7.5v57.982c0,4.142,3.357,7.5,7.5,7.5h54.798c4.143,0,7.5-3.358,7.5-7.5    v-36.614l31.025-22.703c3.343-2.446,4.07-7.139,1.624-10.481c-2.447-3.343-7.141-4.07-10.481-1.624l-22.168,16.221v-2.781    C177.039,139.101,173.682,135.743,169.539,135.743z M162.039,193.725h-39.798v-42.982h39.798V157l-20.049,14.671l-2.669-4.643    c-2.065-3.59-6.649-4.829-10.24-2.764c-3.591,2.064-4.828,6.649-2.764,10.24l6.843,11.902c1.063,1.849,2.862,3.157,4.948,3.599    c0.516,0.109,1.036,0.163,1.554,0.163c1.579,0,3.133-0.499,4.429-1.447l17.948-13.134V193.725z"/>
		<path d="M218.724,165.239h92.446c4.143,0,7.5-3.358,7.5-7.5s-3.357-7.5-7.5-7.5h-92.446c-4.143,0-7.5,3.358-7.5,7.5    S214.581,165.239,218.724,165.239z"/>
		<path d="M218.724,194.229h60.909c4.143,0,7.5-3.358,7.5-7.5s-3.357-7.5-7.5-7.5h-60.909c-4.143,0-7.5,3.358-7.5,7.5    S214.581,194.229,218.724,194.229z"/>
		<path d="M107.242,310.574c0,4.142,3.357,7.5,7.5,7.5h54.798c4.143,0,7.5-3.358,7.5-7.5v-39.435l31.025-22.703    c3.343-2.446,4.07-7.139,1.624-10.482c-2.447-3.343-7.141-4.069-10.481-1.624l-22.17,16.223c-0.021-4.124-3.369-7.461-7.498-7.461    h-54.798c-4.143,0-7.5,3.358-7.5,7.5V310.574z M122.242,260.093h39.798v3.436l-20.049,14.671l-2.669-4.643    c-2.063-3.59-6.646-4.828-10.24-2.764c-3.591,2.064-4.828,6.649-2.764,10.24l6.843,11.902c1.063,1.849,2.862,3.157,4.948,3.599    c0.516,0.109,1.036,0.163,1.554,0.163c1.579,0,3.133-0.499,4.429-1.447l17.948-13.134v20.958h-39.798V260.093z"/>
		<path d="M218.724,274.588h92.446c4.143,0,7.5-3.358,7.5-7.5s-3.357-7.5-7.5-7.5h-92.446c-4.143,0-7.5,3.358-7.5,7.5    S214.581,274.588,218.724,274.588z"/>
		<path d="M218.724,303.579h60.909c4.143,0,7.5-3.358,7.5-7.5s-3.357-7.5-7.5-7.5h-60.909c-4.143,0-7.5,3.358-7.5,7.5    S214.581,303.579,218.724,303.579z"/>
		<path d="M107.242,419.924c0,4.142,3.357,7.5,7.5,7.5h54.798c4.143,0,7.5-3.358,7.5-7.5v-57.982c0-4.142-3.357-7.5-7.5-7.5h-54.798    c-4.143,0-7.5,3.358-7.5,7.5V419.924z M122.242,369.442h39.798v42.982h-39.798V369.442z"/>
		<path d="M218.724,383.937h92.446c4.143,0,7.5-3.358,7.5-7.5s-3.357-7.5-7.5-7.5h-92.446c-4.143,0-7.5,3.358-7.5,7.5    S214.581,383.937,218.724,383.937z"/>
		<path d="M218.724,412.928h60.909c4.143,0,7.5-3.358,7.5-7.5s-3.357-7.5-7.5-7.5h-60.909c-4.143,0-7.5,3.358-7.5,7.5    S214.581,412.928,218.724,412.928z"/>
		<path d="M447.791,119.163c-17.655,0-32.019,14.363-32.019,32.018v96.685c0,3.828,2.87,6.98,6.574,7.437v55.271    c0,4.142,3.357,7.5,7.5,7.5s7.5-3.358,7.5-7.5v-55.208h20.888v90.629h-20.888v-3.422c0-4.142-3.357-7.5-7.5-7.5    s-7.5,3.358-7.5,7.5v10.583c0,0.064,0.006,0.13,0.007,0.193c-0.001,0.049-0.007,0.096-0.007,0.145v54.457    c0,0.263,0.014,0.523,0.038,0.786c0.09,1.229,0.481,2.419,1.143,3.464l17.927,28.313c1.375,2.171,3.767,3.488,6.337,3.488    s4.962-1.316,6.337-3.488l17.926-28.313c0.661-1.044,1.053-2.233,1.143-3.461c0.024-0.261,0.038-0.523,0.038-0.788v-54.457    c0-0.049-0.006-0.096-0.007-0.145c0.001-0.065,0.007-0.129,0.007-0.194v-97.854c3.705-0.457,6.574-3.609,6.574-7.437v-96.685    C479.809,133.526,465.446,119.163,447.791,119.163z M430.773,151.181c0-9.384,7.635-17.018,17.019-17.018    s17.018,7.634,17.018,17.018v89.185h-34.036V151.181z M458.235,405.988l-10.443,16.495l-10.444-16.495v-44.992h20.888V405.988z"/>
	</g>
</g>















</svg>
