<svg height="512pt" viewBox="0 0 512 512" width="512pt" xmlns="http://www.w3.org/2000/svg"><path d="m110.933594 435.199219h290.132812c18.851563 0 34.132813 15.28125 34.132813 34.132812v25.601563c0 4.710937-3.820313 8.53125-8.53125 8.53125h-341.335938c-4.710937 0-8.53125-3.820313-8.53125-8.53125v-25.601563c0-18.851562 15.28125-34.132812 34.132813-34.132812zm0 0" fill="#3c5b72"/><path d="m162.132812 366.933594h187.734376c18.851562 0 34.132812 15.28125 34.132812 34.132812v34.132813h-256v-34.132813c0-18.851562 15.28125-34.132812 34.132812-34.132812zm0 0" fill="#4d7693"/><path d="m221.867188 324.265625h68.265624c9.425782 0 17.066407 7.640625 17.066407 17.066406v25.601563h-102.398438v-25.601563c0-9.425781 7.640625-17.066406 17.066407-17.066406zm0 0" fill="#3c5b72"/><path d="m290.132812 281.601562v42.664063h-68.265624v-42.664063c-.015626-9.058593 3.574218-17.75 9.980468-24.15625 6.402344-6.402343 15.09375-9.996093 24.152344-9.980468 9.050781.019531 17.730469 3.605468 24.148438 9.984375 4.355468 4.347656 7.425781 9.808593 8.875 15.789062.761718 2.71875 1.136718 5.535157 1.109374 8.363281zm0 0" fill="#4d7693"/><path d="m503.125 329.558594c-1.578125 8.113281-8.710938 13.957031-16.980469 13.90625-1.058593 0-2.113281-.085938-3.15625-.253906l-192.855469-34.988282v-26.621094c.027344-2.828124-.347656-5.644531-1.109374-8.363281l4.097656.765625 82.34375 15.019532 68.269531 12.375 45.394531 8.277343c9.339844 1.652344 15.589844 10.535157 13.996094 19.882813zm0 0" fill="#3c5b72"/><path d="m227.925781 262.144531c-3.964843 5.710938-6.082031 12.503907-6.058593 19.457031v14.078126l-2.988282-.511719-196.007812-35.582031c-8.730469-1.53125-14.835938-9.484376-14.058594-18.3125.777344-8.824219 8.183594-15.589844 17.042969-15.566407 1.058593 0 2.113281.085938 3.15625.253907l39.253906 7.167968 68.269531 12.375 88.402344 16.128906zm0 0" fill="#3c5b72"/><path d="m196.265625 136.535156c0 25.34375-24.746094 47.015625-59.730469 55.636719-22.429687 5.460937-45.839844 5.460937-68.269531 0-34.984375-8.621094-59.730469-30.292969-59.730469-55.636719zm0 0" fill="#cbd1d7"/><path d="m42.667969 93.867188h119.464843c9.425782 0 17.066407 7.640624 17.066407 17.066406v8.53125c0 9.425781-7.640625 17.070312-17.066407 17.070312h-119.464843c-9.425781 0-17.066407-7.644531-17.066407-17.070312v-8.53125c0-9.425782 7.640626-17.066406 17.066407-17.066406zm0 0" fill="#f5bf57"/><path d="m42.667969 51.199219h119.464843c9.425782 0 17.066407 7.640625 17.066407 17.066406v8.535156c0 9.425781-7.640625 17.066407-17.066407 17.066407h-119.464843c-9.425781 0-17.066407-7.640626-17.066407-17.066407v-8.535156c0-9.425781 7.640626-17.066406 17.066407-17.066406zm0 0" fill="#fdd267"/><path d="m42.667969 8.535156h119.464843c9.425782 0 17.066407 7.640625 17.066407 17.066406v8.53125c0 9.425782-7.640625 17.066407-17.066407 17.066407h-119.464843c-9.425781 0-17.066407-7.640625-17.066407-17.066407v-8.53125c0-9.425781 7.640626-17.066406 17.066407-17.066406zm0 0" fill="#f5bf57"/><path d="m503.464844 196.265625c0 25.34375-24.746094 47.019531-59.730469 55.636719-22.429687 5.460937-45.839844 5.460937-68.269531 0-34.984375-8.617188-59.730469-30.292969-59.730469-55.636719zm0 0" fill="#cbd1d7"/><path d="m349.867188 153.601562h119.464843c9.425781 0 17.066407 7.640626 17.066407 17.066407v8.53125c0 9.425781-7.640626 17.066406-17.066407 17.066406h-119.464843c-9.425782 0-17.066407-7.640625-17.066407-17.066406v-8.53125c0-9.425781 7.640625-17.066407 17.066407-17.066407zm0 0" fill="#fdd267"/><path d="m349.867188 110.933594h119.464843c9.425781 0 17.066407 7.640625 17.066407 17.066406v8.535156c0 9.425782-7.640626 17.066406-17.066407 17.066406h-119.464843c-9.425782 0-17.066407-7.640624-17.066407-17.066406v-8.535156c0-9.425781 7.640625-17.066406 17.066407-17.066406zm0 0" fill="#f5bf57"/><path d="m349.867188 68.265625h119.464843c9.425781 0 17.066407 7.640625 17.066407 17.066406v8.535157c0 9.425781-7.640626 17.066406-17.066407 17.066406h-119.464843c-9.425782 0-17.066407-7.640625-17.066407-17.066406v-8.535157c0-9.425781 7.640625-17.066406 17.066407-17.066406zm0 0" fill="#fdd267"/><path d="m349.867188 25.601562h119.464843c9.425781 0 17.066407 7.640626 17.066407 17.066407v8.53125c0 9.425781-7.640626 17.066406-17.066407 17.066406h-119.464843c-9.425782 0-17.066407-7.640625-17.066407-17.066406v-8.53125c0-9.425781 7.640625-17.066407 17.066407-17.066407zm0 0" fill="#f5bf57"/><path d="m136.535156 192.171875v53.332031l-68.269531-12.375v-40.957031c22.429687 5.460937 45.839844 5.460937 68.269531 0zm0 0" fill="#abb1bb"/><path d="m443.734375 251.902344v49.496094l-68.269531-12.375v-37.121094c22.429687 5.460937 45.839844 5.460937 68.269531 0zm0 0" fill="#abb1bb"/><path d="m503.464844 187.734375h-10.101563c1.011719-2.734375 1.542969-5.621094 1.570313-8.535156v-8.53125c-.023438-6.320313-2.394532-12.402344-6.65625-17.066407 4.261718-4.667968 6.632812-10.75 6.65625-17.066406v-8.535156c-.023438-6.316406-2.394532-12.402344-6.65625-17.066406 4.261718-4.664063 6.632812-10.75 6.65625-17.066406v-8.535157c-.023438-6.316406-2.394532-12.402343-6.65625-17.066406 4.261718-4.664063 6.632812-10.746094 6.65625-17.066406v-8.53125c0-14.140625-11.460938-25.601563-25.601563-25.601563h-119.464843c-14.140626 0-25.601563 11.460938-25.601563 25.601563v8.53125c.023437 6.320312 2.394531 12.402343 6.65625 17.066406-4.261719 4.664063-6.632813 10.75-6.65625 17.066406v8.535157c.023437 6.316406 2.394531 12.402343 6.65625 17.066406-4.261719 4.664062-6.632813 10.75-6.65625 17.066406v8.535156c.023437 6.316406 2.394531 12.398438 6.65625 17.066406-4.261719 4.664063-6.632813 10.746094-6.65625 17.066407v8.53125c.03125 2.914062.558594 5.800781 1.570313 8.535156h-10.101563c-4.714844 0-8.535156 3.820313-8.535156 8.53125 0 27.308594 23.238281 51.199219 59.734375 62.132813v20.367187l-71.332032-12.976563c-2.121093-5.410156-5.34375-10.316406-9.460937-14.414062-8.25-8.214844-19.492187-12.699219-31.128906-12.421875s-22.65625 5.300781-30.5 13.898437l-79.445313-14.449218v-39.738282c36.507813-10.929687 59.734375-34.824218 59.734375-62.128906 0-4.714844-3.820312-8.535156-8.535156-8.535156h-10.101563c1.011719-2.734375 1.539063-5.621094 1.570313-8.535156v-8.53125c-.023437-6.316406-2.394531-12.402344-6.65625-17.066406 4.261719-4.664063 6.632813-10.75 6.65625-17.066407v-8.535156c-.023437-6.316406-2.394531-12.402344-6.65625-17.066406 4.261719-4.664063 6.632813-10.746094 6.65625-17.066407v-8.53125c0-14.140624-11.460937-25.601562-25.601563-25.601562h-119.464843c-14.140625 0-25.601563 11.460938-25.601563 25.601562v8.53125c.023438 6.320313 2.394532 12.402344 6.65625 17.066407-4.261718 4.664062-6.632812 10.75-6.65625 17.066406v8.535156c.023438 6.316407 2.394532 12.402344 6.65625 17.066407-4.261718 4.664062-6.632812 10.75-6.65625 17.066406v8.53125c.027344 2.914062.558594 5.800781 1.570313 8.535156h-10.101563c-4.714844 0-8.535156 3.820312-8.535156 8.535156 0 27.304688 23.234375 51.199219 59.734375 62.128906v24.21875l-29.289063-5.28125c-13.921874-2.367187-27.199218 6.769532-29.96875 20.613282-2.367187 13.953125 6.933594 27.210937 20.855469 29.730468l45.398438 8.246094c4.539062.648438 8.777343-2.40625 9.601562-6.917968.824219-4.507813-2.0625-8.863282-6.539062-9.859376l-45.40625-8.226562c-4.382813-.742188-7.460938-4.722656-7.078125-9.152344.382812-4.425781 4.101562-7.820312 8.546875-7.796875.546875 0 1.089843.039063 1.628906.121094l39.074219 7.132813c.050781 0 .09375.050781.144531.0625l31.695313 5.734374 116.90625 21.332032v.152344c-.410157 1.304687-.65625 2.65625-.9375 3.996093-.171876.785157-.417969 1.542969-.539063 2.335938-.328125 2.148437-.496094 4.320312-.496094 6.496093v3.882813l-100.871093-18.304687c-3-.546876-6.0625.550781-8.035157 2.875-1.972656 2.324218-2.554687 5.527343-1.527343 8.394531 1.027343 2.871093 3.507812 4.976562 6.507812 5.523437l103.925781 18.859375v14.503907c-10.179687 3.601562-17.007812 13.199218-17.066406 23.996093v17.066407h-34.132813c-23.550781.03125-42.636718 19.117187-42.667968 42.667968v25.601563h-8.53125c-23.550782.027343-42.640625 19.113281-42.667969 42.664062v25.601563c0 9.425781 7.640625 17.066406 17.066406 17.066406h256c4.714844 0 8.535157-3.820312 8.535157-8.535156 0-4.710938-3.820313-8.53125-8.535157-8.53125h-256v-25.601563c0-14.136719 11.460938-25.597656 25.601563-25.597656h290.132812c14.140625 0 25.601563 11.460937 25.601563 25.597656v25.601563h-34.132813c-4.714844 0-8.535156 3.820312-8.535156 8.53125 0 4.714844 3.820312 8.535156 8.535156 8.535156h34.132813c9.425781 0 17.066406-7.640625 17.066406-17.066406v-25.601563c-.027344-23.550781-19.117187-42.636719-42.667969-42.664062h-8.53125v-25.601563c-.03125-23.550781-19.117187-42.636718-42.667968-42.667968h-34.132813v-17.066407c-.03125-9.179687-4.996094-17.640625-12.996094-22.144531l178.816407 32.429688c1.515624.253906 3.050781.382812 4.589843.382812 12.386719.050781 23.050781-8.738281 25.367188-20.90625v-.101562c2.339843-13.9375-6.945313-27.167969-20.84375-29.707032l-38.402344-6.988281v-36.105469c7.253906-2.089844 14.292969-4.855468 21.027344-8.265625 2.777343-1.371093 4.59375-4.140625 4.746093-7.234375.152344-3.097656-1.382812-6.03125-4.015624-7.667968-2.628907-1.632813-5.941407-1.714844-8.648438-.210938-7.523438 3.878906-15.484375 6.835938-23.714844 8.8125-15.824218 3.832031-32.207031 4.804688-48.375 2.867188-5.316406-.621094-10.585937-1.582032-15.777344-2.875-27.367187-6.742188-47.011718-21.75-51.996093-38.816407h168.191406c-.484375 1.6875-1.097656 3.339844-1.839844 4.929688-1.808593 4.238281.070313 9.140625 4.246094 11.085937 4.171875 1.941406 9.132813.226563 11.214844-3.882812 3.054687-6.460938 4.652343-13.519532 4.675781-20.667969 0-4.710937-3.820312-8.53125-8.535156-8.53125zm-469.332032-110.933594v-8.535156c0-4.710937 3.820313-8.53125 8.535157-8.53125h119.464843c4.714844 0 8.535157 3.820313 8.535157 8.53125v8.535156c0 4.710938-3.820313 8.53125-8.535157 8.53125h-119.464843c-4.714844 0-8.535157-3.820312-8.535157-8.53125zm0-51.199219c0-4.714843 3.820313-8.535156 8.535157-8.535156h119.464843c4.714844 0 8.535157 3.820313 8.535157 8.535156v8.53125c0 4.714844-3.820313 8.535157-8.535157 8.535157h-119.464843c-4.714844 0-8.535157-3.820313-8.535157-8.535157zm0 93.863282v-8.53125c0-4.714844 3.820313-8.535156 8.535157-8.535156h119.464843c4.714844 0 8.535157 3.820312 8.535157 8.535156v8.53125c0 4.714844-3.820313 8.535156-8.535157 8.535156h-119.464843c-4.714844 0-8.535157-3.820312-8.535157-8.535156zm-15.820312 25.601562h168.175781c-4.984375 17.066406-24.636719 32.078125-52.054687 38.828125-15.824219 3.828125-32.207032 4.800781-48.375 2.867188-5.316406-.625-10.585938-1.585938-15.777344-2.875-27.339844-6.742188-46.984375-21.753907-51.96875-38.820313zm58.488281 57.601563c.570313.09375 1.167969.125 1.707031.21875 3.058594.480469 6.152344.867187 9.28125 1.164062.957032.09375 1.914063.1875 2.878907.261719 3.871093.292969 7.765625.488281 11.699219.488281 3.933593 0 7.832031-.195312 11.699218-.488281.964844-.074219 1.910156-.167969 2.867188-.253906 3.140625-.296875 6.246094-.6875 9.316406-1.179688.5625-.085937 1.152344-.117187 1.707031-.210937v32.613281l-22.636719-4.097656-28.519531-5.195313zm179.199219 53.332031c6.789062.003906 13.300781 2.695312 18.117188 7.484375 3.328124 3.332031 5.652343 7.535156 6.707031 12.125.542969 1.949219.804687 3.96875.777343 5.992187v34.132813h-51.203124v-34.132813c-.011719-5.203124 1.566406-10.289062 4.523437-14.566406 4.816406-6.886718 12.675781-11.003906 21.078125-11.035156zm119.464844 145.066406v25.601563h-238.929688v-25.601563c0-14.136718 11.460938-25.601562 25.597656-25.601562h187.734376c14.136718 0 25.597656 11.464844 25.597656 25.601562zm-162.132813-42.667968v-17.066407c0-4.710937 3.820313-8.53125 8.535157-8.53125h68.265624c4.714844 0 8.535157 3.820313 8.535157 8.53125v17.066407zm281.398438-30.359376c-.847657 4.054688-4.445313 6.941407-8.585938 6.894532-.550781.003906-1.097656-.039063-1.640625-.128906l-185.835937-33.707032v-17.40625l75.09375 13.652344c.0625.027344.128906.050781.195312.070312l57.90625 10.496094 55.765625 10.144532c4.6875.847656 7.839844 5.28125 7.101563 9.984374zm-110.730469-46.164062v-19.476562c.570312.09375 1.167969.128906 1.707031.222656 3.066407.480468 6.160157.867187 9.285157 1.160156.953124.09375 1.910156.1875 2.875.265625 3.875.289063 7.765624.488281 11.699218.488281s7.832032-.199218 11.699219-.488281c.964844-.078125 1.910156-.171875 2.867187-.257813 3.140626-.292968 6.242188-.6875 9.308594-1.175781.5625-.085937 1.160156-.121093 1.707032-.214843v28.785156l-10.332032-1.902344zm-42.667969-145.339844v-8.535156c0-4.710938 3.820313-8.535156 8.535157-8.535156h119.464843c4.714844 0 8.535157 3.824218 8.535157 8.535156v8.535156c0 4.710938-3.820313 8.53125-8.535157 8.53125h-119.464843c-4.714844 0-8.535157-3.820312-8.535157-8.53125zm0-42.667968v-8.535157c0-4.710937 3.820313-8.53125 8.535157-8.53125h119.464843c4.714844 0 8.535157 3.820313 8.535157 8.53125v8.535157c0 4.710937-3.820313 8.53125-8.535157 8.53125h-119.464843c-4.714844 0-8.535157-3.820313-8.535157-8.53125zm0-51.199219c0-4.714844 3.820313-8.535157 8.535157-8.535157h119.464843c4.714844 0 8.535157 3.820313 8.535157 8.535157v8.53125c0 4.714843-3.820313 8.535156-8.535157 8.535156h-119.464843c-4.714844 0-8.535157-3.820313-8.535157-8.535156zm8.535157 145.066406c-4.714844 0-8.535157-3.820313-8.535157-8.535156v-8.53125c0-4.714844 3.820313-8.535157 8.535157-8.535157h119.464843c4.714844 0 8.535157 3.820313 8.535157 8.535157v8.53125c0 4.714843-3.820313 8.535156-8.535157 8.535156zm0 0"/><path d="m153.601562 460.800781c-4.714843 0-8.535156 3.820313-8.535156 8.53125 0 4.714844 3.820313 8.535157 8.535156 8.535157h8.53125c4.714844 0 8.535157-3.820313 8.535157-8.535157 0-4.710937-3.820313-8.53125-8.535157-8.53125zm0 0"/><path d="m366.933594 469.332031c0-4.710937-3.820313-8.53125-8.535156-8.53125h-8.53125c-4.714844 0-8.535157 3.820313-8.535157 8.53125 0 4.714844 3.820313 8.535157 8.535157 8.535157h8.53125c4.714843 0 8.535156-3.820313 8.535156-8.535157zm0 0"/><path d="m196.265625 460.800781c-4.710937 0-8.53125 3.820313-8.53125 8.53125 0 4.714844 3.820313 8.535157 8.53125 8.535157h119.46875c4.710937 0 8.53125-3.820313 8.53125-8.535157 0-4.710937-3.820313-8.53125-8.53125-8.53125zm0 0"/><path d="m179.199219 392.535156h-8.53125c-4.714844 0-8.535157 3.820313-8.535157 8.53125 0 4.714844 3.820313 8.535156 8.535157 8.535156h8.53125c4.714843 0 8.535156-3.820312 8.535156-8.535156 0-4.710937-3.820313-8.53125-8.535156-8.53125zm0 0"/><path d="m332.800781 409.601562h8.53125c4.714844 0 8.535157-3.820312 8.535157-8.535156 0-4.710937-3.820313-8.53125-8.535157-8.53125h-8.53125c-4.714843 0-8.535156 3.820313-8.535156 8.53125 0 4.714844 3.820313 8.535156 8.535156 8.535156zm0 0"/><path d="m298.667969 392.535156h-85.335938c-4.710937 0-8.53125 3.820313-8.53125 8.53125 0 4.714844 3.820313 8.535156 8.53125 8.535156h85.335938c4.710937 0 8.53125-3.820312 8.53125-8.535156 0-4.710937-3.820313-8.53125-8.53125-8.53125zm0 0"/></svg>