<svg height="512pt" viewBox="0 -64 512 512" width="512pt" xmlns="http://www.w3.org/2000/svg"><path d="m472.421875 344.171875h-432.84375v-264.515625c0-8.855469 7.175781-16.03125 16.03125-16.03125h400.78125c8.855469 0 16.03125 7.175781 16.03125 16.03125zm0 0" fill="#867383"/><path d="m95.6875 63.625h-40.078125c-8.855469 0-16.03125 7.175781-16.03125 16.03125v264.515625h40.078125v-264.515625c0-8.851562 7.175781-16.03125 16.03125-16.03125zm0 0" fill="#685064"/><path d="m39.578125 111.71875h432.84375v232.453125h-432.84375zm0 0" fill="#f0edef"/><path d="m39.578125 111.71875h40.078125v232.453125h-40.078125zm0 0" fill="#d2cad0"/><path d="m488.453125 376.234375h-464.90625c-8.855469 0-16.03125-7.175781-16.03125-16.03125v-16.03125h496.96875v16.03125c0 8.855469-7.175781 16.03125-16.03125 16.03125zm0 0" fill="#958492"/><path d="m55.609375 360.203125v-16.03125h-48.09375v16.03125c0 8.855469 7.175781 16.03125 16.03125 16.03125h48.09375c-8.855469 0-16.03125-7.175781-16.03125-16.03125zm0 0" fill="#776173"/><path d="m431.300781 7.515625c-24.292969 17.78125-62.851562 51.515625-90.683593 79.351563-21.289063 21.289062-44.769532 47.585937-68.015626 79.351562 7.554688 7.554688 15.113282 15.113281 22.671876 22.667969 24.292968-17.78125 51.515624-40.179688 79.347656-68.011719 21.289062-21.289062 56.101562-58.925781 79.351562-90.6875-7.554687-7.558594-15.113281-15.113281-22.671875-22.671875zm0 0" fill="#ffe06f"/><path d="m278.269531 171.886719c5.667969 5.667969 11.335938 11.335937 17.003907 17.003906 24.292968-17.78125 51.515624-40.183594 79.351562-68.015625 21.289062-21.289062 56.101562-58.925781 79.351562-90.6875-5.671874-5.667969-11.339843-11.335938-17.007812-17.003906-23.246094 31.761718-58.0625 69.398437-79.347656 90.6875-27.835938 27.832031-55.058594 50.230468-79.351563 68.015625zm0 0" fill="#ffcb0f"/><path d="m272.601562 166.21875-39.675781 28.335938-17.003906 51.011718 51.011719-17 28.339844-39.675781zm0 0" fill="#ffe06f"/><path d="m221.589844 228.566406-5.667969 17 51.011719-17 28.339844-39.675781-11.335938-11.335937-28.339844 39.675781zm0 0" fill="#ffcb0f"/><path d="m374.625 120.875c-27.835938 27.832031-55.058594 50.230469-79.351562 68.011719-7.558594-7.554688-15.117188-15.113281-22.671876-22.667969 23.25-31.765625 46.726563-58.0625 68.015626-79.351562 17.546874-17.546876 39.351562-37.433594 59.160156-54.195313l29.117187 29.117187c-19.085937 22.59375-39.800781 44.617188-54.269531 59.085938zm0 0" fill="#5d87d0"/><path d="m278.269531 171.886719c5.667969 5.667969 11.335938 11.335937 17.003907 17.003906 24.292968-17.78125 51.515624-40.183594 79.351562-68.015625 14.46875-14.46875 35.183594-36.492188 54.269531-59.085938l-17.003906-17.003906c-19.085937 22.59375-39.800781 44.617188-54.269531 59.085938-27.835938 27.832031-55.058594 50.230468-79.351563 68.015625zm0 0" fill="#3569c4"/><path d="m504.484375 336.65625h-24.546875v-257c0-12.984375-10.5625-23.546875-23.546875-23.546875h-5.007813c-4.152343 0-7.515624 3.367187-7.515624 7.515625s3.363281 7.515625 7.515624 7.515625h5.007813c4.695313 0 8.515625 3.820313 8.515625 8.515625v24.546875h-63.746094c19.714844-21.066406 42.246094-46.855469 58.878906-69.578125 2.1875-2.992188 1.867188-7.128906-.753906-9.75l-22.667968-22.671875c-2.621094-2.621094-6.761719-2.941406-9.753907-.75-7.777343 5.691406-16.90625 12.917969-26.648437 21.023437l-14.609375-14.609374c-2.894531-2.890626-7.738281-2.890626-10.628907 0l-42.070312 42.074218c-2.9375 2.933594-2.9375 7.691406 0 10.625 2.894531 2.894532 7.730469 2.894532 10.625 0l36.757812-36.757812 8.417969 8.414062c-18.1875 15.648438-37.429687 33.351563-53.40625 49.328125-7.371093 7.375-14.570312 14.953125-21.625 22.679688-.183593-.011719-.375-.027344-.5625-.027344h-148.292969c-4.148437 0-7.511718 3.363281-7.511718 7.515625 0 4.148438 3.363281 7.511719 7.511718 7.511719h135.539063c-11.566406 13.4375-22.621094 27.316406-33.078125 41.550781l-38.722656 27.660156c-1.292969.921875-2.257813 2.234375-2.761719 3.738282l-17.003906 51.011718c-1.921875 5.757813 3.742187 11.425782 9.503906 9.503906l51.011719-17.003906c1.507812-.5 2.816406-1.46875 3.738281-2.761718l27.660156-38.722657c28.007813-20.578125 54.660157-43.449219 79.230469-68.019531 2.183594-2.183594 4.480469-4.507812 6.867188-6.953125h78.101562v217.421875h-417.8125v-217.421875h80.65625c4.148438 0 7.515625-3.367187 7.515625-7.515625s-3.367187-7.515625-7.515625-7.515625h-80.65625v-24.546875c0-4.695312 3.820312-8.515625 8.515625-8.515625h265.519531c4.148438 0 7.511719-3.367187 7.511719-7.515625s-3.363281-7.515625-7.511719-7.515625h-265.519531c-12.984375 0-23.546875 10.5625-23.546875 23.546875v257h-24.546875c-4.152344 0-7.515625 3.367188-7.515625 7.515625v16.03125c0 12.984375 10.5625 23.546875 23.546875 23.546875h464.90625c12.984375 0 23.546875-10.5625 23.546875-23.546875v-16.03125c0-4.148437-3.363281-7.515625-7.515625-7.515625zm-73.894531-319.226562 13.480468 13.480468c-4.867187 6.441406-10.15625 13.089844-15.667968 19.757813l-17.503906-17.503907c7.046874-5.847656 13.71875-11.191406 19.691406-15.734374zm-168.351563 204.777343-18.496093 6.167969 11.5-11.5c2.933593-2.933594 2.933593-7.691406 0-10.625-2.933594-2.9375-7.691407-2.9375-10.625 0l-11.5 11.496094 6.164062-18.492188 32.507812-23.21875 13.667969 13.664063zm33.769531-43.207031-13.515624-13.519531c19.3125-25.859375 40.632812-50.496094 63.4375-73.300781 15.742187-15.742188 35.210937-33.613282 53.449218-49.28125l19.304688 19.304687c-17.308594 20.152344-35.609375 39.589844-49.375 53.355469-22.800782 22.804687-47.4375 44.125-73.300782 63.441406zm200.960938 181.203125c0 4.695313-3.820312 8.515625-8.515625 8.515625h-464.90625c-4.695313 0-8.515625-3.820312-8.515625-8.515625v-8.515625h481.9375zm0 0"/><path d="m239.96875 80.15625c-4.148438 0-7.515625 3.367188-7.515625 7.515625s3.367187 7.515625 7.515625 7.515625h32.0625c4.148438 0 7.515625-3.367188 7.515625-7.515625s-3.367187-7.515625-7.515625-7.515625zm0 0"/><path d="m95.6875 255.5h80.15625c4.148438 0 7.515625-3.363281 7.515625-7.515625 0-4.148437-3.367187-7.515625-7.515625-7.515625h-80.15625c-4.152344 0-7.515625 3.367188-7.515625 7.515625 0 4.152344 3.363281 7.515625 7.515625 7.515625zm0 0"/><path d="m191.875 200.390625h-96.1875c-4.152344 0-7.515625 3.367187-7.515625 7.515625 0 4.152344 3.363281 7.515625 7.515625 7.515625h96.1875c4.148438 0 7.515625-3.363281 7.515625-7.515625 0-4.148438-3.367187-7.515625-7.515625-7.515625zm0 0"/><path d="m223.4375 167.828125c0-4.148437-3.367188-7.515625-7.515625-7.515625h-120.234375c-4.152344 0-7.515625 3.367188-7.515625 7.515625s3.363281 7.515625 7.515625 7.515625h120.234375c4.148437 0 7.515625-3.367188 7.515625-7.515625zm0 0"/><path d="m95.6875 295.578125h176.34375c4.148438 0 7.515625-3.363281 7.515625-7.515625 0-4.148438-3.367187-7.515625-7.515625-7.515625h-176.34375c-4.152344 0-7.515625 3.367187-7.515625 7.515625 0 4.152344 3.363281 7.515625 7.515625 7.515625zm0 0"/><path d="m304.09375 255.5h112.21875c4.152344 0 7.515625-3.363281 7.515625-7.515625 0-4.148437-3.363281-7.515625-7.515625-7.515625h-112.21875c-4.148438 0-7.515625 3.367188-7.515625 7.515625 0 4.152344 3.367187 7.515625 7.515625 7.515625zm0 0"/><path d="m304.09375 295.578125h112.21875c4.152344 0 7.515625-3.363281 7.515625-7.515625 0-4.148438-3.363281-7.515625-7.515625-7.515625h-112.21875c-4.148438 0-7.515625 3.367187-7.515625 7.515625 0 4.152344 3.367187 7.515625 7.515625 7.515625zm0 0"/></svg>