<?xml version="1.0" encoding="iso-8859-1"?>
<!-- Generator: Adobe Illustrator 21.0.0, SVG Export Plug-In . SVG Version: 6.00 Build 0)  -->
<svg xmlns="http://www.w3.org/2000/svg" xmlns:xlink="http://www.w3.org/1999/xlink" version="1.1" id="Capa_1" x="0px" y="0px" viewBox="0 0 502.805 502.805" style="enable-background:new 0 0 502.805 502.805;" xml:space="preserve" width="512" height="512">
<g>
	<g>
		<g>
			<g>
				<path style="fill:#79B621;" d="M456.002,399.559h-409.2c-10.249,0-18.557-8.308-18.557-18.557V93.972      c0-10.249,8.308-18.557,18.557-18.557h409.2c10.249,0,18.557,8.308,18.557,18.557v287.03      C474.559,391.251,466.251,399.559,456.002,399.559z"/>
			</g>
		</g>
	</g>
	<g>
		<g>
			<g>
				
					<rect x="105.819" y="65.841" transform="matrix(-1.836970e-16 1 -1 -1.836970e-16 506.4003 3.5961)" style="fill:#BFE398;" width="291.166" height="378.314"/>
			</g>
		</g>
	</g>
	<g>
		<g>
			<g>
				<rect x="410.559" y="109.415" style="fill:#ABD173;" width="30" height="291.166"/>
			</g>
		</g>
	</g>
	<g>
		<g>
			<g>
				<path style="fill:#528723;" d="M456.002,75.415h-30c10.249,0,18.557,8.308,18.557,18.557v287.03      c0,10.249-8.308,18.557-18.557,18.557h30c10.249,0,18.557-8.308,18.557-18.557V93.972      C474.559,83.723,466.251,75.415,456.002,75.415z"/>
			</g>
		</g>
	</g>
	<g>
		<g>
			<g>
				<path style="fill:#79B621;" d="M7.5,389.187v20.752c0,9.638,7.813,17.451,17.451,17.451h452.903      c9.638,0,17.451-7.813,17.451-17.451v-20.752H7.5z"/>
			</g>
		</g>
	</g>
	<g>
		<g>
			<g>
				<path style="fill:#528723;" d="M465.304,389.187v20.752c0,9.638-7.813,17.451-17.45,17.451h30c9.638,0,17.45-7.813,17.45-17.451      v-20.752H465.304z"/>
			</g>
		</g>
	</g>
	<g>
		<g>
			<g>
				<rect x="180.665" y="389.187" style="fill:#B4B4B4;" width="141.474" height="38.202"/>
			</g>
		</g>
	</g>
	<g>
		<g>
			<g>
				<circle style="fill:#FEFEFE;" cx="251.402" cy="254.698" r="100.844"/>
			</g>
		</g>
	</g>
	<g>
		<g>
			<g>
				<path style="fill:#E5E5E5;" d="M251.402,153.854c-5.098,0-10.106,0.382-15,1.112c48.58,7.245,85.844,49.135,85.844,99.732      s-37.264,92.487-85.844,99.732c4.894,0.73,9.902,1.112,15,1.112c55.694,0,100.844-45.149,100.844-100.844      S307.096,153.854,251.402,153.854z"/>
			</g>
		</g>
	</g>
	<g>
		<g>
			<g>
				<path style="fill:#F7C848;" d="M206.93,212.122c-2.173,8.988-3.379,18.765-3.379,29.005c0,43.842,48.851,79.383,48.851,79.383      s48.851-35.541,48.851-79.383c0-10.241-1.206-20.018-3.379-29.005l-45.472-14.27L206.93,212.122z"/>
			</g>
		</g>
	</g>
	<g>
		<g>
			<g>
				<path style="fill:#F1B22B;" d="M297.874,212.122l-45.472-14.27l-15,4.707l30.472,9.562c2.173,8.988,3.379,18.765,3.379,29.005      c0,27.696-19.492,52.074-33.851,66.277c8.372,8.281,15,13.106,15,13.106s48.851-35.541,48.851-79.383      C301.253,230.887,300.047,221.11,297.874,212.122z"/>
			</g>
		</g>
	</g>
	<g>
		<path style="fill:#18191B;" d="M495.305,381.687h-13.281c0.021-0.226,0.035-0.454,0.035-0.686V93.972    c0-14.368-11.689-26.057-26.057-26.057h-409.2c-14.368,0-26.057,11.689-26.057,26.057v77.542c0,4.142,3.358,7.5,7.5,7.5    s7.5-3.358,7.5-7.5V93.972c0-6.097,4.96-11.057,11.057-11.057h409.2c6.097,0,11.057,4.96,11.057,11.057v287.03    c0,0.231,0.014,0.459,0.035,0.686H448.06V255.065c0-4.142-3.357-7.5-7.5-7.5s-7.5,3.358-7.5,7.5v126.623H322.139H180.666H69.745    V120.941c0-2.22,1.806-4.026,4.025-4.026h355.263c2.22,0,4.026,1.806,4.026,4.026v102.124c0,4.142,3.357,7.5,7.5,7.5    s7.5-3.358,7.5-7.5V120.941c0-10.491-8.535-19.026-19.026-19.026H73.771c-10.491,0-19.025,8.535-19.025,19.026v260.747H35.783    c-0.014-0.229-0.038-0.456-0.038-0.686V204.514c0-4.142-3.358-7.5-7.5-7.5s-7.5,3.358-7.5,7.5v176.488    c0,0.229,0.013,0.457,0.019,0.686H7.5c-4.142,0-7.5,3.358-7.5,7.5v20.752c0,13.758,11.193,24.95,24.951,24.95h155.715h141.473    h155.715c13.758,0,24.951-11.193,24.951-24.95v-20.752C502.805,385.045,499.447,381.687,495.305,381.687z M15,409.939v-13.252    h158.166v23.202H24.951C19.464,419.89,15,415.426,15,409.939z M188.166,419.89v-23.202h126.473v23.202H188.166z M487.805,409.939    c0,5.487-4.464,9.95-9.951,9.95H329.639v-23.202h158.166V409.939z"/>
		<path style="fill:#18191B;" d="M143.059,254.698c0,59.741,48.603,108.344,108.344,108.344    c59.741,0,108.344-48.603,108.344-108.344c0-59.741-48.603-108.344-108.344-108.344    C191.662,146.354,143.059,194.957,143.059,254.698z M344.746,254.698c0,51.47-41.874,93.344-93.344,93.344    s-93.344-41.874-93.344-93.344c0-51.47,41.874-93.344,93.344-93.344S344.746,203.228,344.746,254.698z"/>
		<path style="fill:#18191B;" d="M204.684,204.966c-2.511,0.788-4.426,2.835-5.044,5.394c-2.382,9.852-3.589,20.204-3.589,30.768    c0,47.119,49.818,83.905,51.938,85.448c1.315,0.957,2.864,1.435,4.413,1.435s3.097-0.479,4.412-1.435    c0.528-0.384,13.081-9.582,25.728-24.458c17.148-20.17,26.212-41.26,26.212-60.99c0-10.565-1.207-20.917-3.589-30.768    c-0.618-2.558-2.533-4.605-5.045-5.394l-45.473-14.27c-1.462-0.459-3.03-0.458-4.49,0L204.684,204.966z M252.401,205.713    l39.089,12.266c1.503,7.461,2.263,15.229,2.263,23.148c0,32.026-29.876,60.167-41.352,69.792    c-11.479-9.629-41.351-37.768-41.351-69.792c0-7.918,0.76-15.685,2.263-23.148L252.401,205.713z"/>
		<path style="fill:#18191B;" d="M240.081,271.403c1.211,1.949,3.248,3.236,5.528,3.494c0.281,0.032,0.563,0.047,0.843,0.047    c1.988,0,3.91-0.791,5.326-2.219l28.124-28.365c2.916-2.941,2.896-7.69-0.046-10.607c-2.939-2.916-7.688-2.896-10.606,0.045    l-21.439,21.623l-3.891-6.261c-2.185-3.518-6.81-4.599-10.329-2.412c-3.518,2.186-4.598,6.811-2.412,10.329L240.081,271.403z"/>
	</g>
</g>















</svg>
