<svg xmlns="http://www.w3.org/2000/svg" height="512" viewBox="-8 0 480 480" width="512" class=""><g><path d="m184 224v-24h-16c-8.835938 0-16 7.164062-16 16v96h24c8.835938 0 16 7.164062 16 16v32h112v-16c0-8.835938 7.164062-16 16-16h56c8.835938 0 16 7.164062 16 16v-48h-136c-39.765625 0-72-32.234375-72-72zm0 0" fill="#cff09e" data-original="#CFF09E" class="" style="fill:#D0E0E8" data-old_color="#D2E2E9"></path><path d="m304 360v-16c0-8.835938 7.164062-16 16-16h-128v32zm0 0" fill="#a8dba8" data-original="#A8DBA8" class="active-path" style="fill:#007AFF" data-old_color="#0043FF"></path><path d="m304 392h-96c-5.628906.035156-11.144531 1.550781-16 4.398438v27.601562h112zm0 0" fill="#a8dba8" data-original="#A8DBA8" class="active-path" style="fill:#007AFF" data-old_color="#0043FF"></path><path d="m304 370.640625-8-10.640625h-48l-24 32h80zm0 0" fill="#79bd9a" data-original="#79BD9A" class="" style="fill:#007AFF" data-old_color="#0072FF"></path><path d="m8 424h208v8c0 13.253906-10.746094 24-24 24h-160c-13.253906 0-24-10.746094-24-24zm0 0" fill="#a8dba8" data-original="#A8DBA8" class="active-path" style="fill:#007AFF" data-old_color="#0043FF"></path><path d="m56 336v-24h-8c-8.835938 0-16 7.164062-16 16v96h160v-24h-72c-35.347656 0-64-28.652344-64-64zm0 0" fill="#cff09e" data-original="#CFF09E" class="" style="fill:#D0E0E8" data-old_color="#D2E2E9"></path><path d="m320 376v-48c-8.835938 0-16 7.164062-16 16v96c0 8.835938 7.164062 16 16 16h56c8.835938 0 16-7.164062 16-16v-32h-40c-17.671875 0-32-14.328125-32-32zm0 0" fill="#cff09e" data-original="#CFF09E" class="" style="fill:#D0E0E8" data-old_color="#D2E2E9"></path><path d="m304 424h88v16c0 8.835938-7.164062 16-16 16h-56c-8.835938 0-16-7.164062-16-16zm0 0" fill="#a8dba8" data-original="#A8DBA8" class="active-path" style="fill:#007AFF" data-old_color="#0043FF"></path><path d="m400 416v-32c-4.417969 0-8 3.582031-8 8v72c0 4.417969 3.582031 8 8 8h48c4.417969 0 8-3.582031 8-8h-8c-26.507812 0-48-21.492188-48-48zm0 0" fill="#cff09e" data-original="#CFF09E" class="" style="fill:#D0E0E8" data-old_color="#D2E2E9"></path><path d="m288.558594 72c.058594-2.917969-.128906-5.835938-.558594-8.71875l16-9.441406-16-27.679688-16 9.359375c-4.507812-3.785156-9.65625-6.738281-15.199219-8.71875v-18.800781h-32v18.800781c-5.53125 1.957031-10.65625 4.914063-15.121093 8.71875l-16-9.359375-16 27.679688 16 9.441406c-1.171876 5.753906-1.171876 11.683594 0 17.4375l-16 9.441406 16 27.679688 16-9.359375c4.464843 3.804687 9.589843 6.761719 15.121093 8.71875v18.800781h32v-18.800781c5.542969-1.980469 10.691407-4.933594 15.199219-8.71875l16 9.359375 16-27.679688-16-9.441406c.429688-2.882812.617188-5.800781.558594-8.71875zm-48 16c-8.835938 0-16-7.164062-16-16s7.164062-16 16-16c8.839844 0 16 7.164062 16 16s-7.160156 16-16 16zm0 0" fill="#a8dba8" data-original="#A8DBA8" class="active-path" style="fill:#007AFF" data-old_color="#0043FF"></path><g fill="#3b8686"><path d="m448 376h-48v-160c0-13.253906-10.746094-24-24-24h-208c-13.253906 0-24 10.746094-24 24v88h-96c-13.253906 0-24 10.746094-24 24v88h-16c-4.417969 0-8 3.582031-8 8v8c0 17.671875 14.328125 32 32 32h160c17.671875 0 32-14.328125 32-32h72v8c0 13.253906 10.746094 24 24 24h56c2.722656.003906 5.429688-.457031 8-1.359375v1.359375c0 8.835938 7.164062 16 16 16h48c8.835938 0 16-7.164062 16-16v-72c0-8.835938-7.164062-16-16-16zm0 44.71875-28.71875-28.71875h28.71875zm-248-4.71875v-14.558594c2.5625-.949218 5.269531-1.4375 8-1.441406h88v16zm-24-96c4.417969 0 8 3.582031 8 8v44.71875l-52.71875-52.71875zm121.359375 16c-.902344 2.570312-1.363281 5.277344-1.359375 8v8h-96v-16zm86.640625 52.71875-52.71875-52.71875h44.71875c4.417969 0 8 3.582031 8 8zm-176-4.71875c-2.683594.023438-5.363281.292969-8 .800781v-16.800781h32l-12 16zm44-16h44v16h-56zm60-24c-.015625-1.316406.316406-2.613281.960938-3.761719l71.039062 71.042969v4.71875h-72zm72-128v76.71875l-84.71875-84.71875h76.71875c4.417969 0 8 3.582031 8 8zm-224 0c0-4.417969 3.582031-8 8-8h108.71875l107.28125 107.28125v6.078125c-2.570312-.902344-5.277344-1.363281-8-1.359375h-177.359375c-3.390625-9.59375-12.464844-16.003906-22.640625-16h-16zm-120 112c0-4.417969 3.582031-8 8-8h60.71875l75.28125 75.28125v20.71875h-144zm152 120h-160c-8.835938 0-16-7.164062-16-16h192c0 8.835938-7.164062 16-16 16zm184 0h-56c-4.417969 0-8-3.582031-8-8v-8h72v8c0 4.417969-3.582031 8-8 8zm24 16v-68.71875l48 48v20.71875zm0 0" data-original="#000000" class="" style="fill:#000000"></path><path d="m168.878906 88c-.550781 2.050781-.261718 4.238281.800782 6.078125l16 27.683594c1.042968 1.835937 2.765624 3.1875 4.800781 3.757812 2.054687.507813 4.226562.222657 6.078125-.800781l11.441406-6.640625c2.53125 1.722656 5.207031 3.222656 8 4.480469v13.441406c0 4.417969 3.582031 8 8 8h32c4.417969 0 8-3.582031 8-8v-13.441406c2.792969-1.257813 5.46875-2.757813 8-4.480469l11.679688 6.722656c1.855468 1.023438 4.023437 1.308594 6.082031.800781 2.03125-.570312 3.757812-1.921874 4.796875-3.761718l16-27.679688c1.066406-1.839844 1.351562-4.027344.800781-6.082031-.53125-2.046875-1.855469-3.800781-3.679687-4.878906l-11.679688-6.71875c0-1.519531 0-2.960938 0-4.480469s0-2.960938 0-4.480469l11.601562-6.71875c1.746094-1.089843 3.007813-2.808593 3.519532-4.800781.550781-2.050781.261718-4.238281-.800782-6.078125l-16-27.683594c-2.195312-3.808593-7.054687-5.128906-10.878906-2.957031l-11.441406 6.640625c-2.53125-1.722656-5.207031-3.222656-8-4.480469v-13.441406c0-4.417969-3.582031-8-8-8h-32c-4.417969 0-8 3.582031-8 8v13.441406c-2.792969 1.257813-5.46875 2.757813-8 4.480469l-11.441406-6.722656c-3.824219-2.171875-8.683594-.847657-10.878906 2.960937l-16 27.679688c-1.0625 1.839844-1.351563 4.027344-.800782 6.082031.535156 2.046875 1.855469 3.800781 3.679688 4.878906l11.601562 6.71875v4.480469 4.480469l-11.601562 6.71875c-1.804688 1.058593-3.128906 2.78125-3.679688 4.800781zm32-8.800781c-.957031-4.804688-.957031-9.753907 0-14.558594.699219-3.464844-.960937-6.976563-4.078125-8.640625l-9.28125-5.359375 8-13.921875 9.28125 5.441406c2.941407 1.6875 6.628907 1.335938 9.199219-.878906 3.742188-3.167969 8.023438-5.636719 12.640625-7.28125 3.089844-1.078125 5.214844-3.929688 5.359375-7.199219v-10.800781h16v10.800781c.011719 3.386719 2.160156 6.402344 5.359375 7.519531 4.617187 1.644532 8.898437 4.113282 12.640625 7.28125 2.570312 2.210938 6.257812 2.566407 9.199219.878907l9.28125-5.441407 8 13.921876-9.28125 5.039062c-2.960938 1.679688-4.53125 5.050781-3.917969 8.398438.957031 4.808593.957031 9.753906 0 14.5625-.925781 3.554687.691406 7.285156 3.917969 9.039062l9.28125 5.359375-8 13.921875-9.28125-5.441406c-2.941407-1.6875-6.628907-1.335938-9.199219.878906-3.742188 3.167969-8.023438 5.636719-12.640625 7.28125-3.199219 1.117188-5.347656 4.132812-5.359375 7.519531v10.480469h-16v-10.800781c-.011719-3.386719-2.160156-6.402344-5.359375-7.519531-4.617187-1.644532-8.898437-4.113282-12.640625-7.28125-2.570312-2.210938-6.257812-2.566407-9.199219-.878907l-9.28125 5.441407-8-13.921876 9.28125-5.039062c3.089844-1.71875 4.683594-5.265625 3.917969-8.71875zm0 0" data-original="#000000" class="" style="fill:#000000"></path><path d="m240 96c13.253906 0 24-10.746094 24-24s-10.746094-24-24-24-24 10.746094-24 24 10.746094 24 24 24zm0-32c4.417969 0 8 3.582031 8 8s-3.582031 8-8 8-8-3.582031-8-8 3.582031-8 8-8zm0 0" data-original="#000000" class="" style="fill:#000000"></path><path d="m86.640625 169.359375c2.125.011719 4.167969-.820313 5.679687-2.320313 1.515626-1.5 2.367188-3.546874 2.367188-5.679687s-.851562-4.175781-2.367188-5.679687c-7.503906-7.523438-17.695312-11.75-28.320312-11.75s-20.816406 4.226562-28.320312 11.75c-3.136719 3.136718-3.136719 8.222656 0 11.359374 3.136718 3.136719 8.222656 3.136719 11.359374 0 9.507813-9.019531 24.414063-9.019531 33.921876 0 1.507812 1.5 3.550781 2.332032 5.679687 2.320313zm0 0" data-original="#000000" class="" style="fill:#000000"></path><path d="m24.398438 144.398438c21.871093-21.871094 57.332031-21.871094 79.203124 0 3.117188 3.101562 8.15625 3.101562 11.277344 0 3.101563-3.117188 3.101563-8.15625 0-11.277344-28.109375-28.078125-73.648437-28.078125-101.757812 0-2.71875 3.171875-2.535156 7.90625.417968 10.859375 2.957032 2.953125 7.6875 3.136719 10.859376.417969zm0 0" data-original="#000000" class="" style="fill:#000000"></path><path d="m72 184c0 4.417969-3.582031 8-8 8s-8-3.582031-8-8 3.582031-8 8-8 8 3.582031 8 8zm0 0" data-original="#000000" class="" style="fill:#000000"></path><path d="m64 264c4.417969 0 8-3.582031 8-8v-40c0-4.417969-3.582031-8-8-8s-8 3.582031-8 8v40c0 4.417969 3.582031 8 8 8zm0 0" data-original="#000000" class="" style="fill:#000000"></path><path d="m328 80h72c13.253906 0 24 10.746094 24 24v240c0 4.417969 3.582031 8 8 8s8-3.582031 8-8v-240c0-22.089844-17.910156-40-40-40h-72c-4.417969 0-8 3.582031-8 8s3.582031 8 8 8zm0 0" data-original="#000000" class="" style="fill:#000000"></path><path d="m324.398438 127.121094 7.203124 3.597656c2.714844 1.371094 4.417969 4.160156 4.398438 7.203125v30.078125c0 4.417969 3.582031 8 8 8s8-3.582031 8-8v-30.078125c.019531-9.113281-5.125-17.453125-13.28125-21.523437l-7.117188-3.519532c-2.570312-1.546875-5.789062-1.523437-8.339843.054688-2.546875 1.578125-4 4.453125-3.761719 7.441406.242188 2.988281 2.132812 5.59375 4.898438 6.746094zm0 0" data-original="#000000" class="" style="fill:#000000"></path><path d="m64 88c4.417969 0 8-3.582031 8-8v-24c0-4.417969 3.582031-8 8-8h56c4.417969 0 8-3.582031 8-8s-3.582031-8-8-8h-56c-13.253906 0-24 10.746094-24 24v24c0 4.417969 3.582031 8 8 8zm0 0" data-original="#000000" class="" style="fill:#000000"></path></g></g> </svg>